<svg width="1363" height="163" viewBox="0 0 1363 163" fill="none" xmlns="http://www.w3.org/2000/svg">
<path d="M0 15C0 6.71573 6.71573 0 15 0H37V163H15C6.71573 163 0 156.284 0 148V15Z" fill="#30C5A6"/>
<rect width="1097" height="163" transform="translate(37)" fill="#F0F0F0"/>
<path d="M101.906 53.9219L94.3945 51.2383V48.0859L104.602 52.375V54.6367L101.906 53.9219ZM94.3945 56.1719L101.918 53.4297L104.602 52.7852V55.0352L94.3945 59.3242V56.1719ZM119.578 53.5117H115.195L115.172 51.0977H118.852C119.5 51.0977 120.031 51.0156 120.445 50.8516C120.859 50.6797 121.168 50.4336 121.371 50.1133C121.582 49.7852 121.688 49.3867 121.688 48.918C121.688 48.3867 121.586 47.957 121.383 47.6289C121.188 47.3008 120.879 47.0625 120.457 46.9141C120.043 46.7656 119.508 46.6914 118.852 46.6914H116.414V61H112.898V43.9375H118.852C119.844 43.9375 120.73 44.0312 121.512 44.2188C122.301 44.4062 122.969 44.6914 123.516 45.0742C124.062 45.457 124.48 45.9414 124.77 46.5273C125.059 47.1055 125.203 47.793 125.203 48.5898C125.203 49.293 125.043 49.9414 124.723 50.5352C124.41 51.1289 123.914 51.6133 123.234 51.9883C122.562 52.3633 121.684 52.5703 120.598 52.6094L119.578 53.5117ZM119.426 61H114.234L115.605 58.2578H119.426C120.043 58.2578 120.547 58.1602 120.938 57.9648C121.328 57.7617 121.617 57.4883 121.805 57.1445C121.992 56.8008 122.086 56.4062 122.086 55.9609C122.086 55.4609 122 55.0273 121.828 54.6602C121.664 54.293 121.398 54.0117 121.031 53.8164C120.664 53.6133 120.18 53.5117 119.578 53.5117H116.191L116.215 51.0977H120.434L121.242 52.0469C122.281 52.0312 123.117 52.2148 123.75 52.5977C124.391 52.9727 124.855 53.4609 125.145 54.0625C125.441 54.6641 125.59 55.3086 125.59 55.9961C125.59 57.0898 125.352 58.0117 124.875 58.7617C124.398 59.5039 123.699 60.0625 122.777 60.4375C121.863 60.8125 120.746 61 119.426 61ZM127.477 54.7891V54.543C127.477 53.6133 127.609 52.7578 127.875 51.9766C128.141 51.1875 128.527 50.5039 129.035 49.9258C129.543 49.3477 130.168 48.8984 130.91 48.5781C131.652 48.25 132.504 48.0859 133.465 48.0859C134.426 48.0859 135.281 48.25 136.031 48.5781C136.781 48.8984 137.41 49.3477 137.918 49.9258C138.434 50.5039 138.824 51.1875 139.09 51.9766C139.355 52.7578 139.488 53.6133 139.488 54.543V54.7891C139.488 55.7109 139.355 56.5664 139.09 57.3555C138.824 58.1367 138.434 58.8203 137.918 59.4062C137.41 59.9844 136.785 60.4336 136.043 60.7539C135.301 61.0742 134.449 61.2344 133.488 61.2344C132.527 61.2344 131.672 61.0742 130.922 60.7539C130.18 60.4336 129.551 59.9844 129.035 59.4062C128.527 58.8203 128.141 58.1367 127.875 57.3555C127.609 56.5664 127.477 55.7109 127.477 54.7891ZM130.852 54.543V54.7891C130.852 55.3203 130.898 55.8164 130.992 56.2773C131.086 56.7383 131.234 57.1445 131.438 57.4961C131.648 57.8398 131.922 58.1094 132.258 58.3047C132.594 58.5 133.004 58.5977 133.488 58.5977C133.957 58.5977 134.359 58.5 134.695 58.3047C135.031 58.1094 135.301 57.8398 135.504 57.4961C135.707 57.1445 135.855 56.7383 135.949 56.2773C136.051 55.8164 136.102 55.3203 136.102 54.7891V54.543C136.102 54.0273 136.051 53.543 135.949 53.0898C135.855 52.6289 135.703 52.2227 135.492 51.8711C135.289 51.5117 135.02 51.2305 134.684 51.0273C134.348 50.8242 133.941 50.7227 133.465 50.7227C132.988 50.7227 132.582 50.8242 132.246 51.0273C131.918 51.2305 131.648 51.5117 131.438 51.8711C131.234 52.2227 131.086 52.6289 130.992 53.0898C130.898 53.543 130.852 54.0273 130.852 54.543ZM141.023 54.7891V54.543C141.023 53.6133 141.156 52.7578 141.422 51.9766C141.688 51.1875 142.074 50.5039 142.582 49.9258C143.09 49.3477 143.715 48.8984 144.457 48.5781C145.199 48.25 146.051 48.0859 147.012 48.0859C147.973 48.0859 148.828 48.25 149.578 48.5781C150.328 48.8984 150.957 49.3477 151.465 49.9258C151.98 50.5039 152.371 51.1875 152.637 51.9766C152.902 52.7578 153.035 53.6133 153.035 54.543V54.7891C153.035 55.7109 152.902 56.5664 152.637 57.3555C152.371 58.1367 151.98 58.8203 151.465 59.4062C150.957 59.9844 150.332 60.4336 149.59 60.7539C148.848 61.0742 147.996 61.2344 147.035 61.2344C146.074 61.2344 145.219 61.0742 144.469 60.7539C143.727 60.4336 143.098 59.9844 142.582 59.4062C142.074 58.8203 141.688 58.1367 141.422 57.3555C141.156 56.5664 141.023 55.7109 141.023 54.7891ZM144.398 54.543V54.7891C144.398 55.3203 144.445 55.8164 144.539 56.2773C144.633 56.7383 144.781 57.1445 144.984 57.4961C145.195 57.8398 145.469 58.1094 145.805 58.3047C146.141 58.5 146.551 58.5977 147.035 58.5977C147.504 58.5977 147.906 58.5 148.242 58.3047C148.578 58.1094 148.848 57.8398 149.051 57.4961C149.254 57.1445 149.402 56.7383 149.496 56.2773C149.598 55.8164 149.648 55.3203 149.648 54.7891V54.543C149.648 54.0273 149.598 53.543 149.496 53.0898C149.402 52.6289 149.25 52.2227 149.039 51.8711C148.836 51.5117 148.566 51.2305 148.23 51.0273C147.895 50.8242 147.488 50.7227 147.012 50.7227C146.535 50.7227 146.129 50.8242 145.793 51.0273C145.465 51.2305 145.195 51.5117 144.984 51.8711C144.781 52.2227 144.633 52.6289 144.539 53.0898C144.445 53.543 144.398 54.0273 144.398 54.543ZM158.484 42.9883V61H155.109V42.9883H158.484ZM166.477 48.3203L160.969 54.6016L158.016 57.5898L156.785 55.1523L159.129 52.1758L162.422 48.3203H166.477ZM162.973 61L159.223 55.1406L161.555 53.1016L166.863 61H162.973ZM183 56.5352C183 56.2305 182.953 55.957 182.859 55.7148C182.773 55.4648 182.609 55.2383 182.367 55.0352C182.125 54.8242 181.785 54.6172 181.348 54.4141C180.91 54.2109 180.344 54 179.648 53.7812C178.875 53.5312 178.141 53.25 177.445 52.9375C176.758 52.625 176.148 52.2617 175.617 51.8477C175.094 51.4258 174.68 50.9375 174.375 50.3828C174.078 49.8281 173.93 49.1836 173.93 48.4492C173.93 47.7383 174.086 47.0938 174.398 46.5156C174.711 45.9297 175.148 45.4297 175.711 45.0156C176.273 44.5938 176.938 44.2695 177.703 44.043C178.477 43.8164 179.324 43.7031 180.246 43.7031C181.504 43.7031 182.602 43.9297 183.539 44.3828C184.477 44.8359 185.203 45.457 185.719 46.2461C186.242 47.0352 186.504 47.9375 186.504 48.9531H183.012C183.012 48.4531 182.906 48.0156 182.695 47.6406C182.492 47.2578 182.18 46.957 181.758 46.7383C181.344 46.5195 180.82 46.4102 180.188 46.4102C179.578 46.4102 179.07 46.5039 178.664 46.6914C178.258 46.8711 177.953 47.1172 177.75 47.4297C177.547 47.7344 177.445 48.0781 177.445 48.4609C177.445 48.75 177.516 49.0117 177.656 49.2461C177.805 49.4805 178.023 49.6992 178.312 49.9023C178.602 50.1055 178.957 50.2969 179.379 50.4766C179.801 50.6562 180.289 50.832 180.844 51.0039C181.773 51.2852 182.59 51.6016 183.293 51.9531C184.004 52.3047 184.598 52.6992 185.074 53.1367C185.551 53.5742 185.91 54.0703 186.152 54.625C186.395 55.1797 186.516 55.8086 186.516 56.5117C186.516 57.2539 186.371 57.918 186.082 58.5039C185.793 59.0898 185.375 59.5859 184.828 59.9922C184.281 60.3984 183.629 60.707 182.871 60.918C182.113 61.1289 181.266 61.2344 180.328 61.2344C179.484 61.2344 178.652 61.125 177.832 60.9062C177.012 60.6797 176.266 60.3398 175.594 59.8867C174.93 59.4336 174.398 58.8555 174 58.1523C173.602 57.4492 173.402 56.6172 173.402 55.6562H176.93C176.93 56.1875 177.012 56.6367 177.176 57.0039C177.34 57.3711 177.57 57.668 177.867 57.8945C178.172 58.1211 178.531 58.2852 178.945 58.3867C179.367 58.4883 179.828 58.5391 180.328 58.5391C180.938 58.5391 181.438 58.4531 181.828 58.2812C182.227 58.1094 182.52 57.8711 182.707 57.5664C182.902 57.2617 183 56.918 183 56.5352ZM191.988 43V61H188.613V43H191.988ZM191.508 54.2148H190.582C190.59 53.332 190.707 52.5195 190.934 51.7773C191.16 51.0273 191.484 50.3789 191.906 49.832C192.328 49.2773 192.832 48.8477 193.418 48.543C194.012 48.2383 194.668 48.0859 195.387 48.0859C196.012 48.0859 196.578 48.1758 197.086 48.3555C197.602 48.5273 198.043 48.8086 198.41 49.1992C198.785 49.582 199.074 50.0859 199.277 50.7109C199.48 51.3359 199.582 52.0938 199.582 52.9844V61H196.184V52.9609C196.184 52.3984 196.102 51.957 195.938 51.6367C195.781 51.3086 195.551 51.0781 195.246 50.9453C194.949 50.8047 194.582 50.7344 194.145 50.7344C193.66 50.7344 193.246 50.8242 192.902 51.0039C192.566 51.1836 192.297 51.4336 192.094 51.7539C191.891 52.0664 191.742 52.4336 191.648 52.8555C191.555 53.2773 191.508 53.7305 191.508 54.2148ZM208.992 58.1406V52.4922C208.992 52.0859 208.926 51.7383 208.793 51.4492C208.66 51.1523 208.453 50.9219 208.172 50.7578C207.898 50.5938 207.543 50.5117 207.105 50.5117C206.73 50.5117 206.406 50.5781 206.133 50.7109C205.859 50.8359 205.648 51.0195 205.5 51.2617C205.352 51.4961 205.277 51.7734 205.277 52.0938H201.902C201.902 51.5547 202.027 51.043 202.277 50.5586C202.527 50.0742 202.891 49.6484 203.367 49.2812C203.844 48.9062 204.41 48.6133 205.066 48.4023C205.73 48.1914 206.473 48.0859 207.293 48.0859C208.277 48.0859 209.152 48.25 209.918 48.5781C210.684 48.9062 211.285 49.3984 211.723 50.0547C212.168 50.7109 212.391 51.5312 212.391 52.5156V57.9414C212.391 58.6367 212.434 59.207 212.52 59.6523C212.605 60.0898 212.73 60.4727 212.895 60.8008V61H209.484C209.32 60.6562 209.195 60.2266 209.109 59.7109C209.031 59.1875 208.992 58.6641 208.992 58.1406ZM209.438 53.2773L209.461 55.1875H207.574C207.129 55.1875 206.742 55.2383 206.414 55.3398C206.086 55.4414 205.816 55.5859 205.605 55.7734C205.395 55.9531 205.238 56.1641 205.137 56.4062C205.043 56.6484 204.996 56.9141 204.996 57.2031C204.996 57.4922 205.062 57.7539 205.195 57.9883C205.328 58.2148 205.52 58.3945 205.77 58.5273C206.02 58.6523 206.312 58.7148 206.648 58.7148C207.156 58.7148 207.598 58.6133 207.973 58.4102C208.348 58.207 208.637 57.957 208.84 57.6602C209.051 57.3633 209.16 57.082 209.168 56.8164L210.059 58.2461C209.934 58.5664 209.762 58.8984 209.543 59.2422C209.332 59.5859 209.062 59.9102 208.734 60.2148C208.406 60.5117 208.012 60.7578 207.551 60.9531C207.09 61.1406 206.543 61.2344 205.91 61.2344C205.105 61.2344 204.375 61.0742 203.719 60.7539C203.07 60.4258 202.555 59.9766 202.172 59.4062C201.797 58.8281 201.609 58.1719 201.609 57.4375C201.609 56.7734 201.734 56.1836 201.984 55.668C202.234 55.1523 202.602 54.7188 203.086 54.3672C203.578 54.0078 204.191 53.7383 204.926 53.5586C205.66 53.3711 206.512 53.2773 207.48 53.2773H209.438ZM218.367 51.0859V61H214.992V48.3203H218.168L218.367 51.0859ZM222.188 48.2383L222.129 51.3672C221.965 51.3438 221.766 51.3242 221.531 51.3086C221.305 51.2852 221.098 51.2734 220.91 51.2734C220.434 51.2734 220.02 51.3359 219.668 51.4609C219.324 51.5781 219.035 51.7539 218.801 51.9883C218.574 52.2227 218.402 52.5078 218.285 52.8438C218.176 53.1797 218.113 53.5625 218.098 53.9922L217.418 53.7812C217.418 52.9609 217.5 52.207 217.664 51.5195C217.828 50.8242 218.066 50.2188 218.379 49.7031C218.699 49.1875 219.09 48.7891 219.551 48.5078C220.012 48.2266 220.539 48.0859 221.133 48.0859C221.32 48.0859 221.512 48.1016 221.707 48.1328C221.902 48.1562 222.062 48.1914 222.188 48.2383ZM227.344 48.3203V61H223.957V48.3203H227.344ZM223.746 45.0156C223.746 44.5234 223.918 44.1172 224.262 43.7969C224.605 43.4766 225.066 43.3164 225.645 43.3164C226.215 43.3164 226.672 43.4766 227.016 43.7969C227.367 44.1172 227.543 44.5234 227.543 45.0156C227.543 45.5078 227.367 45.9141 227.016 46.2344C226.672 46.5547 226.215 46.7148 225.645 46.7148C225.066 46.7148 224.605 46.5547 224.262 46.2344C223.918 45.9141 223.746 45.5078 223.746 45.0156ZM233.438 51.0273V61H230.062V48.3203H233.227L233.438 51.0273ZM232.945 54.2148H232.031C232.031 53.2773 232.152 52.4336 232.395 51.6836C232.637 50.9258 232.977 50.2812 233.414 49.75C233.852 49.2109 234.371 48.8008 234.973 48.5195C235.582 48.2305 236.262 48.0859 237.012 48.0859C237.605 48.0859 238.148 48.1719 238.641 48.3438C239.133 48.5156 239.555 48.7891 239.906 49.1641C240.266 49.5391 240.539 50.0352 240.727 50.6523C240.922 51.2695 241.02 52.0234 241.02 52.9141V61H237.621V52.9023C237.621 52.3398 237.543 51.9023 237.387 51.5898C237.23 51.2773 237 51.0586 236.695 50.9336C236.398 50.8008 236.031 50.7344 235.594 50.7344C235.141 50.7344 234.746 50.8242 234.41 51.0039C234.082 51.1836 233.809 51.4336 233.59 51.7539C233.379 52.0664 233.219 52.4336 233.109 52.8555C233 53.2773 232.945 53.7305 232.945 54.2148ZM251.613 48.3203H254.672V60.5781C254.672 61.7344 254.414 62.7148 253.898 63.5195C253.391 64.332 252.68 64.9453 251.766 65.3594C250.852 65.7812 249.789 65.9922 248.578 65.9922C248.047 65.9922 247.484 65.9219 246.891 65.7812C246.305 65.6406 245.742 65.4219 245.203 65.125C244.672 64.8281 244.227 64.4531 243.867 64L245.355 62.0078C245.746 62.4609 246.199 62.8125 246.715 63.0625C247.23 63.3203 247.801 63.4492 248.426 63.4492C249.035 63.4492 249.551 63.3359 249.973 63.1094C250.395 62.8906 250.719 62.5664 250.945 62.1367C251.172 61.7148 251.285 61.2031 251.285 60.6016V51.25L251.613 48.3203ZM243.082 54.8125V54.5664C243.082 53.5977 243.199 52.7188 243.434 51.9297C243.676 51.1328 244.016 50.4492 244.453 49.8789C244.898 49.3086 245.438 48.8672 246.07 48.5547C246.703 48.2422 247.418 48.0859 248.215 48.0859C249.059 48.0859 249.766 48.2422 250.336 48.5547C250.906 48.8672 251.375 49.3125 251.742 49.8906C252.109 50.4609 252.395 51.1367 252.598 51.918C252.809 52.6914 252.973 53.5391 253.09 54.4609V55C252.973 55.8828 252.797 56.7031 252.562 57.4609C252.328 58.2188 252.02 58.8828 251.637 59.4531C251.254 60.0156 250.777 60.4531 250.207 60.7656C249.645 61.0781 248.973 61.2344 248.191 61.2344C247.41 61.2344 246.703 61.0742 246.07 60.7539C245.445 60.4336 244.91 59.9844 244.465 59.4062C244.02 58.8281 243.676 58.1484 243.434 57.3672C243.199 56.5859 243.082 55.7344 243.082 54.8125ZM246.457 54.5664V54.8125C246.457 55.3359 246.508 55.8242 246.609 56.2773C246.711 56.7305 246.867 57.1328 247.078 57.4844C247.297 57.8281 247.566 58.0977 247.887 58.293C248.215 58.4805 248.602 58.5742 249.047 58.5742C249.664 58.5742 250.168 58.4453 250.559 58.1875C250.949 57.9219 251.242 57.5586 251.438 57.0977C251.633 56.6367 251.746 56.1055 251.777 55.5039V53.9688C251.762 53.4766 251.695 53.0352 251.578 52.6445C251.461 52.2461 251.297 51.9062 251.086 51.625C250.875 51.3438 250.602 51.125 250.266 50.9688C249.93 50.8125 249.531 50.7344 249.07 50.7344C248.625 50.7344 248.238 50.8359 247.91 51.0391C247.59 51.2344 247.32 51.5039 247.102 51.8477C246.891 52.1914 246.73 52.5977 246.621 53.0664C246.512 53.5273 246.457 54.0273 246.457 54.5664Z" fill="#888888"/>
<path d="M106.688 119H99.1172L99.1641 112.672H106.688C108.25 112.672 109.57 112.297 110.648 111.547C111.742 110.797 112.57 109.68 113.133 108.195C113.711 106.695 114 104.852 114 102.664V101.188C114 99.5469 113.836 98.1094 113.508 96.875C113.195 95.625 112.727 94.5859 112.102 93.7578C111.477 92.9141 110.695 92.2812 109.758 91.8594C108.836 91.4375 107.773 91.2266 106.57 91.2266H98.9766V84.875H106.57C108.883 84.875 111 85.2734 112.922 86.0703C114.859 86.8516 116.531 87.9766 117.938 89.4453C119.359 90.8984 120.453 92.625 121.219 94.625C122 96.6094 122.391 98.8125 122.391 101.234V102.664C122.391 105.07 122 107.273 121.219 109.273C120.453 111.273 119.367 113 117.961 114.453C116.555 115.906 114.891 117.031 112.969 117.828C111.062 118.609 108.969 119 106.688 119ZM103.828 84.875V119H95.6016V84.875H103.828ZM138.586 119.469C136.523 119.469 134.68 119.148 133.055 118.508C131.43 117.852 130.055 116.953 128.93 115.812C127.82 114.672 126.969 113.359 126.375 111.875C125.797 110.391 125.508 108.82 125.508 107.164V106.273C125.508 104.414 125.766 102.695 126.281 101.117C126.797 99.5234 127.562 98.1328 128.578 96.9453C129.594 95.7578 130.867 94.8359 132.398 94.1797C133.93 93.5078 135.711 93.1719 137.742 93.1719C139.539 93.1719 141.148 93.4609 142.57 94.0391C143.992 94.6172 145.195 95.4453 146.18 96.5234C147.18 97.6016 147.938 98.9062 148.453 100.438C148.984 101.969 149.25 103.688 149.25 105.594V108.805H128.531V103.859H141.539V103.25C141.555 102.406 141.406 101.688 141.094 101.094C140.797 100.5 140.359 100.047 139.781 99.7344C139.203 99.4219 138.5 99.2656 137.672 99.2656C136.812 99.2656 136.102 99.4531 135.539 99.8281C134.992 100.203 134.562 100.719 134.25 101.375C133.953 102.016 133.742 102.758 133.617 103.602C133.492 104.445 133.43 105.336 133.43 106.273V107.164C133.43 108.102 133.555 108.953 133.805 109.719C134.07 110.484 134.445 111.141 134.93 111.688C135.43 112.219 136.023 112.633 136.711 112.93C137.414 113.227 138.211 113.375 139.102 113.375C140.18 113.375 141.242 113.172 142.289 112.766C143.336 112.359 144.234 111.688 144.984 110.75L148.57 115.016C148.055 115.75 147.32 116.461 146.367 117.148C145.43 117.836 144.305 118.398 142.992 118.836C141.68 119.258 140.211 119.469 138.586 119.469ZM160.43 99.0078V119H152.531V93.6406H159.938L160.43 99.0078ZM159.469 105.453L157.664 105.5C157.664 103.719 157.875 102.078 158.297 100.578C158.719 99.0781 159.344 97.7734 160.172 96.6641C161 95.5547 162.016 94.6953 163.219 94.0859C164.438 93.4766 165.844 93.1719 167.438 93.1719C168.547 93.1719 169.555 93.3438 170.461 93.6875C171.367 94.0156 172.148 94.5391 172.805 95.2578C173.461 95.9609 173.961 96.8828 174.305 98.0234C174.664 99.1484 174.844 100.5 174.844 102.078V119H166.945V103.086C166.945 102.008 166.82 101.195 166.57 100.648C166.336 100.102 165.992 99.7344 165.539 99.5469C165.086 99.3594 164.531 99.2656 163.875 99.2656C163.188 99.2656 162.57 99.4219 162.023 99.7344C161.477 100.047 161.008 100.484 160.617 101.047C160.242 101.594 159.953 102.242 159.75 102.992C159.562 103.742 159.469 104.562 159.469 105.453ZM173.953 105.453L171.75 105.5C171.75 103.719 171.945 102.078 172.336 100.578C172.742 99.0781 173.344 97.7734 174.141 96.6641C174.953 95.5547 175.961 94.6953 177.164 94.0859C178.367 93.4766 179.766 93.1719 181.359 93.1719C182.516 93.1719 183.578 93.3438 184.547 93.6875C185.516 94.0312 186.352 94.5859 187.055 95.3516C187.758 96.1172 188.305 97.1328 188.695 98.3984C189.086 99.6484 189.281 101.195 189.281 103.039V119H181.359V103.039C181.359 101.992 181.234 101.203 180.984 100.672C180.75 100.125 180.406 99.7578 179.953 99.5703C179.5 99.3672 178.961 99.2656 178.336 99.2656C177.586 99.2656 176.938 99.4219 176.391 99.7344C175.844 100.047 175.383 100.484 175.008 101.047C174.648 101.594 174.383 102.242 174.211 102.992C174.039 103.742 173.953 104.562 173.953 105.453ZM192.82 106.578V106.086C192.82 104.227 193.086 102.516 193.617 100.953C194.148 99.375 194.93 98.0078 195.961 96.8516C196.992 95.6953 198.266 94.7969 199.781 94.1562C201.297 93.5 203.047 93.1719 205.031 93.1719C207.031 93.1719 208.789 93.5 210.305 94.1562C211.836 94.7969 213.117 95.6953 214.148 96.8516C215.18 98.0078 215.961 99.375 216.492 100.953C217.023 102.516 217.289 104.227 217.289 106.086V106.578C217.289 108.422 217.023 110.133 216.492 111.711C215.961 113.273 215.18 114.641 214.148 115.812C213.117 116.969 211.844 117.867 210.328 118.508C208.812 119.148 207.062 119.469 205.078 119.469C203.094 119.469 201.336 119.148 199.805 118.508C198.273 117.867 196.992 116.969 195.961 115.812C194.93 114.641 194.148 113.273 193.617 111.711C193.086 110.133 192.82 108.422 192.82 106.578ZM200.719 106.086V106.578C200.719 107.531 200.789 108.422 200.93 109.25C201.07 110.078 201.305 110.805 201.633 111.43C201.961 112.039 202.406 112.516 202.969 112.859C203.531 113.203 204.234 113.375 205.078 113.375C205.906 113.375 206.594 113.203 207.141 112.859C207.703 112.516 208.148 112.039 208.477 111.43C208.805 110.805 209.039 110.078 209.18 109.25C209.32 108.422 209.391 107.531 209.391 106.578V106.086C209.391 105.164 209.32 104.297 209.18 103.484C209.039 102.656 208.805 101.93 208.477 101.305C208.148 100.664 207.703 100.164 207.141 99.8047C206.578 99.4453 205.875 99.2656 205.031 99.2656C204.203 99.2656 203.508 99.4453 202.945 99.8047C202.398 100.164 201.961 100.664 201.633 101.305C201.305 101.93 201.07 102.656 200.93 103.484C200.789 104.297 200.719 105.164 200.719 106.086Z" fill="#1D2126"/>
<path d="M1134 0H1348C1356.28 0 1363 6.71573 1363 15V148C1363 156.284 1356.28 163 1348 163H1134V0Z" fill="#30C5A6"/>
<path d="M1281 46.5H1216L1213.5 49V114L1216 116.5H1281L1283.5 114V49L1281 46.5ZM1278.5 111.5H1233.5V101.5H1245C1246.5 104.5 1250 106.5 1253.5 106.5C1259 106.5 1263.5 102 1263.5 96.5C1263.5 91 1259 86.5 1253.5 86.5C1248 86.5 1243.5 91 1243.5 96.5H1228.5V111.5H1218.5V51.5H1228.5V63C1225.5 64.5 1223.5 68 1223.5 71.5C1223.5 77 1228 81.5 1233.5 81.5C1239 81.5 1243.5 77 1243.5 71.5H1253.5C1253.5 77 1258 81.5 1263.5 81.5C1269 81.5 1273.5 77 1273.5 71.5C1273.5 66 1269 61.5 1263.5 61.5C1260 61.5 1256.5 63.5 1255 66.5H1242C1240.5 63.5 1237 61.5 1233.5 61.5V51.5H1278.5V111.5ZM1248.5 96.5C1248.5 93.5 1250.5 91.5 1253.5 91.5C1256.5 91.5 1258.5 93.5 1258.5 96.5C1258.5 99.5 1256.5 101.5 1253.5 101.5C1250.5 101.5 1248.5 99.5 1248.5 96.5ZM1233.5 66.5C1236.5 66.5 1238.5 68.5 1238.5 71.5C1238.5 74.5 1236.5 76.5 1233.5 76.5C1230.5 76.5 1228.5 74.5 1228.5 71.5C1228.5 68.5 1230.5 66.5 1233.5 66.5ZM1263.5 66.5C1266.5 66.5 1268.5 68.5 1268.5 71.5C1268.5 74.5 1266.5 76.5 1263.5 76.5C1260.5 76.5 1258.5 74.5 1258.5 71.5C1258.5 68.5 1260.5 66.5 1263.5 66.5Z" fill="white"/>
</svg>
