<svg width="1384" height="163" viewBox="0 0 1384 163" fill="none" xmlns="http://www.w3.org/2000/svg">
<path d="M0 15C0 6.71573 6.71573 0 15 0H37V163H15C6.71573 163 0 156.284 0 148V15Z" fill="#30C5A6"/>
<path d="M1131 0H37V163H1131V0Z" fill="#F0F0F0"/>
<path d="M112.125 84.875V119H103.898V84.875H112.125ZM122.391 84.875V91.2266H93.8672V84.875H122.391ZM134.695 112.625V102.172C134.695 101.453 134.594 100.836 134.391 100.32C134.188 99.8047 133.867 99.4062 133.43 99.125C132.992 98.8281 132.406 98.6797 131.672 98.6797C131.078 98.6797 130.57 98.7812 130.148 98.9844C129.727 99.1875 129.406 99.4922 129.188 99.8984C128.969 100.305 128.859 100.82 128.859 101.445H120.961C120.961 100.273 121.219 99.1875 121.734 98.1875C122.266 97.1719 123.016 96.2891 123.984 95.5391C124.969 94.7891 126.141 94.2109 127.5 93.8047C128.875 93.3828 130.406 93.1719 132.094 93.1719C134.109 93.1719 135.906 93.5078 137.484 94.1797C139.078 94.8516 140.336 95.8594 141.258 97.2031C142.18 98.5312 142.641 100.203 142.641 102.219V112.602C142.641 114.258 142.734 115.516 142.922 116.375C143.109 117.219 143.375 117.961 143.719 118.602V119H135.797C135.422 118.219 135.141 117.266 134.953 116.141C134.781 115 134.695 113.828 134.695 112.625ZM135.656 103.508L135.703 107.727H132.211C131.477 107.727 130.852 107.828 130.336 108.031C129.836 108.234 129.43 108.516 129.117 108.875C128.82 109.219 128.602 109.609 128.461 110.047C128.336 110.484 128.273 110.945 128.273 111.43C128.273 111.898 128.383 112.32 128.602 112.695C128.836 113.055 129.148 113.336 129.539 113.539C129.93 113.742 130.367 113.844 130.852 113.844C131.727 113.844 132.469 113.68 133.078 113.352C133.703 113.008 134.18 112.594 134.508 112.109C134.836 111.625 135 111.172 135 110.75L136.734 113.984C136.422 114.609 136.062 115.242 135.656 115.883C135.266 116.523 134.773 117.117 134.18 117.664C133.602 118.195 132.891 118.633 132.047 118.977C131.203 119.305 130.18 119.469 128.977 119.469C127.414 119.469 125.977 119.148 124.664 118.508C123.367 117.867 122.328 116.977 121.547 115.836C120.766 114.68 120.375 113.352 120.375 111.852C120.375 110.539 120.609 109.367 121.078 108.336C121.562 107.305 122.289 106.43 123.258 105.711C124.227 104.992 125.461 104.445 126.961 104.07C128.461 103.695 130.227 103.508 132.258 103.508H135.656ZM147.094 83H154.992V112.766L154.172 119H147.094V83ZM170.555 106.039V106.531C170.555 108.453 170.359 110.203 169.969 111.781C169.578 113.359 168.977 114.727 168.164 115.883C167.352 117.023 166.328 117.906 165.094 118.531C163.859 119.156 162.398 119.469 160.711 119.469C159.18 119.469 157.867 119.141 156.773 118.484C155.68 117.812 154.766 116.891 154.031 115.719C153.297 114.531 152.703 113.164 152.25 111.617C151.797 110.055 151.438 108.383 151.172 106.602V106.016C151.438 104.25 151.797 102.594 152.25 101.047C152.703 99.4844 153.297 98.1172 154.031 96.9453C154.766 95.7578 155.672 94.8359 156.75 94.1797C157.844 93.5078 159.148 93.1719 160.664 93.1719C162.367 93.1719 163.836 93.4922 165.07 94.1328C166.32 94.7734 167.352 95.6719 168.164 96.8281C168.977 97.9844 169.578 99.3438 169.969 100.906C170.359 102.469 170.555 104.18 170.555 106.039ZM162.656 106.531V106.039C162.656 105.117 162.602 104.25 162.492 103.438C162.383 102.625 162.188 101.906 161.906 101.281C161.625 100.656 161.227 100.164 160.711 99.8047C160.195 99.4453 159.523 99.2656 158.695 99.2656C157.852 99.2656 157.141 99.4062 156.562 99.6875C156 99.9688 155.547 100.375 155.203 100.906C154.875 101.422 154.641 102.062 154.5 102.828C154.359 103.578 154.297 104.43 154.312 105.383V107.234C154.281 108.531 154.398 109.641 154.664 110.562C154.93 111.484 155.391 112.188 156.047 112.672C156.703 113.156 157.602 113.398 158.742 113.398C159.586 113.398 160.266 113.234 160.781 112.906C161.312 112.578 161.711 112.109 161.977 111.5C162.242 110.891 162.422 110.164 162.516 109.32C162.609 108.477 162.656 107.547 162.656 106.531ZM182.414 83V119H174.492V83H182.414ZM199.57 119.469C197.508 119.469 195.664 119.148 194.039 118.508C192.414 117.852 191.039 116.953 189.914 115.812C188.805 114.672 187.953 113.359 187.359 111.875C186.781 110.391 186.492 108.82 186.492 107.164V106.273C186.492 104.414 186.75 102.695 187.266 101.117C187.781 99.5234 188.547 98.1328 189.562 96.9453C190.578 95.7578 191.852 94.8359 193.383 94.1797C194.914 93.5078 196.695 93.1719 198.727 93.1719C200.523 93.1719 202.133 93.4609 203.555 94.0391C204.977 94.6172 206.18 95.4453 207.164 96.5234C208.164 97.6016 208.922 98.9062 209.438 100.438C209.969 101.969 210.234 103.688 210.234 105.594V108.805H189.516V103.859H202.523V103.25C202.539 102.406 202.391 101.688 202.078 101.094C201.781 100.5 201.344 100.047 200.766 99.7344C200.188 99.4219 199.484 99.2656 198.656 99.2656C197.797 99.2656 197.086 99.4531 196.523 99.8281C195.977 100.203 195.547 100.719 195.234 101.375C194.938 102.016 194.727 102.758 194.602 103.602C194.477 104.445 194.414 105.336 194.414 106.273V107.164C194.414 108.102 194.539 108.953 194.789 109.719C195.055 110.484 195.43 111.141 195.914 111.688C196.414 112.219 197.008 112.633 197.695 112.93C198.398 113.227 199.195 113.375 200.086 113.375C201.164 113.375 202.227 113.172 203.273 112.766C204.32 112.359 205.219 111.688 205.969 110.75L209.555 115.016C209.039 115.75 208.305 116.461 207.352 117.148C206.414 117.836 205.289 118.398 203.977 118.836C202.664 119.258 201.195 119.469 199.57 119.469ZM224.414 106.578V106.086C224.414 104.227 224.68 102.516 225.211 100.953C225.742 99.375 226.523 98.0078 227.555 96.8516C228.586 95.6953 229.859 94.7969 231.375 94.1562C232.891 93.5 234.641 93.1719 236.625 93.1719C238.625 93.1719 240.383 93.5 241.898 94.1562C243.43 94.7969 244.711 95.6953 245.742 96.8516C246.773 98.0078 247.555 99.375 248.086 100.953C248.617 102.516 248.883 104.227 248.883 106.086V106.578C248.883 108.422 248.617 110.133 248.086 111.711C247.555 113.273 246.773 114.641 245.742 115.812C244.711 116.969 243.438 117.867 241.922 118.508C240.406 119.148 238.656 119.469 236.672 119.469C234.688 119.469 232.93 119.148 231.398 118.508C229.867 117.867 228.586 116.969 227.555 115.812C226.523 114.641 225.742 113.273 225.211 111.711C224.68 110.133 224.414 108.422 224.414 106.578ZM232.312 106.086V106.578C232.312 107.531 232.383 108.422 232.523 109.25C232.664 110.078 232.898 110.805 233.227 111.43C233.555 112.039 234 112.516 234.562 112.859C235.125 113.203 235.828 113.375 236.672 113.375C237.5 113.375 238.188 113.203 238.734 112.859C239.297 112.516 239.742 112.039 240.07 111.43C240.398 110.805 240.633 110.078 240.773 109.25C240.914 108.422 240.984 107.531 240.984 106.578V106.086C240.984 105.164 240.914 104.297 240.773 103.484C240.633 102.656 240.398 101.93 240.07 101.305C239.742 100.664 239.297 100.164 238.734 99.8047C238.172 99.4453 237.469 99.2656 236.625 99.2656C235.797 99.2656 235.102 99.4453 234.539 99.8047C233.992 100.164 233.555 100.664 233.227 101.305C232.898 101.93 232.664 102.656 232.523 103.484C232.383 104.297 232.312 105.164 232.312 106.086ZM262.078 119H254.133V91.5781C254.133 89.6094 254.531 87.9531 255.328 86.6094C256.125 85.2656 257.25 84.25 258.703 83.5625C260.156 82.8594 261.875 82.5078 263.859 82.5078C264.547 82.5078 265.195 82.5547 265.805 82.6484C266.414 82.7422 267.008 82.8594 267.586 83L267.609 88.8125C267.328 88.7344 267.039 88.6797 266.742 88.6484C266.445 88.6172 266.078 88.6016 265.641 88.6016C264.875 88.6016 264.227 88.7188 263.695 88.9531C263.164 89.1719 262.758 89.5078 262.477 89.9609C262.211 90.3984 262.078 90.9375 262.078 91.5781V119ZM267 93.6406V99.125H250.477V93.6406H267ZM301.57 107.445H309.773C309.664 109.82 309.023 111.914 307.852 113.727C306.68 115.539 305.055 116.953 302.977 117.969C300.914 118.969 298.477 119.469 295.664 119.469C293.383 119.469 291.344 119.086 289.547 118.32C287.766 117.555 286.25 116.453 285 115.016C283.766 113.578 282.82 111.836 282.164 109.789C281.523 107.742 281.203 105.438 281.203 102.875V101.023C281.203 98.4609 281.539 96.1562 282.211 94.1094C282.898 92.0469 283.867 90.2969 285.117 88.8594C286.383 87.4062 287.898 86.2969 289.664 85.5312C291.43 84.7656 293.391 84.3828 295.547 84.3828C298.516 84.3828 301.023 84.9141 303.07 85.9766C305.117 87.0391 306.703 88.5 307.828 90.3594C308.953 92.2031 309.617 94.3047 309.82 96.6641H301.617C301.586 95.3828 301.367 94.3125 300.961 93.4531C300.555 92.5781 299.914 91.9219 299.039 91.4844C298.164 91.0469 297 90.8281 295.547 90.8281C294.531 90.8281 293.648 91.0156 292.898 91.3906C292.148 91.7656 291.523 92.3594 291.023 93.1719C290.523 93.9844 290.148 95.0391 289.898 96.3359C289.664 97.6172 289.547 99.1641 289.547 100.977V102.875C289.547 104.688 289.656 106.234 289.875 107.516C290.094 108.797 290.445 109.844 290.93 110.656C291.414 111.469 292.039 112.07 292.805 112.461C293.586 112.836 294.539 113.023 295.664 113.023C296.914 113.023 297.969 112.828 298.828 112.438C299.688 112.031 300.352 111.422 300.82 110.609C301.289 109.781 301.539 108.727 301.57 107.445ZM312.305 106.578V106.086C312.305 104.227 312.57 102.516 313.102 100.953C313.633 99.375 314.414 98.0078 315.445 96.8516C316.477 95.6953 317.75 94.7969 319.266 94.1562C320.781 93.5 322.531 93.1719 324.516 93.1719C326.516 93.1719 328.273 93.5 329.789 94.1562C331.32 94.7969 332.602 95.6953 333.633 96.8516C334.664 98.0078 335.445 99.375 335.977 100.953C336.508 102.516 336.773 104.227 336.773 106.086V106.578C336.773 108.422 336.508 110.133 335.977 111.711C335.445 113.273 334.664 114.641 333.633 115.812C332.602 116.969 331.328 117.867 329.812 118.508C328.297 119.148 326.547 119.469 324.562 119.469C322.578 119.469 320.82 119.148 319.289 118.508C317.758 117.867 316.477 116.969 315.445 115.812C314.414 114.641 313.633 113.273 313.102 111.711C312.57 110.133 312.305 108.422 312.305 106.578ZM320.203 106.086V106.578C320.203 107.531 320.273 108.422 320.414 109.25C320.555 110.078 320.789 110.805 321.117 111.43C321.445 112.039 321.891 112.516 322.453 112.859C323.016 113.203 323.719 113.375 324.562 113.375C325.391 113.375 326.078 113.203 326.625 112.859C327.188 112.516 327.633 112.039 327.961 111.43C328.289 110.805 328.523 110.078 328.664 109.25C328.805 108.422 328.875 107.531 328.875 106.578V106.086C328.875 105.164 328.805 104.297 328.664 103.484C328.523 102.656 328.289 101.93 327.961 101.305C327.633 100.664 327.188 100.164 326.625 99.8047C326.062 99.4453 325.359 99.2656 324.516 99.2656C323.688 99.2656 322.992 99.4453 322.43 99.8047C321.883 100.164 321.445 100.664 321.117 101.305C320.789 101.93 320.555 102.656 320.414 103.484C320.273 104.297 320.203 105.164 320.203 106.086ZM348.047 99.0547V119H340.148V93.6406H347.555L348.047 99.0547ZM347.109 105.453L345.258 105.5C345.258 103.562 345.492 101.836 345.961 100.32C346.43 98.7891 347.094 97.4922 347.953 96.4297C348.812 95.3672 349.836 94.5625 351.023 94.0156C352.227 93.4531 353.562 93.1719 355.031 93.1719C356.203 93.1719 357.273 93.3438 358.242 93.6875C359.227 94.0312 360.07 94.5859 360.773 95.3516C361.492 96.1172 362.039 97.1328 362.414 98.3984C362.805 99.6484 363 101.195 363 103.039V119H355.055V103.016C355.055 102 354.914 101.227 354.633 100.695C354.352 100.148 353.945 99.7734 353.414 99.5703C352.883 99.3672 352.234 99.2656 351.469 99.2656C350.656 99.2656 349.969 99.4219 349.406 99.7344C348.844 100.047 348.391 100.484 348.047 101.047C347.719 101.594 347.477 102.242 347.32 102.992C347.18 103.742 347.109 104.562 347.109 105.453ZM380.742 93.6406V99.125H365.461V93.6406H380.742ZM368.672 87.3359H376.57V110.727C376.57 111.398 376.648 111.922 376.805 112.297C376.961 112.656 377.227 112.914 377.602 113.07C377.992 113.211 378.508 113.281 379.148 113.281C379.602 113.281 379.977 113.273 380.273 113.258C380.57 113.227 380.852 113.188 381.117 113.141V118.789C380.445 119.008 379.742 119.172 379.008 119.281C378.273 119.406 377.492 119.469 376.664 119.469C374.977 119.469 373.531 119.203 372.328 118.672C371.141 118.141 370.234 117.305 369.609 116.164C368.984 115.023 368.672 113.539 368.672 111.711V87.3359ZM396.164 119.469C394.102 119.469 392.258 119.148 390.633 118.508C389.008 117.852 387.633 116.953 386.508 115.812C385.398 114.672 384.547 113.359 383.953 111.875C383.375 110.391 383.086 108.82 383.086 107.164V106.273C383.086 104.414 383.344 102.695 383.859 101.117C384.375 99.5234 385.141 98.1328 386.156 96.9453C387.172 95.7578 388.445 94.8359 389.977 94.1797C391.508 93.5078 393.289 93.1719 395.32 93.1719C397.117 93.1719 398.727 93.4609 400.148 94.0391C401.57 94.6172 402.773 95.4453 403.758 96.5234C404.758 97.6016 405.516 98.9062 406.031 100.438C406.562 101.969 406.828 103.688 406.828 105.594V108.805H386.109V103.859H399.117V103.25C399.133 102.406 398.984 101.688 398.672 101.094C398.375 100.5 397.938 100.047 397.359 99.7344C396.781 99.4219 396.078 99.2656 395.25 99.2656C394.391 99.2656 393.68 99.4531 393.117 99.8281C392.57 100.203 392.141 100.719 391.828 101.375C391.531 102.016 391.32 102.758 391.195 103.602C391.07 104.445 391.008 105.336 391.008 106.273V107.164C391.008 108.102 391.133 108.953 391.383 109.719C391.648 110.484 392.023 111.141 392.508 111.688C393.008 112.219 393.602 112.633 394.289 112.93C394.992 113.227 395.789 113.375 396.68 113.375C397.758 113.375 398.82 113.172 399.867 112.766C400.914 112.359 401.812 111.688 402.562 110.75L406.148 115.016C405.633 115.75 404.898 116.461 403.945 117.148C403.008 117.836 401.883 118.398 400.57 118.836C399.258 119.258 397.789 119.469 396.164 119.469ZM417.797 99.0547V119H409.898V93.6406H417.305L417.797 99.0547ZM416.859 105.453L415.008 105.5C415.008 103.562 415.242 101.836 415.711 100.32C416.18 98.7891 416.844 97.4922 417.703 96.4297C418.562 95.3672 419.586 94.5625 420.773 94.0156C421.977 93.4531 423.312 93.1719 424.781 93.1719C425.953 93.1719 427.023 93.3438 427.992 93.6875C428.977 94.0312 429.82 94.5859 430.523 95.3516C431.242 96.1172 431.789 97.1328 432.164 98.3984C432.555 99.6484 432.75 101.195 432.75 103.039V119H424.805V103.016C424.805 102 424.664 101.227 424.383 100.695C424.102 100.148 423.695 99.7734 423.164 99.5703C422.633 99.3672 421.984 99.2656 421.219 99.2656C420.406 99.2656 419.719 99.4219 419.156 99.7344C418.594 100.047 418.141 100.484 417.797 101.047C417.469 101.594 417.227 102.242 417.07 102.992C416.93 103.742 416.859 104.562 416.859 105.453ZM450.492 93.6406V99.125H435.211V93.6406H450.492ZM438.422 87.3359H446.32V110.727C446.32 111.398 446.398 111.922 446.555 112.297C446.711 112.656 446.977 112.914 447.352 113.07C447.742 113.211 448.258 113.281 448.898 113.281C449.352 113.281 449.727 113.273 450.023 113.258C450.32 113.227 450.602 113.188 450.867 113.141V118.789C450.195 119.008 449.492 119.172 448.758 119.281C448.023 119.406 447.242 119.469 446.414 119.469C444.727 119.469 443.281 119.203 442.078 118.672C440.891 118.141 439.984 117.305 439.359 116.164C438.734 115.023 438.422 113.539 438.422 111.711V87.3359ZM466.922 111.875C466.922 111.438 466.773 111.062 466.477 110.75C466.195 110.422 465.695 110.125 464.977 109.859C464.258 109.578 463.25 109.297 461.953 109.016C460.719 108.75 459.555 108.398 458.461 107.961C457.383 107.523 456.438 106.992 455.625 106.367C454.812 105.742 454.172 105 453.703 104.141C453.25 103.281 453.023 102.297 453.023 101.188C453.023 100.109 453.25 99.0938 453.703 98.1406C454.172 97.1719 454.852 96.3203 455.742 95.5859C456.648 94.8359 457.75 94.25 459.047 93.8281C460.344 93.3906 461.82 93.1719 463.477 93.1719C465.758 93.1719 467.727 93.5234 469.383 94.2266C471.039 94.9141 472.312 95.8828 473.203 97.1328C474.109 98.3672 474.562 99.7969 474.562 101.422H466.664C466.664 100.781 466.555 100.234 466.336 99.7812C466.133 99.3281 465.797 98.9844 465.328 98.75C464.859 98.5 464.234 98.375 463.453 98.375C462.906 98.375 462.406 98.4766 461.953 98.6797C461.516 98.8828 461.164 99.1641 460.898 99.5234C460.633 99.8828 460.5 100.305 460.5 100.789C460.5 101.133 460.578 101.445 460.734 101.727C460.906 101.992 461.164 102.242 461.508 102.477C461.852 102.695 462.289 102.898 462.82 103.086C463.352 103.258 463.992 103.414 464.742 103.555C466.445 103.867 468.039 104.312 469.523 104.891C471.008 105.469 472.211 106.289 473.133 107.352C474.07 108.414 474.539 109.844 474.539 111.641C474.539 112.766 474.281 113.805 473.766 114.758C473.25 115.695 472.508 116.523 471.539 117.242C470.57 117.945 469.406 118.492 468.047 118.883C466.688 119.273 465.156 119.469 463.453 119.469C461.031 119.469 458.984 119.039 457.312 118.18C455.641 117.305 454.375 116.211 453.516 114.898C452.672 113.57 452.25 112.227 452.25 110.867H459.609C459.641 111.648 459.828 112.289 460.172 112.789C460.531 113.289 461.008 113.656 461.602 113.891C462.195 114.125 462.883 114.242 463.664 114.242C464.383 114.242 464.977 114.141 465.445 113.938C465.93 113.734 466.297 113.461 466.547 113.117C466.797 112.758 466.922 112.344 466.922 111.875Z" fill="#1D2126"/>
<path d="M1131 0H1345C1353.28 0 1360 6.71573 1360 15V148C1360 156.284 1353.28 163 1345 163H1131V0Z" fill="#30C5A6"/>
<path d="M1270.5 81.5V97.125C1270.5 103.018 1270.5 105.964 1268.67 107.794C1266.84 109.625 1263.89 109.625 1258 109.625H1228.31C1224 109.625 1220.5 106.127 1220.5 101.812M1270.5 81.5C1270.5 87.3926 1270.5 90.3388 1268.67 92.1694C1266.84 94 1263.89 94 1258 94H1228.31C1224 94 1220.5 97.4978 1220.5 101.812M1270.5 81.5V65.875C1270.5 59.9824 1270.5 57.0362 1268.67 55.2056C1266.84 53.375 1263.89 53.375 1258 53.375H1233C1227.11 53.375 1224.16 53.375 1222.33 55.2056C1220.5 57.0362 1220.5 59.9824 1220.5 65.875V101.812" stroke="white" stroke-width="6.25"/>
<path d="M1236.12 69H1254.88" stroke="white" stroke-width="6.25" stroke-linecap="round"/>
<path d="M102.906 53.9219L95.3945 51.2383V48.0859L105.602 52.375V54.6367L102.906 53.9219ZM95.3945 56.1719L102.918 53.4297L105.602 52.7852V55.0352L95.3945 59.3242V56.1719ZM120.578 53.5117H116.195L116.172 51.0977H119.852C120.5 51.0977 121.031 51.0156 121.445 50.8516C121.859 50.6797 122.168 50.4336 122.371 50.1133C122.582 49.7852 122.688 49.3867 122.688 48.918C122.688 48.3867 122.586 47.957 122.383 47.6289C122.188 47.3008 121.879 47.0625 121.457 46.9141C121.043 46.7656 120.508 46.6914 119.852 46.6914H117.414V61H113.898V43.9375H119.852C120.844 43.9375 121.73 44.0312 122.512 44.2188C123.301 44.4062 123.969 44.6914 124.516 45.0742C125.062 45.457 125.48 45.9414 125.77 46.5273C126.059 47.1055 126.203 47.793 126.203 48.5898C126.203 49.293 126.043 49.9414 125.723 50.5352C125.41 51.1289 124.914 51.6133 124.234 51.9883C123.562 52.3633 122.684 52.5703 121.598 52.6094L120.578 53.5117ZM120.426 61H115.234L116.605 58.2578H120.426C121.043 58.2578 121.547 58.1602 121.938 57.9648C122.328 57.7617 122.617 57.4883 122.805 57.1445C122.992 56.8008 123.086 56.4062 123.086 55.9609C123.086 55.4609 123 55.0273 122.828 54.6602C122.664 54.293 122.398 54.0117 122.031 53.8164C121.664 53.6133 121.18 53.5117 120.578 53.5117H117.191L117.215 51.0977H121.434L122.242 52.0469C123.281 52.0312 124.117 52.2148 124.75 52.5977C125.391 52.9727 125.855 53.4609 126.145 54.0625C126.441 54.6641 126.59 55.3086 126.59 55.9961C126.59 57.0898 126.352 58.0117 125.875 58.7617C125.398 59.5039 124.699 60.0625 123.777 60.4375C122.863 60.8125 121.746 61 120.426 61ZM128.477 54.7891V54.543C128.477 53.6133 128.609 52.7578 128.875 51.9766C129.141 51.1875 129.527 50.5039 130.035 49.9258C130.543 49.3477 131.168 48.8984 131.91 48.5781C132.652 48.25 133.504 48.0859 134.465 48.0859C135.426 48.0859 136.281 48.25 137.031 48.5781C137.781 48.8984 138.41 49.3477 138.918 49.9258C139.434 50.5039 139.824 51.1875 140.09 51.9766C140.355 52.7578 140.488 53.6133 140.488 54.543V54.7891C140.488 55.7109 140.355 56.5664 140.09 57.3555C139.824 58.1367 139.434 58.8203 138.918 59.4062C138.41 59.9844 137.785 60.4336 137.043 60.7539C136.301 61.0742 135.449 61.2344 134.488 61.2344C133.527 61.2344 132.672 61.0742 131.922 60.7539C131.18 60.4336 130.551 59.9844 130.035 59.4062C129.527 58.8203 129.141 58.1367 128.875 57.3555C128.609 56.5664 128.477 55.7109 128.477 54.7891ZM131.852 54.543V54.7891C131.852 55.3203 131.898 55.8164 131.992 56.2773C132.086 56.7383 132.234 57.1445 132.438 57.4961C132.648 57.8398 132.922 58.1094 133.258 58.3047C133.594 58.5 134.004 58.5977 134.488 58.5977C134.957 58.5977 135.359 58.5 135.695 58.3047C136.031 58.1094 136.301 57.8398 136.504 57.4961C136.707 57.1445 136.855 56.7383 136.949 56.2773C137.051 55.8164 137.102 55.3203 137.102 54.7891V54.543C137.102 54.0273 137.051 53.543 136.949 53.0898C136.855 52.6289 136.703 52.2227 136.492 51.8711C136.289 51.5117 136.02 51.2305 135.684 51.0273C135.348 50.8242 134.941 50.7227 134.465 50.7227C133.988 50.7227 133.582 50.8242 133.246 51.0273C132.918 51.2305 132.648 51.5117 132.438 51.8711C132.234 52.2227 132.086 52.6289 131.992 53.0898C131.898 53.543 131.852 54.0273 131.852 54.543ZM142.023 54.7891V54.543C142.023 53.6133 142.156 52.7578 142.422 51.9766C142.688 51.1875 143.074 50.5039 143.582 49.9258C144.09 49.3477 144.715 48.8984 145.457 48.5781C146.199 48.25 147.051 48.0859 148.012 48.0859C148.973 48.0859 149.828 48.25 150.578 48.5781C151.328 48.8984 151.957 49.3477 152.465 49.9258C152.98 50.5039 153.371 51.1875 153.637 51.9766C153.902 52.7578 154.035 53.6133 154.035 54.543V54.7891C154.035 55.7109 153.902 56.5664 153.637 57.3555C153.371 58.1367 152.98 58.8203 152.465 59.4062C151.957 59.9844 151.332 60.4336 150.59 60.7539C149.848 61.0742 148.996 61.2344 148.035 61.2344C147.074 61.2344 146.219 61.0742 145.469 60.7539C144.727 60.4336 144.098 59.9844 143.582 59.4062C143.074 58.8203 142.688 58.1367 142.422 57.3555C142.156 56.5664 142.023 55.7109 142.023 54.7891ZM145.398 54.543V54.7891C145.398 55.3203 145.445 55.8164 145.539 56.2773C145.633 56.7383 145.781 57.1445 145.984 57.4961C146.195 57.8398 146.469 58.1094 146.805 58.3047C147.141 58.5 147.551 58.5977 148.035 58.5977C148.504 58.5977 148.906 58.5 149.242 58.3047C149.578 58.1094 149.848 57.8398 150.051 57.4961C150.254 57.1445 150.402 56.7383 150.496 56.2773C150.598 55.8164 150.648 55.3203 150.648 54.7891V54.543C150.648 54.0273 150.598 53.543 150.496 53.0898C150.402 52.6289 150.25 52.2227 150.039 51.8711C149.836 51.5117 149.566 51.2305 149.23 51.0273C148.895 50.8242 148.488 50.7227 148.012 50.7227C147.535 50.7227 147.129 50.8242 146.793 51.0273C146.465 51.2305 146.195 51.5117 145.984 51.8711C145.781 52.2227 145.633 52.6289 145.539 53.0898C145.445 53.543 145.398 54.0273 145.398 54.543ZM159.484 42.9883V61H156.109V42.9883H159.484ZM167.477 48.3203L161.969 54.6016L159.016 57.5898L157.785 55.1523L160.129 52.1758L163.422 48.3203H167.477ZM163.973 61L160.223 55.1406L162.555 53.1016L167.863 61H163.973ZM184 56.5352C184 56.2305 183.953 55.957 183.859 55.7148C183.773 55.4648 183.609 55.2383 183.367 55.0352C183.125 54.8242 182.785 54.6172 182.348 54.4141C181.91 54.2109 181.344 54 180.648 53.7812C179.875 53.5312 179.141 53.25 178.445 52.9375C177.758 52.625 177.148 52.2617 176.617 51.8477C176.094 51.4258 175.68 50.9375 175.375 50.3828C175.078 49.8281 174.93 49.1836 174.93 48.4492C174.93 47.7383 175.086 47.0938 175.398 46.5156C175.711 45.9297 176.148 45.4297 176.711 45.0156C177.273 44.5938 177.938 44.2695 178.703 44.043C179.477 43.8164 180.324 43.7031 181.246 43.7031C182.504 43.7031 183.602 43.9297 184.539 44.3828C185.477 44.8359 186.203 45.457 186.719 46.2461C187.242 47.0352 187.504 47.9375 187.504 48.9531H184.012C184.012 48.4531 183.906 48.0156 183.695 47.6406C183.492 47.2578 183.18 46.957 182.758 46.7383C182.344 46.5195 181.82 46.4102 181.188 46.4102C180.578 46.4102 180.07 46.5039 179.664 46.6914C179.258 46.8711 178.953 47.1172 178.75 47.4297C178.547 47.7344 178.445 48.0781 178.445 48.4609C178.445 48.75 178.516 49.0117 178.656 49.2461C178.805 49.4805 179.023 49.6992 179.312 49.9023C179.602 50.1055 179.957 50.2969 180.379 50.4766C180.801 50.6562 181.289 50.832 181.844 51.0039C182.773 51.2852 183.59 51.6016 184.293 51.9531C185.004 52.3047 185.598 52.6992 186.074 53.1367C186.551 53.5742 186.91 54.0703 187.152 54.625C187.395 55.1797 187.516 55.8086 187.516 56.5117C187.516 57.2539 187.371 57.918 187.082 58.5039C186.793 59.0898 186.375 59.5859 185.828 59.9922C185.281 60.3984 184.629 60.707 183.871 60.918C183.113 61.1289 182.266 61.2344 181.328 61.2344C180.484 61.2344 179.652 61.125 178.832 60.9062C178.012 60.6797 177.266 60.3398 176.594 59.8867C175.93 59.4336 175.398 58.8555 175 58.1523C174.602 57.4492 174.402 56.6172 174.402 55.6562H177.93C177.93 56.1875 178.012 56.6367 178.176 57.0039C178.34 57.3711 178.57 57.668 178.867 57.8945C179.172 58.1211 179.531 58.2852 179.945 58.3867C180.367 58.4883 180.828 58.5391 181.328 58.5391C181.938 58.5391 182.438 58.4531 182.828 58.2812C183.227 58.1094 183.52 57.8711 183.707 57.5664C183.902 57.2617 184 56.918 184 56.5352ZM192.988 43V61H189.613V43H192.988ZM192.508 54.2148H191.582C191.59 53.332 191.707 52.5195 191.934 51.7773C192.16 51.0273 192.484 50.3789 192.906 49.832C193.328 49.2773 193.832 48.8477 194.418 48.543C195.012 48.2383 195.668 48.0859 196.387 48.0859C197.012 48.0859 197.578 48.1758 198.086 48.3555C198.602 48.5273 199.043 48.8086 199.41 49.1992C199.785 49.582 200.074 50.0859 200.277 50.7109C200.48 51.3359 200.582 52.0938 200.582 52.9844V61H197.184V52.9609C197.184 52.3984 197.102 51.957 196.938 51.6367C196.781 51.3086 196.551 51.0781 196.246 50.9453C195.949 50.8047 195.582 50.7344 195.145 50.7344C194.66 50.7344 194.246 50.8242 193.902 51.0039C193.566 51.1836 193.297 51.4336 193.094 51.7539C192.891 52.0664 192.742 52.4336 192.648 52.8555C192.555 53.2773 192.508 53.7305 192.508 54.2148ZM209.992 58.1406V52.4922C209.992 52.0859 209.926 51.7383 209.793 51.4492C209.66 51.1523 209.453 50.9219 209.172 50.7578C208.898 50.5938 208.543 50.5117 208.105 50.5117C207.73 50.5117 207.406 50.5781 207.133 50.7109C206.859 50.8359 206.648 51.0195 206.5 51.2617C206.352 51.4961 206.277 51.7734 206.277 52.0938H202.902C202.902 51.5547 203.027 51.043 203.277 50.5586C203.527 50.0742 203.891 49.6484 204.367 49.2812C204.844 48.9062 205.41 48.6133 206.066 48.4023C206.73 48.1914 207.473 48.0859 208.293 48.0859C209.277 48.0859 210.152 48.25 210.918 48.5781C211.684 48.9062 212.285 49.3984 212.723 50.0547C213.168 50.7109 213.391 51.5312 213.391 52.5156V57.9414C213.391 58.6367 213.434 59.207 213.52 59.6523C213.605 60.0898 213.73 60.4727 213.895 60.8008V61H210.484C210.32 60.6562 210.195 60.2266 210.109 59.7109C210.031 59.1875 209.992 58.6641 209.992 58.1406ZM210.438 53.2773L210.461 55.1875H208.574C208.129 55.1875 207.742 55.2383 207.414 55.3398C207.086 55.4414 206.816 55.5859 206.605 55.7734C206.395 55.9531 206.238 56.1641 206.137 56.4062C206.043 56.6484 205.996 56.9141 205.996 57.2031C205.996 57.4922 206.062 57.7539 206.195 57.9883C206.328 58.2148 206.52 58.3945 206.77 58.5273C207.02 58.6523 207.312 58.7148 207.648 58.7148C208.156 58.7148 208.598 58.6133 208.973 58.4102C209.348 58.207 209.637 57.957 209.84 57.6602C210.051 57.3633 210.16 57.082 210.168 56.8164L211.059 58.2461C210.934 58.5664 210.762 58.8984 210.543 59.2422C210.332 59.5859 210.062 59.9102 209.734 60.2148C209.406 60.5117 209.012 60.7578 208.551 60.9531C208.09 61.1406 207.543 61.2344 206.91 61.2344C206.105 61.2344 205.375 61.0742 204.719 60.7539C204.07 60.4258 203.555 59.9766 203.172 59.4062C202.797 58.8281 202.609 58.1719 202.609 57.4375C202.609 56.7734 202.734 56.1836 202.984 55.668C203.234 55.1523 203.602 54.7188 204.086 54.3672C204.578 54.0078 205.191 53.7383 205.926 53.5586C206.66 53.3711 207.512 53.2773 208.48 53.2773H210.438ZM219.367 51.0859V61H215.992V48.3203H219.168L219.367 51.0859ZM223.188 48.2383L223.129 51.3672C222.965 51.3438 222.766 51.3242 222.531 51.3086C222.305 51.2852 222.098 51.2734 221.91 51.2734C221.434 51.2734 221.02 51.3359 220.668 51.4609C220.324 51.5781 220.035 51.7539 219.801 51.9883C219.574 52.2227 219.402 52.5078 219.285 52.8438C219.176 53.1797 219.113 53.5625 219.098 53.9922L218.418 53.7812C218.418 52.9609 218.5 52.207 218.664 51.5195C218.828 50.8242 219.066 50.2188 219.379 49.7031C219.699 49.1875 220.09 48.7891 220.551 48.5078C221.012 48.2266 221.539 48.0859 222.133 48.0859C222.32 48.0859 222.512 48.1016 222.707 48.1328C222.902 48.1562 223.062 48.1914 223.188 48.2383ZM228.344 48.3203V61H224.957V48.3203H228.344ZM224.746 45.0156C224.746 44.5234 224.918 44.1172 225.262 43.7969C225.605 43.4766 226.066 43.3164 226.645 43.3164C227.215 43.3164 227.672 43.4766 228.016 43.7969C228.367 44.1172 228.543 44.5234 228.543 45.0156C228.543 45.5078 228.367 45.9141 228.016 46.2344C227.672 46.5547 227.215 46.7148 226.645 46.7148C226.066 46.7148 225.605 46.5547 225.262 46.2344C224.918 45.9141 224.746 45.5078 224.746 45.0156ZM234.438 51.0273V61H231.062V48.3203H234.227L234.438 51.0273ZM233.945 54.2148H233.031C233.031 53.2773 233.152 52.4336 233.395 51.6836C233.637 50.9258 233.977 50.2812 234.414 49.75C234.852 49.2109 235.371 48.8008 235.973 48.5195C236.582 48.2305 237.262 48.0859 238.012 48.0859C238.605 48.0859 239.148 48.1719 239.641 48.3438C240.133 48.5156 240.555 48.7891 240.906 49.1641C241.266 49.5391 241.539 50.0352 241.727 50.6523C241.922 51.2695 242.02 52.0234 242.02 52.9141V61H238.621V52.9023C238.621 52.3398 238.543 51.9023 238.387 51.5898C238.23 51.2773 238 51.0586 237.695 50.9336C237.398 50.8008 237.031 50.7344 236.594 50.7344C236.141 50.7344 235.746 50.8242 235.41 51.0039C235.082 51.1836 234.809 51.4336 234.59 51.7539C234.379 52.0664 234.219 52.4336 234.109 52.8555C234 53.2773 233.945 53.7305 233.945 54.2148ZM252.613 48.3203H255.672V60.5781C255.672 61.7344 255.414 62.7148 254.898 63.5195C254.391 64.332 253.68 64.9453 252.766 65.3594C251.852 65.7812 250.789 65.9922 249.578 65.9922C249.047 65.9922 248.484 65.9219 247.891 65.7812C247.305 65.6406 246.742 65.4219 246.203 65.125C245.672 64.8281 245.227 64.4531 244.867 64L246.355 62.0078C246.746 62.4609 247.199 62.8125 247.715 63.0625C248.23 63.3203 248.801 63.4492 249.426 63.4492C250.035 63.4492 250.551 63.3359 250.973 63.1094C251.395 62.8906 251.719 62.5664 251.945 62.1367C252.172 61.7148 252.285 61.2031 252.285 60.6016V51.25L252.613 48.3203ZM244.082 54.8125V54.5664C244.082 53.5977 244.199 52.7188 244.434 51.9297C244.676 51.1328 245.016 50.4492 245.453 49.8789C245.898 49.3086 246.438 48.8672 247.07 48.5547C247.703 48.2422 248.418 48.0859 249.215 48.0859C250.059 48.0859 250.766 48.2422 251.336 48.5547C251.906 48.8672 252.375 49.3125 252.742 49.8906C253.109 50.4609 253.395 51.1367 253.598 51.918C253.809 52.6914 253.973 53.5391 254.09 54.4609V55C253.973 55.8828 253.797 56.7031 253.562 57.4609C253.328 58.2188 253.02 58.8828 252.637 59.4531C252.254 60.0156 251.777 60.4531 251.207 60.7656C250.645 61.0781 249.973 61.2344 249.191 61.2344C248.41 61.2344 247.703 61.0742 247.07 60.7539C246.445 60.4336 245.91 59.9844 245.465 59.4062C245.02 58.8281 244.676 58.1484 244.434 57.3672C244.199 56.5859 244.082 55.7344 244.082 54.8125ZM247.457 54.5664V54.8125C247.457 55.3359 247.508 55.8242 247.609 56.2773C247.711 56.7305 247.867 57.1328 248.078 57.4844C248.297 57.8281 248.566 58.0977 248.887 58.293C249.215 58.4805 249.602 58.5742 250.047 58.5742C250.664 58.5742 251.168 58.4453 251.559 58.1875C251.949 57.9219 252.242 57.5586 252.438 57.0977C252.633 56.6367 252.746 56.1055 252.777 55.5039V53.9688C252.762 53.4766 252.695 53.0352 252.578 52.6445C252.461 52.2461 252.297 51.9062 252.086 51.625C251.875 51.3438 251.602 51.125 251.266 50.9688C250.93 50.8125 250.531 50.7344 250.07 50.7344C249.625 50.7344 249.238 50.8359 248.91 51.0391C248.59 51.2344 248.32 51.5039 248.102 51.8477C247.891 52.1914 247.73 52.5977 247.621 53.0664C247.512 53.5273 247.457 54.0273 247.457 54.5664Z" fill="#888888"/>
</svg>
