<svg width="1363" height="163" viewBox="0 0 1363 163" fill="none" xmlns="http://www.w3.org/2000/svg">
<path d="M0 15C0 6.71573 6.71573 0 15 0H37V163H15C6.71573 163 0 156.284 0 148V15Z" fill="#30C5A6"/>
<rect width="1097" height="163" transform="translate(37)" fill="#F0F0F0"/>
<path d="M101.906 53.9219L94.3945 51.2383V48.0859L104.602 52.375V54.6367L101.906 53.9219ZM94.3945 56.1719L101.918 53.4297L104.602 52.7852V55.0352L94.3945 59.3242V56.1719ZM119.578 53.5117H115.195L115.172 51.0977H118.852C119.5 51.0977 120.031 51.0156 120.445 50.8516C120.859 50.6797 121.168 50.4336 121.371 50.1133C121.582 49.7852 121.688 49.3867 121.688 48.918C121.688 48.3867 121.586 47.957 121.383 47.6289C121.188 47.3008 120.879 47.0625 120.457 46.9141C120.043 46.7656 119.508 46.6914 118.852 46.6914H116.414V61H112.898V43.9375H118.852C119.844 43.9375 120.73 44.0312 121.512 44.2188C122.301 44.4062 122.969 44.6914 123.516 45.0742C124.062 45.457 124.48 45.9414 124.77 46.5273C125.059 47.1055 125.203 47.793 125.203 48.5898C125.203 49.293 125.043 49.9414 124.723 50.5352C124.41 51.1289 123.914 51.6133 123.234 51.9883C122.562 52.3633 121.684 52.5703 120.598 52.6094L119.578 53.5117ZM119.426 61H114.234L115.605 58.2578H119.426C120.043 58.2578 120.547 58.1602 120.938 57.9648C121.328 57.7617 121.617 57.4883 121.805 57.1445C121.992 56.8008 122.086 56.4062 122.086 55.9609C122.086 55.4609 122 55.0273 121.828 54.6602C121.664 54.293 121.398 54.0117 121.031 53.8164C120.664 53.6133 120.18 53.5117 119.578 53.5117H116.191L116.215 51.0977H120.434L121.242 52.0469C122.281 52.0312 123.117 52.2148 123.75 52.5977C124.391 52.9727 124.855 53.4609 125.145 54.0625C125.441 54.6641 125.59 55.3086 125.59 55.9961C125.59 57.0898 125.352 58.0117 124.875 58.7617C124.398 59.5039 123.699 60.0625 122.777 60.4375C121.863 60.8125 120.746 61 119.426 61ZM127.477 54.7891V54.543C127.477 53.6133 127.609 52.7578 127.875 51.9766C128.141 51.1875 128.527 50.5039 129.035 49.9258C129.543 49.3477 130.168 48.8984 130.91 48.5781C131.652 48.25 132.504 48.0859 133.465 48.0859C134.426 48.0859 135.281 48.25 136.031 48.5781C136.781 48.8984 137.41 49.3477 137.918 49.9258C138.434 50.5039 138.824 51.1875 139.09 51.9766C139.355 52.7578 139.488 53.6133 139.488 54.543V54.7891C139.488 55.7109 139.355 56.5664 139.09 57.3555C138.824 58.1367 138.434 58.8203 137.918 59.4062C137.41 59.9844 136.785 60.4336 136.043 60.7539C135.301 61.0742 134.449 61.2344 133.488 61.2344C132.527 61.2344 131.672 61.0742 130.922 60.7539C130.18 60.4336 129.551 59.9844 129.035 59.4062C128.527 58.8203 128.141 58.1367 127.875 57.3555C127.609 56.5664 127.477 55.7109 127.477 54.7891ZM130.852 54.543V54.7891C130.852 55.3203 130.898 55.8164 130.992 56.2773C131.086 56.7383 131.234 57.1445 131.438 57.4961C131.648 57.8398 131.922 58.1094 132.258 58.3047C132.594 58.5 133.004 58.5977 133.488 58.5977C133.957 58.5977 134.359 58.5 134.695 58.3047C135.031 58.1094 135.301 57.8398 135.504 57.4961C135.707 57.1445 135.855 56.7383 135.949 56.2773C136.051 55.8164 136.102 55.3203 136.102 54.7891V54.543C136.102 54.0273 136.051 53.543 135.949 53.0898C135.855 52.6289 135.703 52.2227 135.492 51.8711C135.289 51.5117 135.02 51.2305 134.684 51.0273C134.348 50.8242 133.941 50.7227 133.465 50.7227C132.988 50.7227 132.582 50.8242 132.246 51.0273C131.918 51.2305 131.648 51.5117 131.438 51.8711C131.234 52.2227 131.086 52.6289 130.992 53.0898C130.898 53.543 130.852 54.0273 130.852 54.543ZM141.023 54.7891V54.543C141.023 53.6133 141.156 52.7578 141.422 51.9766C141.688 51.1875 142.074 50.5039 142.582 49.9258C143.09 49.3477 143.715 48.8984 144.457 48.5781C145.199 48.25 146.051 48.0859 147.012 48.0859C147.973 48.0859 148.828 48.25 149.578 48.5781C150.328 48.8984 150.957 49.3477 151.465 49.9258C151.98 50.5039 152.371 51.1875 152.637 51.9766C152.902 52.7578 153.035 53.6133 153.035 54.543V54.7891C153.035 55.7109 152.902 56.5664 152.637 57.3555C152.371 58.1367 151.98 58.8203 151.465 59.4062C150.957 59.9844 150.332 60.4336 149.59 60.7539C148.848 61.0742 147.996 61.2344 147.035 61.2344C146.074 61.2344 145.219 61.0742 144.469 60.7539C143.727 60.4336 143.098 59.9844 142.582 59.4062C142.074 58.8203 141.688 58.1367 141.422 57.3555C141.156 56.5664 141.023 55.7109 141.023 54.7891ZM144.398 54.543V54.7891C144.398 55.3203 144.445 55.8164 144.539 56.2773C144.633 56.7383 144.781 57.1445 144.984 57.4961C145.195 57.8398 145.469 58.1094 145.805 58.3047C146.141 58.5 146.551 58.5977 147.035 58.5977C147.504 58.5977 147.906 58.5 148.242 58.3047C148.578 58.1094 148.848 57.8398 149.051 57.4961C149.254 57.1445 149.402 56.7383 149.496 56.2773C149.598 55.8164 149.648 55.3203 149.648 54.7891V54.543C149.648 54.0273 149.598 53.543 149.496 53.0898C149.402 52.6289 149.25 52.2227 149.039 51.8711C148.836 51.5117 148.566 51.2305 148.23 51.0273C147.895 50.8242 147.488 50.7227 147.012 50.7227C146.535 50.7227 146.129 50.8242 145.793 51.0273C145.465 51.2305 145.195 51.5117 144.984 51.8711C144.781 52.2227 144.633 52.6289 144.539 53.0898C144.445 53.543 144.398 54.0273 144.398 54.543ZM158.484 42.9883V61H155.109V42.9883H158.484ZM166.477 48.3203L160.969 54.6016L158.016 57.5898L156.785 55.1523L159.129 52.1758L162.422 48.3203H166.477ZM162.973 61L159.223 55.1406L161.555 53.1016L166.863 61H162.973ZM183 56.5352C183 56.2305 182.953 55.957 182.859 55.7148C182.773 55.4648 182.609 55.2383 182.367 55.0352C182.125 54.8242 181.785 54.6172 181.348 54.4141C180.91 54.2109 180.344 54 179.648 53.7812C178.875 53.5312 178.141 53.25 177.445 52.9375C176.758 52.625 176.148 52.2617 175.617 51.8477C175.094 51.4258 174.68 50.9375 174.375 50.3828C174.078 49.8281 173.93 49.1836 173.93 48.4492C173.93 47.7383 174.086 47.0938 174.398 46.5156C174.711 45.9297 175.148 45.4297 175.711 45.0156C176.273 44.5938 176.938 44.2695 177.703 44.043C178.477 43.8164 179.324 43.7031 180.246 43.7031C181.504 43.7031 182.602 43.9297 183.539 44.3828C184.477 44.8359 185.203 45.457 185.719 46.2461C186.242 47.0352 186.504 47.9375 186.504 48.9531H183.012C183.012 48.4531 182.906 48.0156 182.695 47.6406C182.492 47.2578 182.18 46.957 181.758 46.7383C181.344 46.5195 180.82 46.4102 180.188 46.4102C179.578 46.4102 179.07 46.5039 178.664 46.6914C178.258 46.8711 177.953 47.1172 177.75 47.4297C177.547 47.7344 177.445 48.0781 177.445 48.4609C177.445 48.75 177.516 49.0117 177.656 49.2461C177.805 49.4805 178.023 49.6992 178.312 49.9023C178.602 50.1055 178.957 50.2969 179.379 50.4766C179.801 50.6562 180.289 50.832 180.844 51.0039C181.773 51.2852 182.59 51.6016 183.293 51.9531C184.004 52.3047 184.598 52.6992 185.074 53.1367C185.551 53.5742 185.91 54.0703 186.152 54.625C186.395 55.1797 186.516 55.8086 186.516 56.5117C186.516 57.2539 186.371 57.918 186.082 58.5039C185.793 59.0898 185.375 59.5859 184.828 59.9922C184.281 60.3984 183.629 60.707 182.871 60.918C182.113 61.1289 181.266 61.2344 180.328 61.2344C179.484 61.2344 178.652 61.125 177.832 60.9062C177.012 60.6797 176.266 60.3398 175.594 59.8867C174.93 59.4336 174.398 58.8555 174 58.1523C173.602 57.4492 173.402 56.6172 173.402 55.6562H176.93C176.93 56.1875 177.012 56.6367 177.176 57.0039C177.34 57.3711 177.57 57.668 177.867 57.8945C178.172 58.1211 178.531 58.2852 178.945 58.3867C179.367 58.4883 179.828 58.5391 180.328 58.5391C180.938 58.5391 181.438 58.4531 181.828 58.2812C182.227 58.1094 182.52 57.8711 182.707 57.5664C182.902 57.2617 183 56.918 183 56.5352ZM191.988 43V61H188.613V43H191.988ZM191.508 54.2148H190.582C190.59 53.332 190.707 52.5195 190.934 51.7773C191.16 51.0273 191.484 50.3789 191.906 49.832C192.328 49.2773 192.832 48.8477 193.418 48.543C194.012 48.2383 194.668 48.0859 195.387 48.0859C196.012 48.0859 196.578 48.1758 197.086 48.3555C197.602 48.5273 198.043 48.8086 198.41 49.1992C198.785 49.582 199.074 50.0859 199.277 50.7109C199.48 51.3359 199.582 52.0938 199.582 52.9844V61H196.184V52.9609C196.184 52.3984 196.102 51.957 195.938 51.6367C195.781 51.3086 195.551 51.0781 195.246 50.9453C194.949 50.8047 194.582 50.7344 194.145 50.7344C193.66 50.7344 193.246 50.8242 192.902 51.0039C192.566 51.1836 192.297 51.4336 192.094 51.7539C191.891 52.0664 191.742 52.4336 191.648 52.8555C191.555 53.2773 191.508 53.7305 191.508 54.2148ZM208.992 58.1406V52.4922C208.992 52.0859 208.926 51.7383 208.793 51.4492C208.66 51.1523 208.453 50.9219 208.172 50.7578C207.898 50.5938 207.543 50.5117 207.105 50.5117C206.73 50.5117 206.406 50.5781 206.133 50.7109C205.859 50.8359 205.648 51.0195 205.5 51.2617C205.352 51.4961 205.277 51.7734 205.277 52.0938H201.902C201.902 51.5547 202.027 51.043 202.277 50.5586C202.527 50.0742 202.891 49.6484 203.367 49.2812C203.844 48.9062 204.41 48.6133 205.066 48.4023C205.73 48.1914 206.473 48.0859 207.293 48.0859C208.277 48.0859 209.152 48.25 209.918 48.5781C210.684 48.9062 211.285 49.3984 211.723 50.0547C212.168 50.7109 212.391 51.5312 212.391 52.5156V57.9414C212.391 58.6367 212.434 59.207 212.52 59.6523C212.605 60.0898 212.73 60.4727 212.895 60.8008V61H209.484C209.32 60.6562 209.195 60.2266 209.109 59.7109C209.031 59.1875 208.992 58.6641 208.992 58.1406ZM209.438 53.2773L209.461 55.1875H207.574C207.129 55.1875 206.742 55.2383 206.414 55.3398C206.086 55.4414 205.816 55.5859 205.605 55.7734C205.395 55.9531 205.238 56.1641 205.137 56.4062C205.043 56.6484 204.996 56.9141 204.996 57.2031C204.996 57.4922 205.062 57.7539 205.195 57.9883C205.328 58.2148 205.52 58.3945 205.77 58.5273C206.02 58.6523 206.312 58.7148 206.648 58.7148C207.156 58.7148 207.598 58.6133 207.973 58.4102C208.348 58.207 208.637 57.957 208.84 57.6602C209.051 57.3633 209.16 57.082 209.168 56.8164L210.059 58.2461C209.934 58.5664 209.762 58.8984 209.543 59.2422C209.332 59.5859 209.062 59.9102 208.734 60.2148C208.406 60.5117 208.012 60.7578 207.551 60.9531C207.09 61.1406 206.543 61.2344 205.91 61.2344C205.105 61.2344 204.375 61.0742 203.719 60.7539C203.07 60.4258 202.555 59.9766 202.172 59.4062C201.797 58.8281 201.609 58.1719 201.609 57.4375C201.609 56.7734 201.734 56.1836 201.984 55.668C202.234 55.1523 202.602 54.7188 203.086 54.3672C203.578 54.0078 204.191 53.7383 204.926 53.5586C205.66 53.3711 206.512 53.2773 207.48 53.2773H209.438ZM218.367 51.0859V61H214.992V48.3203H218.168L218.367 51.0859ZM222.188 48.2383L222.129 51.3672C221.965 51.3438 221.766 51.3242 221.531 51.3086C221.305 51.2852 221.098 51.2734 220.91 51.2734C220.434 51.2734 220.02 51.3359 219.668 51.4609C219.324 51.5781 219.035 51.7539 218.801 51.9883C218.574 52.2227 218.402 52.5078 218.285 52.8438C218.176 53.1797 218.113 53.5625 218.098 53.9922L217.418 53.7812C217.418 52.9609 217.5 52.207 217.664 51.5195C217.828 50.8242 218.066 50.2188 218.379 49.7031C218.699 49.1875 219.09 48.7891 219.551 48.5078C220.012 48.2266 220.539 48.0859 221.133 48.0859C221.32 48.0859 221.512 48.1016 221.707 48.1328C221.902 48.1562 222.062 48.1914 222.188 48.2383ZM227.344 48.3203V61H223.957V48.3203H227.344ZM223.746 45.0156C223.746 44.5234 223.918 44.1172 224.262 43.7969C224.605 43.4766 225.066 43.3164 225.645 43.3164C226.215 43.3164 226.672 43.4766 227.016 43.7969C227.367 44.1172 227.543 44.5234 227.543 45.0156C227.543 45.5078 227.367 45.9141 227.016 46.2344C226.672 46.5547 226.215 46.7148 225.645 46.7148C225.066 46.7148 224.605 46.5547 224.262 46.2344C223.918 45.9141 223.746 45.5078 223.746 45.0156ZM233.438 51.0273V61H230.062V48.3203H233.227L233.438 51.0273ZM232.945 54.2148H232.031C232.031 53.2773 232.152 52.4336 232.395 51.6836C232.637 50.9258 232.977 50.2812 233.414 49.75C233.852 49.2109 234.371 48.8008 234.973 48.5195C235.582 48.2305 236.262 48.0859 237.012 48.0859C237.605 48.0859 238.148 48.1719 238.641 48.3438C239.133 48.5156 239.555 48.7891 239.906 49.1641C240.266 49.5391 240.539 50.0352 240.727 50.6523C240.922 51.2695 241.02 52.0234 241.02 52.9141V61H237.621V52.9023C237.621 52.3398 237.543 51.9023 237.387 51.5898C237.23 51.2773 237 51.0586 236.695 50.9336C236.398 50.8008 236.031 50.7344 235.594 50.7344C235.141 50.7344 234.746 50.8242 234.41 51.0039C234.082 51.1836 233.809 51.4336 233.59 51.7539C233.379 52.0664 233.219 52.4336 233.109 52.8555C233 53.2773 232.945 53.7305 232.945 54.2148ZM251.613 48.3203H254.672V60.5781C254.672 61.7344 254.414 62.7148 253.898 63.5195C253.391 64.332 252.68 64.9453 251.766 65.3594C250.852 65.7812 249.789 65.9922 248.578 65.9922C248.047 65.9922 247.484 65.9219 246.891 65.7812C246.305 65.6406 245.742 65.4219 245.203 65.125C244.672 64.8281 244.227 64.4531 243.867 64L245.355 62.0078C245.746 62.4609 246.199 62.8125 246.715 63.0625C247.23 63.3203 247.801 63.4492 248.426 63.4492C249.035 63.4492 249.551 63.3359 249.973 63.1094C250.395 62.8906 250.719 62.5664 250.945 62.1367C251.172 61.7148 251.285 61.2031 251.285 60.6016V51.25L251.613 48.3203ZM243.082 54.8125V54.5664C243.082 53.5977 243.199 52.7188 243.434 51.9297C243.676 51.1328 244.016 50.4492 244.453 49.8789C244.898 49.3086 245.438 48.8672 246.07 48.5547C246.703 48.2422 247.418 48.0859 248.215 48.0859C249.059 48.0859 249.766 48.2422 250.336 48.5547C250.906 48.8672 251.375 49.3125 251.742 49.8906C252.109 50.4609 252.395 51.1367 252.598 51.918C252.809 52.6914 252.973 53.5391 253.09 54.4609V55C252.973 55.8828 252.797 56.7031 252.562 57.4609C252.328 58.2188 252.02 58.8828 251.637 59.4531C251.254 60.0156 250.777 60.4531 250.207 60.7656C249.645 61.0781 248.973 61.2344 248.191 61.2344C247.41 61.2344 246.703 61.0742 246.07 60.7539C245.445 60.4336 244.91 59.9844 244.465 59.4062C244.02 58.8281 243.676 58.1484 243.434 57.3672C243.199 56.5859 243.082 55.7344 243.082 54.8125ZM246.457 54.5664V54.8125C246.457 55.3359 246.508 55.8242 246.609 56.2773C246.711 56.7305 246.867 57.1328 247.078 57.4844C247.297 57.8281 247.566 58.0977 247.887 58.293C248.215 58.4805 248.602 58.5742 249.047 58.5742C249.664 58.5742 250.168 58.4453 250.559 58.1875C250.949 57.9219 251.242 57.5586 251.438 57.0977C251.633 56.6367 251.746 56.1055 251.777 55.5039V53.9688C251.762 53.4766 251.695 53.0352 251.578 52.6445C251.461 52.2461 251.297 51.9062 251.086 51.625C250.875 51.3438 250.602 51.125 250.266 50.9688C249.93 50.8125 249.531 50.7344 249.07 50.7344C248.625 50.7344 248.238 50.8359 247.91 51.0391C247.59 51.2344 247.32 51.5039 247.102 51.8477C246.891 52.1914 246.73 52.5977 246.621 53.0664C246.512 53.5273 246.457 54.0273 246.457 54.5664Z" fill="#888888"/>
<path d="M104.344 84.875V119H96.1406V84.875H104.344ZM117.727 99.0078V119H109.828V93.6406H117.234L117.727 99.0078ZM116.766 105.453L114.961 105.5C114.961 103.719 115.172 102.078 115.594 100.578C116.016 99.0781 116.641 97.7734 117.469 96.6641C118.297 95.5547 119.312 94.6953 120.516 94.0859C121.734 93.4766 123.141 93.1719 124.734 93.1719C125.844 93.1719 126.852 93.3438 127.758 93.6875C128.664 94.0156 129.445 94.5391 130.102 95.2578C130.758 95.9609 131.258 96.8828 131.602 98.0234C131.961 99.1484 132.141 100.5 132.141 102.078V119H124.242V103.086C124.242 102.008 124.117 101.195 123.867 100.648C123.633 100.102 123.289 99.7344 122.836 99.5469C122.383 99.3594 121.828 99.2656 121.172 99.2656C120.484 99.2656 119.867 99.4219 119.32 99.7344C118.773 100.047 118.305 100.484 117.914 101.047C117.539 101.594 117.25 102.242 117.047 102.992C116.859 103.742 116.766 104.562 116.766 105.453ZM131.25 105.453L129.047 105.5C129.047 103.719 129.242 102.078 129.633 100.578C130.039 99.0781 130.641 97.7734 131.438 96.6641C132.25 95.5547 133.258 94.6953 134.461 94.0859C135.664 93.4766 137.062 93.1719 138.656 93.1719C139.812 93.1719 140.875 93.3438 141.844 93.6875C142.812 94.0312 143.648 94.5859 144.352 95.3516C145.055 96.1172 145.602 97.1328 145.992 98.3984C146.383 99.6484 146.578 101.195 146.578 103.039V119H138.656V103.039C138.656 101.992 138.531 101.203 138.281 100.672C138.047 100.125 137.703 99.7578 137.25 99.5703C136.797 99.3672 136.258 99.2656 135.633 99.2656C134.883 99.2656 134.234 99.4219 133.688 99.7344C133.141 100.047 132.68 100.484 132.305 101.047C131.945 101.594 131.68 102.242 131.508 102.992C131.336 103.742 131.25 104.562 131.25 105.453ZM159.07 98.5156V128.75H151.172V93.6406H158.531L159.07 98.5156ZM174.633 106.016V106.508C174.633 108.352 174.422 110.062 174 111.641C173.578 113.219 172.953 114.594 172.125 115.766C171.297 116.938 170.266 117.852 169.031 118.508C167.812 119.148 166.398 119.469 164.789 119.469C163.273 119.469 161.969 119.133 160.875 118.461C159.781 117.789 158.867 116.859 158.133 115.672C157.398 114.484 156.805 113.125 156.352 111.594C155.898 110.062 155.539 108.445 155.273 106.742V106.109C155.539 104.281 155.898 102.586 156.352 101.023C156.805 99.4453 157.398 98.0703 158.133 96.8984C158.867 95.7266 159.773 94.8125 160.852 94.1562C161.945 93.5 163.25 93.1719 164.766 93.1719C166.375 93.1719 167.789 93.4766 169.008 94.0859C170.242 94.6953 171.273 95.5703 172.102 96.7109C172.945 97.8359 173.578 99.1875 174 100.766C174.422 102.344 174.633 104.094 174.633 106.016ZM166.734 106.508V106.016C166.734 105.031 166.664 104.133 166.523 103.32C166.383 102.492 166.156 101.773 165.844 101.164C165.547 100.555 165.148 100.086 164.648 99.7578C164.148 99.4297 163.531 99.2656 162.797 99.2656C161.953 99.2656 161.242 99.3984 160.664 99.6641C160.102 99.9141 159.648 100.305 159.305 100.836C158.977 101.352 158.742 102 158.602 102.781C158.477 103.547 158.422 104.445 158.438 105.477V107.398C158.406 108.586 158.523 109.633 158.789 110.539C159.055 111.43 159.516 112.125 160.172 112.625C160.828 113.125 161.719 113.375 162.844 113.375C163.594 113.375 164.219 113.203 164.719 112.859C165.219 112.5 165.617 112.008 165.914 111.383C166.211 110.742 166.422 110.008 166.547 109.18C166.672 108.352 166.734 107.461 166.734 106.508ZM186.492 83V119H178.57V83H186.492ZM203.648 119.469C201.586 119.469 199.742 119.148 198.117 118.508C196.492 117.852 195.117 116.953 193.992 115.812C192.883 114.672 192.031 113.359 191.438 111.875C190.859 110.391 190.57 108.82 190.57 107.164V106.273C190.57 104.414 190.828 102.695 191.344 101.117C191.859 99.5234 192.625 98.1328 193.641 96.9453C194.656 95.7578 195.93 94.8359 197.461 94.1797C198.992 93.5078 200.773 93.1719 202.805 93.1719C204.602 93.1719 206.211 93.4609 207.633 94.0391C209.055 94.6172 210.258 95.4453 211.242 96.5234C212.242 97.6016 213 98.9062 213.516 100.438C214.047 101.969 214.312 103.688 214.312 105.594V108.805H193.594V103.859H206.602V103.25C206.617 102.406 206.469 101.688 206.156 101.094C205.859 100.5 205.422 100.047 204.844 99.7344C204.266 99.4219 203.562 99.2656 202.734 99.2656C201.875 99.2656 201.164 99.4531 200.602 99.8281C200.055 100.203 199.625 100.719 199.312 101.375C199.016 102.016 198.805 102.758 198.68 103.602C198.555 104.445 198.492 105.336 198.492 106.273V107.164C198.492 108.102 198.617 108.953 198.867 109.719C199.133 110.484 199.508 111.141 199.992 111.688C200.492 112.219 201.086 112.633 201.773 112.93C202.477 113.227 203.273 113.375 204.164 113.375C205.242 113.375 206.305 113.172 207.352 112.766C208.398 112.359 209.297 111.688 210.047 110.75L213.633 115.016C213.117 115.75 212.383 116.461 211.43 117.148C210.492 117.836 209.367 118.398 208.055 118.836C206.742 119.258 205.273 119.469 203.648 119.469ZM225.492 99.0078V119H217.594V93.6406H225L225.492 99.0078ZM224.531 105.453L222.727 105.5C222.727 103.719 222.938 102.078 223.359 100.578C223.781 99.0781 224.406 97.7734 225.234 96.6641C226.062 95.5547 227.078 94.6953 228.281 94.0859C229.5 93.4766 230.906 93.1719 232.5 93.1719C233.609 93.1719 234.617 93.3438 235.523 93.6875C236.43 94.0156 237.211 94.5391 237.867 95.2578C238.523 95.9609 239.023 96.8828 239.367 98.0234C239.727 99.1484 239.906 100.5 239.906 102.078V119H232.008V103.086C232.008 102.008 231.883 101.195 231.633 100.648C231.398 100.102 231.055 99.7344 230.602 99.5469C230.148 99.3594 229.594 99.2656 228.938 99.2656C228.25 99.2656 227.633 99.4219 227.086 99.7344C226.539 100.047 226.07 100.484 225.68 101.047C225.305 101.594 225.016 102.242 224.812 102.992C224.625 103.742 224.531 104.562 224.531 105.453ZM239.016 105.453L236.812 105.5C236.812 103.719 237.008 102.078 237.398 100.578C237.805 99.0781 238.406 97.7734 239.203 96.6641C240.016 95.5547 241.023 94.6953 242.227 94.0859C243.43 93.4766 244.828 93.1719 246.422 93.1719C247.578 93.1719 248.641 93.3438 249.609 93.6875C250.578 94.0312 251.414 94.5859 252.117 95.3516C252.82 96.1172 253.367 97.1328 253.758 98.3984C254.148 99.6484 254.344 101.195 254.344 103.039V119H246.422V103.039C246.422 101.992 246.297 101.203 246.047 100.672C245.812 100.125 245.469 99.7578 245.016 99.5703C244.562 99.3672 244.023 99.2656 243.398 99.2656C242.648 99.2656 242 99.4219 241.453 99.7344C240.906 100.047 240.445 100.484 240.07 101.047C239.711 101.594 239.445 102.242 239.273 102.992C239.102 103.742 239.016 104.562 239.016 105.453ZM271.148 119.469C269.086 119.469 267.242 119.148 265.617 118.508C263.992 117.852 262.617 116.953 261.492 115.812C260.383 114.672 259.531 113.359 258.938 111.875C258.359 110.391 258.07 108.82 258.07 107.164V106.273C258.07 104.414 258.328 102.695 258.844 101.117C259.359 99.5234 260.125 98.1328 261.141 96.9453C262.156 95.7578 263.43 94.8359 264.961 94.1797C266.492 93.5078 268.273 93.1719 270.305 93.1719C272.102 93.1719 273.711 93.4609 275.133 94.0391C276.555 94.6172 277.758 95.4453 278.742 96.5234C279.742 97.6016 280.5 98.9062 281.016 100.438C281.547 101.969 281.812 103.688 281.812 105.594V108.805H261.094V103.859H274.102V103.25C274.117 102.406 273.969 101.688 273.656 101.094C273.359 100.5 272.922 100.047 272.344 99.7344C271.766 99.4219 271.062 99.2656 270.234 99.2656C269.375 99.2656 268.664 99.4531 268.102 99.8281C267.555 100.203 267.125 100.719 266.812 101.375C266.516 102.016 266.305 102.758 266.18 103.602C266.055 104.445 265.992 105.336 265.992 106.273V107.164C265.992 108.102 266.117 108.953 266.367 109.719C266.633 110.484 267.008 111.141 267.492 111.688C267.992 112.219 268.586 112.633 269.273 112.93C269.977 113.227 270.773 113.375 271.664 113.375C272.742 113.375 273.805 113.172 274.852 112.766C275.898 112.359 276.797 111.688 277.547 110.75L281.133 115.016C280.617 115.75 279.883 116.461 278.93 117.148C277.992 117.836 276.867 118.398 275.555 118.836C274.242 119.258 272.773 119.469 271.148 119.469ZM292.781 99.0547V119H284.883V93.6406H292.289L292.781 99.0547ZM291.844 105.453L289.992 105.5C289.992 103.562 290.227 101.836 290.695 100.32C291.164 98.7891 291.828 97.4922 292.688 96.4297C293.547 95.3672 294.57 94.5625 295.758 94.0156C296.961 93.4531 298.297 93.1719 299.766 93.1719C300.938 93.1719 302.008 93.3438 302.977 93.6875C303.961 94.0312 304.805 94.5859 305.508 95.3516C306.227 96.1172 306.773 97.1328 307.148 98.3984C307.539 99.6484 307.734 101.195 307.734 103.039V119H299.789V103.016C299.789 102 299.648 101.227 299.367 100.695C299.086 100.148 298.68 99.7734 298.148 99.5703C297.617 99.3672 296.969 99.2656 296.203 99.2656C295.391 99.2656 294.703 99.4219 294.141 99.7344C293.578 100.047 293.125 100.484 292.781 101.047C292.453 101.594 292.211 102.242 292.055 102.992C291.914 103.742 291.844 104.562 291.844 105.453ZM325.477 93.6406V99.125H310.195V93.6406H325.477ZM313.406 87.3359H321.305V110.727C321.305 111.398 321.383 111.922 321.539 112.297C321.695 112.656 321.961 112.914 322.336 113.07C322.727 113.211 323.242 113.281 323.883 113.281C324.336 113.281 324.711 113.273 325.008 113.258C325.305 113.227 325.586 113.188 325.852 113.141V118.789C325.18 119.008 324.477 119.172 323.742 119.281C323.008 119.406 322.227 119.469 321.398 119.469C319.711 119.469 318.266 119.203 317.062 118.672C315.875 118.141 314.969 117.305 314.344 116.164C313.719 115.023 313.406 113.539 313.406 111.711V87.3359ZM341.789 112.625V102.172C341.789 101.453 341.688 100.836 341.484 100.32C341.281 99.8047 340.961 99.4062 340.523 99.125C340.086 98.8281 339.5 98.6797 338.766 98.6797C338.172 98.6797 337.664 98.7812 337.242 98.9844C336.82 99.1875 336.5 99.4922 336.281 99.8984C336.062 100.305 335.953 100.82 335.953 101.445H328.055C328.055 100.273 328.312 99.1875 328.828 98.1875C329.359 97.1719 330.109 96.2891 331.078 95.5391C332.062 94.7891 333.234 94.2109 334.594 93.8047C335.969 93.3828 337.5 93.1719 339.188 93.1719C341.203 93.1719 343 93.5078 344.578 94.1797C346.172 94.8516 347.43 95.8594 348.352 97.2031C349.273 98.5312 349.734 100.203 349.734 102.219V112.602C349.734 114.258 349.828 115.516 350.016 116.375C350.203 117.219 350.469 117.961 350.812 118.602V119H342.891C342.516 118.219 342.234 117.266 342.047 116.141C341.875 115 341.789 113.828 341.789 112.625ZM342.75 103.508L342.797 107.727H339.305C338.57 107.727 337.945 107.828 337.43 108.031C336.93 108.234 336.523 108.516 336.211 108.875C335.914 109.219 335.695 109.609 335.555 110.047C335.43 110.484 335.367 110.945 335.367 111.43C335.367 111.898 335.477 112.32 335.695 112.695C335.93 113.055 336.242 113.336 336.633 113.539C337.023 113.742 337.461 113.844 337.945 113.844C338.82 113.844 339.562 113.68 340.172 113.352C340.797 113.008 341.273 112.594 341.602 112.109C341.93 111.625 342.094 111.172 342.094 110.75L343.828 113.984C343.516 114.609 343.156 115.242 342.75 115.883C342.359 116.523 341.867 117.117 341.273 117.664C340.695 118.195 339.984 118.633 339.141 118.977C338.297 119.305 337.273 119.469 336.07 119.469C334.508 119.469 333.07 119.148 331.758 118.508C330.461 117.867 329.422 116.977 328.641 115.836C327.859 114.68 327.469 113.352 327.469 111.852C327.469 110.539 327.703 109.367 328.172 108.336C328.656 107.305 329.383 106.43 330.352 105.711C331.32 104.992 332.555 104.445 334.055 104.07C335.555 103.695 337.32 103.508 339.352 103.508H342.75ZM367.477 93.6406V99.125H352.195V93.6406H367.477ZM355.406 87.3359H363.305V110.727C363.305 111.398 363.383 111.922 363.539 112.297C363.695 112.656 363.961 112.914 364.336 113.07C364.727 113.211 365.242 113.281 365.883 113.281C366.336 113.281 366.711 113.273 367.008 113.258C367.305 113.227 367.586 113.188 367.852 113.141V118.789C367.18 119.008 366.477 119.172 365.742 119.281C365.008 119.406 364.227 119.469 363.398 119.469C361.711 119.469 360.266 119.203 359.062 118.672C357.875 118.141 356.969 117.305 356.344 116.164C355.719 115.023 355.406 113.539 355.406 111.711V87.3359ZM378.961 93.6406V119H371.039V93.6406H378.961ZM370.57 87.1016C370.57 85.9766 370.977 85.0547 371.789 84.3359C372.602 83.6172 373.656 83.2578 374.953 83.2578C376.25 83.2578 377.305 83.6172 378.117 84.3359C378.93 85.0547 379.336 85.9766 379.336 87.1016C379.336 88.2266 378.93 89.1484 378.117 89.8672C377.305 90.5859 376.25 90.9453 374.953 90.9453C373.656 90.9453 372.602 90.5859 371.789 89.8672C370.977 89.1484 370.57 88.2266 370.57 87.1016ZM382.852 106.578V106.086C382.852 104.227 383.117 102.516 383.648 100.953C384.18 99.375 384.961 98.0078 385.992 96.8516C387.023 95.6953 388.297 94.7969 389.812 94.1562C391.328 93.5 393.078 93.1719 395.062 93.1719C397.062 93.1719 398.82 93.5 400.336 94.1562C401.867 94.7969 403.148 95.6953 404.18 96.8516C405.211 98.0078 405.992 99.375 406.523 100.953C407.055 102.516 407.32 104.227 407.32 106.086V106.578C407.32 108.422 407.055 110.133 406.523 111.711C405.992 113.273 405.211 114.641 404.18 115.812C403.148 116.969 401.875 117.867 400.359 118.508C398.844 119.148 397.094 119.469 395.109 119.469C393.125 119.469 391.367 119.148 389.836 118.508C388.305 117.867 387.023 116.969 385.992 115.812C384.961 114.641 384.18 113.273 383.648 111.711C383.117 110.133 382.852 108.422 382.852 106.578ZM390.75 106.086V106.578C390.75 107.531 390.82 108.422 390.961 109.25C391.102 110.078 391.336 110.805 391.664 111.43C391.992 112.039 392.438 112.516 393 112.859C393.562 113.203 394.266 113.375 395.109 113.375C395.938 113.375 396.625 113.203 397.172 112.859C397.734 112.516 398.18 112.039 398.508 111.43C398.836 110.805 399.07 110.078 399.211 109.25C399.352 108.422 399.422 107.531 399.422 106.578V106.086C399.422 105.164 399.352 104.297 399.211 103.484C399.07 102.656 398.836 101.93 398.508 101.305C398.18 100.664 397.734 100.164 397.172 99.8047C396.609 99.4453 395.906 99.2656 395.062 99.2656C394.234 99.2656 393.539 99.4453 392.977 99.8047C392.43 100.164 391.992 100.664 391.664 101.305C391.336 101.93 391.102 102.656 390.961 103.484C390.82 104.297 390.75 105.164 390.75 106.086ZM418.594 99.0547V119H410.695V93.6406H418.102L418.594 99.0547ZM417.656 105.453L415.805 105.5C415.805 103.562 416.039 101.836 416.508 100.32C416.977 98.7891 417.641 97.4922 418.5 96.4297C419.359 95.3672 420.383 94.5625 421.57 94.0156C422.773 93.4531 424.109 93.1719 425.578 93.1719C426.75 93.1719 427.82 93.3438 428.789 93.6875C429.773 94.0312 430.617 94.5859 431.32 95.3516C432.039 96.1172 432.586 97.1328 432.961 98.3984C433.352 99.6484 433.547 101.195 433.547 103.039V119H425.602V103.016C425.602 102 425.461 101.227 425.18 100.695C424.898 100.148 424.492 99.7734 423.961 99.5703C423.43 99.3672 422.781 99.2656 422.016 99.2656C421.203 99.2656 420.516 99.4219 419.953 99.7344C419.391 100.047 418.938 100.484 418.594 101.047C418.266 101.594 418.023 102.242 417.867 102.992C417.727 103.742 417.656 104.562 417.656 105.453Z" fill="black"/>
<path d="M1134 0H1348C1356.28 0 1363 6.71573 1363 15V148C1363 156.284 1356.28 163 1348 163H1134V0Z" fill="#30C5A6"/>
<path d="M1281 46.5H1216L1213.5 49V114L1216 116.5H1281L1283.5 114V49L1281 46.5ZM1278.5 111.5H1233.5V101.5H1245C1246.5 104.5 1250 106.5 1253.5 106.5C1259 106.5 1263.5 102 1263.5 96.5C1263.5 91 1259 86.5 1253.5 86.5C1248 86.5 1243.5 91 1243.5 96.5H1228.5V111.5H1218.5V51.5H1228.5V63C1225.5 64.5 1223.5 68 1223.5 71.5C1223.5 77 1228 81.5 1233.5 81.5C1239 81.5 1243.5 77 1243.5 71.5H1253.5C1253.5 77 1258 81.5 1263.5 81.5C1269 81.5 1273.5 77 1273.5 71.5C1273.5 66 1269 61.5 1263.5 61.5C1260 61.5 1256.5 63.5 1255 66.5H1242C1240.5 63.5 1237 61.5 1233.5 61.5V51.5H1278.5V111.5ZM1248.5 96.5C1248.5 93.5 1250.5 91.5 1253.5 91.5C1256.5 91.5 1258.5 93.5 1258.5 96.5C1258.5 99.5 1256.5 101.5 1253.5 101.5C1250.5 101.5 1248.5 99.5 1248.5 96.5ZM1233.5 66.5C1236.5 66.5 1238.5 68.5 1238.5 71.5C1238.5 74.5 1236.5 76.5 1233.5 76.5C1230.5 76.5 1228.5 74.5 1228.5 71.5C1228.5 68.5 1230.5 66.5 1233.5 66.5ZM1263.5 66.5C1266.5 66.5 1268.5 68.5 1268.5 71.5C1268.5 74.5 1266.5 76.5 1263.5 76.5C1260.5 76.5 1258.5 74.5 1258.5 71.5C1258.5 68.5 1260.5 66.5 1263.5 66.5Z" fill="white"/>
</svg>
