<svg width="1363" height="163" viewBox="0 0 1363 163" fill="none" xmlns="http://www.w3.org/2000/svg">
<path d="M0 15C0 6.71573 6.71573 0 15 0H37V163H15C6.71573 163 0 156.284 0 148V15Z" fill="#30C5A6"/>
<rect width="1097" height="163" transform="translate(37)" fill="#F0F0F0"/>
<path d="M101.906 53.9219L94.3945 51.2383V48.0859L104.602 52.375V54.6367L101.906 53.9219ZM94.3945 56.1719L101.918 53.4297L104.602 52.7852V55.0352L94.3945 59.3242V56.1719ZM119.578 53.5117H115.195L115.172 51.0977H118.852C119.5 51.0977 120.031 51.0156 120.445 50.8516C120.859 50.6797 121.168 50.4336 121.371 50.1133C121.582 49.7852 121.688 49.3867 121.688 48.918C121.688 48.3867 121.586 47.957 121.383 47.6289C121.188 47.3008 120.879 47.0625 120.457 46.9141C120.043 46.7656 119.508 46.6914 118.852 46.6914H116.414V61H112.898V43.9375H118.852C119.844 43.9375 120.73 44.0312 121.512 44.2188C122.301 44.4062 122.969 44.6914 123.516 45.0742C124.062 45.457 124.48 45.9414 124.77 46.5273C125.059 47.1055 125.203 47.793 125.203 48.5898C125.203 49.293 125.043 49.9414 124.723 50.5352C124.41 51.1289 123.914 51.6133 123.234 51.9883C122.562 52.3633 121.684 52.5703 120.598 52.6094L119.578 53.5117ZM119.426 61H114.234L115.605 58.2578H119.426C120.043 58.2578 120.547 58.1602 120.938 57.9648C121.328 57.7617 121.617 57.4883 121.805 57.1445C121.992 56.8008 122.086 56.4062 122.086 55.9609C122.086 55.4609 122 55.0273 121.828 54.6602C121.664 54.293 121.398 54.0117 121.031 53.8164C120.664 53.6133 120.18 53.5117 119.578 53.5117H116.191L116.215 51.0977H120.434L121.242 52.0469C122.281 52.0312 123.117 52.2148 123.75 52.5977C124.391 52.9727 124.855 53.4609 125.145 54.0625C125.441 54.6641 125.59 55.3086 125.59 55.9961C125.59 57.0898 125.352 58.0117 124.875 58.7617C124.398 59.5039 123.699 60.0625 122.777 60.4375C121.863 60.8125 120.746 61 119.426 61ZM127.477 54.7891V54.543C127.477 53.6133 127.609 52.7578 127.875 51.9766C128.141 51.1875 128.527 50.5039 129.035 49.9258C129.543 49.3477 130.168 48.8984 130.91 48.5781C131.652 48.25 132.504 48.0859 133.465 48.0859C134.426 48.0859 135.281 48.25 136.031 48.5781C136.781 48.8984 137.41 49.3477 137.918 49.9258C138.434 50.5039 138.824 51.1875 139.09 51.9766C139.355 52.7578 139.488 53.6133 139.488 54.543V54.7891C139.488 55.7109 139.355 56.5664 139.09 57.3555C138.824 58.1367 138.434 58.8203 137.918 59.4062C137.41 59.9844 136.785 60.4336 136.043 60.7539C135.301 61.0742 134.449 61.2344 133.488 61.2344C132.527 61.2344 131.672 61.0742 130.922 60.7539C130.18 60.4336 129.551 59.9844 129.035 59.4062C128.527 58.8203 128.141 58.1367 127.875 57.3555C127.609 56.5664 127.477 55.7109 127.477 54.7891ZM130.852 54.543V54.7891C130.852 55.3203 130.898 55.8164 130.992 56.2773C131.086 56.7383 131.234 57.1445 131.438 57.4961C131.648 57.8398 131.922 58.1094 132.258 58.3047C132.594 58.5 133.004 58.5977 133.488 58.5977C133.957 58.5977 134.359 58.5 134.695 58.3047C135.031 58.1094 135.301 57.8398 135.504 57.4961C135.707 57.1445 135.855 56.7383 135.949 56.2773C136.051 55.8164 136.102 55.3203 136.102 54.7891V54.543C136.102 54.0273 136.051 53.543 135.949 53.0898C135.855 52.6289 135.703 52.2227 135.492 51.8711C135.289 51.5117 135.02 51.2305 134.684 51.0273C134.348 50.8242 133.941 50.7227 133.465 50.7227C132.988 50.7227 132.582 50.8242 132.246 51.0273C131.918 51.2305 131.648 51.5117 131.438 51.8711C131.234 52.2227 131.086 52.6289 130.992 53.0898C130.898 53.543 130.852 54.0273 130.852 54.543ZM141.023 54.7891V54.543C141.023 53.6133 141.156 52.7578 141.422 51.9766C141.688 51.1875 142.074 50.5039 142.582 49.9258C143.09 49.3477 143.715 48.8984 144.457 48.5781C145.199 48.25 146.051 48.0859 147.012 48.0859C147.973 48.0859 148.828 48.25 149.578 48.5781C150.328 48.8984 150.957 49.3477 151.465 49.9258C151.98 50.5039 152.371 51.1875 152.637 51.9766C152.902 52.7578 153.035 53.6133 153.035 54.543V54.7891C153.035 55.7109 152.902 56.5664 152.637 57.3555C152.371 58.1367 151.98 58.8203 151.465 59.4062C150.957 59.9844 150.332 60.4336 149.59 60.7539C148.848 61.0742 147.996 61.2344 147.035 61.2344C146.074 61.2344 145.219 61.0742 144.469 60.7539C143.727 60.4336 143.098 59.9844 142.582 59.4062C142.074 58.8203 141.688 58.1367 141.422 57.3555C141.156 56.5664 141.023 55.7109 141.023 54.7891ZM144.398 54.543V54.7891C144.398 55.3203 144.445 55.8164 144.539 56.2773C144.633 56.7383 144.781 57.1445 144.984 57.4961C145.195 57.8398 145.469 58.1094 145.805 58.3047C146.141 58.5 146.551 58.5977 147.035 58.5977C147.504 58.5977 147.906 58.5 148.242 58.3047C148.578 58.1094 148.848 57.8398 149.051 57.4961C149.254 57.1445 149.402 56.7383 149.496 56.2773C149.598 55.8164 149.648 55.3203 149.648 54.7891V54.543C149.648 54.0273 149.598 53.543 149.496 53.0898C149.402 52.6289 149.25 52.2227 149.039 51.8711C148.836 51.5117 148.566 51.2305 148.23 51.0273C147.895 50.8242 147.488 50.7227 147.012 50.7227C146.535 50.7227 146.129 50.8242 145.793 51.0273C145.465 51.2305 145.195 51.5117 144.984 51.8711C144.781 52.2227 144.633 52.6289 144.539 53.0898C144.445 53.543 144.398 54.0273 144.398 54.543ZM158.484 42.9883V61H155.109V42.9883H158.484ZM166.477 48.3203L160.969 54.6016L158.016 57.5898L156.785 55.1523L159.129 52.1758L162.422 48.3203H166.477ZM162.973 61L159.223 55.1406L161.555 53.1016L166.863 61H162.973ZM183 56.5352C183 56.2305 182.953 55.957 182.859 55.7148C182.773 55.4648 182.609 55.2383 182.367 55.0352C182.125 54.8242 181.785 54.6172 181.348 54.4141C180.91 54.2109 180.344 54 179.648 53.7812C178.875 53.5312 178.141 53.25 177.445 52.9375C176.758 52.625 176.148 52.2617 175.617 51.8477C175.094 51.4258 174.68 50.9375 174.375 50.3828C174.078 49.8281 173.93 49.1836 173.93 48.4492C173.93 47.7383 174.086 47.0938 174.398 46.5156C174.711 45.9297 175.148 45.4297 175.711 45.0156C176.273 44.5938 176.938 44.2695 177.703 44.043C178.477 43.8164 179.324 43.7031 180.246 43.7031C181.504 43.7031 182.602 43.9297 183.539 44.3828C184.477 44.8359 185.203 45.457 185.719 46.2461C186.242 47.0352 186.504 47.9375 186.504 48.9531H183.012C183.012 48.4531 182.906 48.0156 182.695 47.6406C182.492 47.2578 182.18 46.957 181.758 46.7383C181.344 46.5195 180.82 46.4102 180.188 46.4102C179.578 46.4102 179.07 46.5039 178.664 46.6914C178.258 46.8711 177.953 47.1172 177.75 47.4297C177.547 47.7344 177.445 48.0781 177.445 48.4609C177.445 48.75 177.516 49.0117 177.656 49.2461C177.805 49.4805 178.023 49.6992 178.312 49.9023C178.602 50.1055 178.957 50.2969 179.379 50.4766C179.801 50.6562 180.289 50.832 180.844 51.0039C181.773 51.2852 182.59 51.6016 183.293 51.9531C184.004 52.3047 184.598 52.6992 185.074 53.1367C185.551 53.5742 185.91 54.0703 186.152 54.625C186.395 55.1797 186.516 55.8086 186.516 56.5117C186.516 57.2539 186.371 57.918 186.082 58.5039C185.793 59.0898 185.375 59.5859 184.828 59.9922C184.281 60.3984 183.629 60.707 182.871 60.918C182.113 61.1289 181.266 61.2344 180.328 61.2344C179.484 61.2344 178.652 61.125 177.832 60.9062C177.012 60.6797 176.266 60.3398 175.594 59.8867C174.93 59.4336 174.398 58.8555 174 58.1523C173.602 57.4492 173.402 56.6172 173.402 55.6562H176.93C176.93 56.1875 177.012 56.6367 177.176 57.0039C177.34 57.3711 177.57 57.668 177.867 57.8945C178.172 58.1211 178.531 58.2852 178.945 58.3867C179.367 58.4883 179.828 58.5391 180.328 58.5391C180.938 58.5391 181.438 58.4531 181.828 58.2812C182.227 58.1094 182.52 57.8711 182.707 57.5664C182.902 57.2617 183 56.918 183 56.5352ZM191.988 43V61H188.613V43H191.988ZM191.508 54.2148H190.582C190.59 53.332 190.707 52.5195 190.934 51.7773C191.16 51.0273 191.484 50.3789 191.906 49.832C192.328 49.2773 192.832 48.8477 193.418 48.543C194.012 48.2383 194.668 48.0859 195.387 48.0859C196.012 48.0859 196.578 48.1758 197.086 48.3555C197.602 48.5273 198.043 48.8086 198.41 49.1992C198.785 49.582 199.074 50.0859 199.277 50.7109C199.48 51.3359 199.582 52.0938 199.582 52.9844V61H196.184V52.9609C196.184 52.3984 196.102 51.957 195.938 51.6367C195.781 51.3086 195.551 51.0781 195.246 50.9453C194.949 50.8047 194.582 50.7344 194.145 50.7344C193.66 50.7344 193.246 50.8242 192.902 51.0039C192.566 51.1836 192.297 51.4336 192.094 51.7539C191.891 52.0664 191.742 52.4336 191.648 52.8555C191.555 53.2773 191.508 53.7305 191.508 54.2148ZM208.992 58.1406V52.4922C208.992 52.0859 208.926 51.7383 208.793 51.4492C208.66 51.1523 208.453 50.9219 208.172 50.7578C207.898 50.5938 207.543 50.5117 207.105 50.5117C206.73 50.5117 206.406 50.5781 206.133 50.7109C205.859 50.8359 205.648 51.0195 205.5 51.2617C205.352 51.4961 205.277 51.7734 205.277 52.0938H201.902C201.902 51.5547 202.027 51.043 202.277 50.5586C202.527 50.0742 202.891 49.6484 203.367 49.2812C203.844 48.9062 204.41 48.6133 205.066 48.4023C205.73 48.1914 206.473 48.0859 207.293 48.0859C208.277 48.0859 209.152 48.25 209.918 48.5781C210.684 48.9062 211.285 49.3984 211.723 50.0547C212.168 50.7109 212.391 51.5312 212.391 52.5156V57.9414C212.391 58.6367 212.434 59.207 212.52 59.6523C212.605 60.0898 212.73 60.4727 212.895 60.8008V61H209.484C209.32 60.6562 209.195 60.2266 209.109 59.7109C209.031 59.1875 208.992 58.6641 208.992 58.1406ZM209.438 53.2773L209.461 55.1875H207.574C207.129 55.1875 206.742 55.2383 206.414 55.3398C206.086 55.4414 205.816 55.5859 205.605 55.7734C205.395 55.9531 205.238 56.1641 205.137 56.4062C205.043 56.6484 204.996 56.9141 204.996 57.2031C204.996 57.4922 205.062 57.7539 205.195 57.9883C205.328 58.2148 205.52 58.3945 205.77 58.5273C206.02 58.6523 206.312 58.7148 206.648 58.7148C207.156 58.7148 207.598 58.6133 207.973 58.4102C208.348 58.207 208.637 57.957 208.84 57.6602C209.051 57.3633 209.16 57.082 209.168 56.8164L210.059 58.2461C209.934 58.5664 209.762 58.8984 209.543 59.2422C209.332 59.5859 209.062 59.9102 208.734 60.2148C208.406 60.5117 208.012 60.7578 207.551 60.9531C207.09 61.1406 206.543 61.2344 205.91 61.2344C205.105 61.2344 204.375 61.0742 203.719 60.7539C203.07 60.4258 202.555 59.9766 202.172 59.4062C201.797 58.8281 201.609 58.1719 201.609 57.4375C201.609 56.7734 201.734 56.1836 201.984 55.668C202.234 55.1523 202.602 54.7188 203.086 54.3672C203.578 54.0078 204.191 53.7383 204.926 53.5586C205.66 53.3711 206.512 53.2773 207.48 53.2773H209.438ZM218.367 51.0859V61H214.992V48.3203H218.168L218.367 51.0859ZM222.188 48.2383L222.129 51.3672C221.965 51.3438 221.766 51.3242 221.531 51.3086C221.305 51.2852 221.098 51.2734 220.91 51.2734C220.434 51.2734 220.02 51.3359 219.668 51.4609C219.324 51.5781 219.035 51.7539 218.801 51.9883C218.574 52.2227 218.402 52.5078 218.285 52.8438C218.176 53.1797 218.113 53.5625 218.098 53.9922L217.418 53.7812C217.418 52.9609 217.5 52.207 217.664 51.5195C217.828 50.8242 218.066 50.2188 218.379 49.7031C218.699 49.1875 219.09 48.7891 219.551 48.5078C220.012 48.2266 220.539 48.0859 221.133 48.0859C221.32 48.0859 221.512 48.1016 221.707 48.1328C221.902 48.1562 222.062 48.1914 222.188 48.2383ZM227.344 48.3203V61H223.957V48.3203H227.344ZM223.746 45.0156C223.746 44.5234 223.918 44.1172 224.262 43.7969C224.605 43.4766 225.066 43.3164 225.645 43.3164C226.215 43.3164 226.672 43.4766 227.016 43.7969C227.367 44.1172 227.543 44.5234 227.543 45.0156C227.543 45.5078 227.367 45.9141 227.016 46.2344C226.672 46.5547 226.215 46.7148 225.645 46.7148C225.066 46.7148 224.605 46.5547 224.262 46.2344C223.918 45.9141 223.746 45.5078 223.746 45.0156ZM233.438 51.0273V61H230.062V48.3203H233.227L233.438 51.0273ZM232.945 54.2148H232.031C232.031 53.2773 232.152 52.4336 232.395 51.6836C232.637 50.9258 232.977 50.2812 233.414 49.75C233.852 49.2109 234.371 48.8008 234.973 48.5195C235.582 48.2305 236.262 48.0859 237.012 48.0859C237.605 48.0859 238.148 48.1719 238.641 48.3438C239.133 48.5156 239.555 48.7891 239.906 49.1641C240.266 49.5391 240.539 50.0352 240.727 50.6523C240.922 51.2695 241.02 52.0234 241.02 52.9141V61H237.621V52.9023C237.621 52.3398 237.543 51.9023 237.387 51.5898C237.23 51.2773 237 51.0586 236.695 50.9336C236.398 50.8008 236.031 50.7344 235.594 50.7344C235.141 50.7344 234.746 50.8242 234.41 51.0039C234.082 51.1836 233.809 51.4336 233.59 51.7539C233.379 52.0664 233.219 52.4336 233.109 52.8555C233 53.2773 232.945 53.7305 232.945 54.2148ZM251.613 48.3203H254.672V60.5781C254.672 61.7344 254.414 62.7148 253.898 63.5195C253.391 64.332 252.68 64.9453 251.766 65.3594C250.852 65.7812 249.789 65.9922 248.578 65.9922C248.047 65.9922 247.484 65.9219 246.891 65.7812C246.305 65.6406 245.742 65.4219 245.203 65.125C244.672 64.8281 244.227 64.4531 243.867 64L245.355 62.0078C245.746 62.4609 246.199 62.8125 246.715 63.0625C247.23 63.3203 247.801 63.4492 248.426 63.4492C249.035 63.4492 249.551 63.3359 249.973 63.1094C250.395 62.8906 250.719 62.5664 250.945 62.1367C251.172 61.7148 251.285 61.2031 251.285 60.6016V51.25L251.613 48.3203ZM243.082 54.8125V54.5664C243.082 53.5977 243.199 52.7188 243.434 51.9297C243.676 51.1328 244.016 50.4492 244.453 49.8789C244.898 49.3086 245.438 48.8672 246.07 48.5547C246.703 48.2422 247.418 48.0859 248.215 48.0859C249.059 48.0859 249.766 48.2422 250.336 48.5547C250.906 48.8672 251.375 49.3125 251.742 49.8906C252.109 50.4609 252.395 51.1367 252.598 51.918C252.809 52.6914 252.973 53.5391 253.09 54.4609V55C252.973 55.8828 252.797 56.7031 252.562 57.4609C252.328 58.2188 252.02 58.8828 251.637 59.4531C251.254 60.0156 250.777 60.4531 250.207 60.7656C249.645 61.0781 248.973 61.2344 248.191 61.2344C247.41 61.2344 246.703 61.0742 246.07 60.7539C245.445 60.4336 244.91 59.9844 244.465 59.4062C244.02 58.8281 243.676 58.1484 243.434 57.3672C243.199 56.5859 243.082 55.7344 243.082 54.8125ZM246.457 54.5664V54.8125C246.457 55.3359 246.508 55.8242 246.609 56.2773C246.711 56.7305 246.867 57.1328 247.078 57.4844C247.297 57.8281 247.566 58.0977 247.887 58.293C248.215 58.4805 248.602 58.5742 249.047 58.5742C249.664 58.5742 250.168 58.4453 250.559 58.1875C250.949 57.9219 251.242 57.5586 251.438 57.0977C251.633 56.6367 251.746 56.1055 251.777 55.5039V53.9688C251.762 53.4766 251.695 53.0352 251.578 52.6445C251.461 52.2461 251.297 51.9062 251.086 51.625C250.875 51.3438 250.602 51.125 250.266 50.9688C249.93 50.8125 249.531 50.7344 249.07 50.7344C248.625 50.7344 248.238 50.8359 247.91 51.0391C247.59 51.2344 247.32 51.5039 247.102 51.8477C246.891 52.1914 246.73 52.5977 246.621 53.0664C246.512 53.5273 246.457 54.0273 246.457 54.5664Z" fill="#888888"/>
<path d="M112.125 84.875V119H103.898V84.875H112.125ZM122.391 84.875V91.2266H93.8672V84.875H122.391ZM135.68 119.469C133.617 119.469 131.773 119.148 130.148 118.508C128.523 117.852 127.148 116.953 126.023 115.812C124.914 114.672 124.062 113.359 123.469 111.875C122.891 110.391 122.602 108.82 122.602 107.164V106.273C122.602 104.414 122.859 102.695 123.375 101.117C123.891 99.5234 124.656 98.1328 125.672 96.9453C126.688 95.7578 127.961 94.8359 129.492 94.1797C131.023 93.5078 132.805 93.1719 134.836 93.1719C136.633 93.1719 138.242 93.4609 139.664 94.0391C141.086 94.6172 142.289 95.4453 143.273 96.5234C144.273 97.6016 145.031 98.9062 145.547 100.438C146.078 101.969 146.344 103.688 146.344 105.594V108.805H125.625V103.859H138.633V103.25C138.648 102.406 138.5 101.688 138.188 101.094C137.891 100.5 137.453 100.047 136.875 99.7344C136.297 99.4219 135.594 99.2656 134.766 99.2656C133.906 99.2656 133.195 99.4531 132.633 99.8281C132.086 100.203 131.656 100.719 131.344 101.375C131.047 102.016 130.836 102.758 130.711 103.602C130.586 104.445 130.523 105.336 130.523 106.273V107.164C130.523 108.102 130.648 108.953 130.898 109.719C131.164 110.484 131.539 111.141 132.023 111.688C132.523 112.219 133.117 112.633 133.805 112.93C134.508 113.227 135.305 113.375 136.195 113.375C137.273 113.375 138.336 113.172 139.383 112.766C140.43 112.359 141.328 111.688 142.078 110.75L145.664 115.016C145.148 115.75 144.414 116.461 143.461 117.148C142.523 117.836 141.398 118.398 140.086 118.836C138.773 119.258 137.305 119.469 135.68 119.469ZM160.266 113.375C161 113.375 161.625 113.242 162.141 112.977C162.672 112.695 163.07 112.305 163.336 111.805C163.617 111.289 163.75 110.672 163.734 109.953H171.164C171.18 111.859 170.711 113.531 169.758 114.969C168.82 116.391 167.539 117.5 165.914 118.297C164.305 119.078 162.484 119.469 160.453 119.469C158.469 119.469 156.734 119.148 155.25 118.508C153.766 117.852 152.523 116.945 151.523 115.789C150.539 114.617 149.797 113.25 149.297 111.688C148.812 110.125 148.57 108.43 148.57 106.602V106.062C148.57 104.234 148.812 102.539 149.297 100.977C149.797 99.3984 150.539 98.0312 151.523 96.875C152.523 95.7031 153.758 94.7969 155.227 94.1562C156.711 93.5 158.438 93.1719 160.406 93.1719C162.516 93.1719 164.375 93.5703 165.984 94.3672C167.609 95.1641 168.883 96.3203 169.805 97.8359C170.727 99.3516 171.18 101.188 171.164 103.344H163.734C163.75 102.578 163.633 101.891 163.383 101.281C163.133 100.672 162.742 100.188 162.211 99.8281C161.695 99.4531 161.031 99.2656 160.219 99.2656C159.406 99.2656 158.75 99.4453 158.25 99.8047C157.75 100.164 157.367 100.664 157.102 101.305C156.852 101.93 156.68 102.648 156.586 103.461C156.508 104.273 156.469 105.141 156.469 106.062V106.602C156.469 107.539 156.508 108.422 156.586 109.25C156.68 110.062 156.859 110.781 157.125 111.406C157.391 112.016 157.773 112.5 158.273 112.859C158.773 113.203 159.438 113.375 160.266 113.375ZM182.273 83V119H174.375V83H182.273ZM181.336 105.453L179.484 105.5C179.484 103.719 179.703 102.078 180.141 100.578C180.578 99.0781 181.203 97.7734 182.016 96.6641C182.828 95.5547 183.805 94.6953 184.945 94.0859C186.086 93.4766 187.352 93.1719 188.742 93.1719C189.992 93.1719 191.133 93.3516 192.164 93.7109C193.211 94.0703 194.109 94.6484 194.859 95.4453C195.625 96.2422 196.211 97.2812 196.617 98.5625C197.039 99.8438 197.25 101.406 197.25 103.25V119H189.305V103.203C189.305 102.172 189.156 101.375 188.859 100.812C188.578 100.234 188.172 99.8359 187.641 99.6172C187.109 99.3828 186.461 99.2656 185.695 99.2656C184.773 99.2656 184.023 99.4219 183.445 99.7344C182.867 100.047 182.422 100.484 182.109 101.047C181.812 101.594 181.609 102.242 181.5 102.992C181.391 103.742 181.336 104.562 181.336 105.453ZM231.539 109.93C231.539 109.398 231.461 108.922 231.305 108.5C231.148 108.062 230.859 107.656 230.438 107.281C230.016 106.906 229.406 106.531 228.609 106.156C227.828 105.766 226.797 105.359 225.516 104.938C224.016 104.438 222.57 103.875 221.18 103.25C219.789 102.609 218.547 101.867 217.453 101.023C216.359 100.164 215.492 99.1641 214.852 98.0234C214.211 96.8672 213.891 95.5234 213.891 93.9922C213.891 92.5234 214.219 91.2031 214.875 90.0312C215.531 88.8438 216.445 87.8359 217.617 87.0078C218.805 86.1641 220.195 85.5234 221.789 85.0859C223.383 84.6328 225.125 84.4062 227.016 84.4062C229.516 84.4062 231.719 84.8438 233.625 85.7188C235.547 86.5781 237.047 87.8047 238.125 89.3984C239.219 90.9766 239.766 92.8438 239.766 95H231.586C231.586 94.1406 231.406 93.3828 231.047 92.7266C230.703 92.0703 230.18 91.5547 229.477 91.1797C228.773 90.8047 227.891 90.6172 226.828 90.6172C225.797 90.6172 224.93 90.7734 224.227 91.0859C223.523 91.3984 222.992 91.8203 222.633 92.3516C222.273 92.8672 222.094 93.4375 222.094 94.0625C222.094 94.5781 222.234 95.0469 222.516 95.4688C222.812 95.875 223.227 96.2578 223.758 96.6172C224.305 96.9766 224.961 97.3203 225.727 97.6484C226.508 97.9766 227.383 98.2969 228.352 98.6094C230.164 99.1875 231.773 99.8359 233.18 100.555C234.602 101.258 235.797 102.062 236.766 102.969C237.75 103.859 238.492 104.875 238.992 106.016C239.508 107.156 239.766 108.445 239.766 109.883C239.766 111.414 239.469 112.773 238.875 113.961C238.281 115.148 237.43 116.156 236.32 116.984C235.211 117.797 233.883 118.414 232.336 118.836C230.789 119.258 229.062 119.469 227.156 119.469C225.406 119.469 223.68 119.25 221.977 118.812C220.289 118.359 218.758 117.672 217.383 116.75C216.008 115.812 214.906 114.617 214.078 113.164C213.266 111.695 212.859 109.953 212.859 107.938H221.109C221.109 108.938 221.242 109.781 221.508 110.469C221.773 111.156 222.164 111.711 222.68 112.133C223.195 112.539 223.828 112.836 224.578 113.023C225.328 113.195 226.188 113.281 227.156 113.281C228.203 113.281 229.047 113.133 229.688 112.836C230.328 112.523 230.797 112.117 231.094 111.617C231.391 111.102 231.539 110.539 231.539 109.93ZM256.992 93.6406V99.125H241.711V93.6406H256.992ZM244.922 87.3359H252.82V110.727C252.82 111.398 252.898 111.922 253.055 112.297C253.211 112.656 253.477 112.914 253.852 113.07C254.242 113.211 254.758 113.281 255.398 113.281C255.852 113.281 256.227 113.273 256.523 113.258C256.82 113.227 257.102 113.188 257.367 113.141V118.789C256.695 119.008 255.992 119.172 255.258 119.281C254.523 119.406 253.742 119.469 252.914 119.469C251.227 119.469 249.781 119.203 248.578 118.672C247.391 118.141 246.484 117.305 245.859 116.164C245.234 115.023 244.922 113.539 244.922 111.711V87.3359ZM273.305 112.625V102.172C273.305 101.453 273.203 100.836 273 100.32C272.797 99.8047 272.477 99.4062 272.039 99.125C271.602 98.8281 271.016 98.6797 270.281 98.6797C269.688 98.6797 269.18 98.7812 268.758 98.9844C268.336 99.1875 268.016 99.4922 267.797 99.8984C267.578 100.305 267.469 100.82 267.469 101.445H259.57C259.57 100.273 259.828 99.1875 260.344 98.1875C260.875 97.1719 261.625 96.2891 262.594 95.5391C263.578 94.7891 264.75 94.2109 266.109 93.8047C267.484 93.3828 269.016 93.1719 270.703 93.1719C272.719 93.1719 274.516 93.5078 276.094 94.1797C277.688 94.8516 278.945 95.8594 279.867 97.2031C280.789 98.5312 281.25 100.203 281.25 102.219V112.602C281.25 114.258 281.344 115.516 281.531 116.375C281.719 117.219 281.984 117.961 282.328 118.602V119H274.406C274.031 118.219 273.75 117.266 273.562 116.141C273.391 115 273.305 113.828 273.305 112.625ZM274.266 103.508L274.312 107.727H270.82C270.086 107.727 269.461 107.828 268.945 108.031C268.445 108.234 268.039 108.516 267.727 108.875C267.43 109.219 267.211 109.609 267.07 110.047C266.945 110.484 266.883 110.945 266.883 111.43C266.883 111.898 266.992 112.32 267.211 112.695C267.445 113.055 267.758 113.336 268.148 113.539C268.539 113.742 268.977 113.844 269.461 113.844C270.336 113.844 271.078 113.68 271.688 113.352C272.312 113.008 272.789 112.594 273.117 112.109C273.445 111.625 273.609 111.172 273.609 110.75L275.344 113.984C275.031 114.609 274.672 115.242 274.266 115.883C273.875 116.523 273.383 117.117 272.789 117.664C272.211 118.195 271.5 118.633 270.656 118.977C269.812 119.305 268.789 119.469 267.586 119.469C266.023 119.469 264.586 119.148 263.273 118.508C261.977 117.867 260.938 116.977 260.156 115.836C259.375 114.68 258.984 113.352 258.984 111.852C258.984 110.539 259.219 109.367 259.688 108.336C260.172 107.305 260.898 106.43 261.867 105.711C262.836 104.992 264.07 104.445 265.57 104.07C267.07 103.695 268.836 103.508 270.867 103.508H274.266ZM296.344 113.375C297.078 113.375 297.703 113.242 298.219 112.977C298.75 112.695 299.148 112.305 299.414 111.805C299.695 111.289 299.828 110.672 299.812 109.953H307.242C307.258 111.859 306.789 113.531 305.836 114.969C304.898 116.391 303.617 117.5 301.992 118.297C300.383 119.078 298.562 119.469 296.531 119.469C294.547 119.469 292.812 119.148 291.328 118.508C289.844 117.852 288.602 116.945 287.602 115.789C286.617 114.617 285.875 113.25 285.375 111.688C284.891 110.125 284.648 108.43 284.648 106.602V106.062C284.648 104.234 284.891 102.539 285.375 100.977C285.875 99.3984 286.617 98.0312 287.602 96.875C288.602 95.7031 289.836 94.7969 291.305 94.1562C292.789 93.5 294.516 93.1719 296.484 93.1719C298.594 93.1719 300.453 93.5703 302.062 94.3672C303.688 95.1641 304.961 96.3203 305.883 97.8359C306.805 99.3516 307.258 101.188 307.242 103.344H299.812C299.828 102.578 299.711 101.891 299.461 101.281C299.211 100.672 298.82 100.188 298.289 99.8281C297.773 99.4531 297.109 99.2656 296.297 99.2656C295.484 99.2656 294.828 99.4453 294.328 99.8047C293.828 100.164 293.445 100.664 293.18 101.305C292.93 101.93 292.758 102.648 292.664 103.461C292.586 104.273 292.547 105.141 292.547 106.062V106.602C292.547 107.539 292.586 108.422 292.664 109.25C292.758 110.062 292.938 110.781 293.203 111.406C293.469 112.016 293.852 112.5 294.352 112.859C294.852 113.203 295.516 113.375 296.344 113.375ZM318.586 82.9766V119H310.688V82.9766H318.586ZM334.805 93.6406L323.789 106.555L318.023 112.32L314.578 107.305L319.383 101.047L325.336 93.6406H334.805ZM326.344 119L319.57 107.445L325.406 103.297L335.391 119H326.344Z" fill="black"/>
<path d="M1134 0H1348C1356.28 0 1363 6.71573 1363 15V148C1363 156.284 1356.28 163 1348 163H1134V0Z" fill="#30C5A6"/>
<path fill-rule="evenodd" clip-rule="evenodd" d="M1218.75 53C1218.62 53 1218.49 53.0527 1218.4 53.1464C1218.3 53.2402 1218.25 53.3674 1218.25 53.5V109.5C1218.25 109.633 1218.3 109.76 1218.4 109.854C1218.49 109.947 1218.62 110 1218.75 110H1278.25C1278.38 110 1278.51 109.947 1278.6 109.854C1278.7 109.76 1278.75 109.633 1278.75 109.5V64C1278.75 63.8674 1278.7 63.7402 1278.6 63.6464C1278.51 63.5527 1278.38 63.5 1278.25 63.5H1248.5C1247.61 63.5 1246.77 63.1045 1246.2 62.4206L1238.34 53H1218.75ZM1214.15 48.9038C1215.37 47.6848 1217.03 47 1218.75 47H1239.75C1240.64 47 1241.48 47.3955 1242.05 48.0794L1249.91 57.5H1278.25C1279.97 57.5 1281.63 58.1848 1282.85 59.4038C1284.07 60.6228 1284.75 62.2761 1284.75 64V109.5C1284.75 111.224 1284.07 112.877 1282.85 114.096C1281.63 115.315 1279.97 116 1278.25 116H1218.75C1217.03 116 1215.37 115.315 1214.15 114.096C1212.93 112.877 1212.25 111.224 1212.25 109.5V53.5C1212.25 51.7761 1212.93 50.1228 1214.15 48.9038Z" fill="white"/>
<path fill-rule="evenodd" clip-rule="evenodd" d="M1243.97 75.5251C1245.34 76.892 1245.34 79.108 1243.97 80.4749L1237.7 86.75L1243.97 93.0251C1245.34 94.392 1245.34 96.608 1243.97 97.9749C1242.61 99.3417 1240.39 99.3417 1239.03 97.9749L1230.28 89.2249C1228.91 87.858 1228.91 85.642 1230.28 84.2751L1239.03 75.5251C1240.39 74.1583 1242.61 74.1583 1243.97 75.5251Z" fill="white"/>
<path fill-rule="evenodd" clip-rule="evenodd" d="M1252.28 97.9749C1250.91 96.608 1250.91 94.392 1252.28 93.0251L1258.55 86.75L1252.28 80.4749C1250.91 79.108 1250.91 76.892 1252.28 75.5251C1253.64 74.1583 1255.86 74.1583 1257.22 75.5251L1265.97 84.2751C1267.34 85.642 1267.34 87.858 1265.97 89.2249L1257.22 97.9749C1255.86 99.3417 1253.64 99.3417 1252.28 97.9749Z" fill="white"/>
</svg>
