<svg width="1363" height="163" viewBox="0 0 1363 163" fill="none" xmlns="http://www.w3.org/2000/svg">
<path d="M0 15C0 6.71573 6.71573 0 15 0H37V163H15C6.71573 163 0 156.284 0 148V15Z" fill="#30C5A6"/>
<rect width="1097" height="163" transform="translate(37)" fill="#F0F0F0"/>
<path d="M101.906 53.9219L94.3945 51.2383V48.0859L104.602 52.375V54.6367L101.906 53.9219ZM94.3945 56.1719L101.918 53.4297L104.602 52.7852V55.0352L94.3945 59.3242V56.1719ZM119.578 53.5117H115.195L115.172 51.0977H118.852C119.5 51.0977 120.031 51.0156 120.445 50.8516C120.859 50.6797 121.168 50.4336 121.371 50.1133C121.582 49.7852 121.688 49.3867 121.688 48.918C121.688 48.3867 121.586 47.957 121.383 47.6289C121.188 47.3008 120.879 47.0625 120.457 46.9141C120.043 46.7656 119.508 46.6914 118.852 46.6914H116.414V61H112.898V43.9375H118.852C119.844 43.9375 120.73 44.0312 121.512 44.2188C122.301 44.4062 122.969 44.6914 123.516 45.0742C124.062 45.457 124.48 45.9414 124.77 46.5273C125.059 47.1055 125.203 47.793 125.203 48.5898C125.203 49.293 125.043 49.9414 124.723 50.5352C124.41 51.1289 123.914 51.6133 123.234 51.9883C122.562 52.3633 121.684 52.5703 120.598 52.6094L119.578 53.5117ZM119.426 61H114.234L115.605 58.2578H119.426C120.043 58.2578 120.547 58.1602 120.938 57.9648C121.328 57.7617 121.617 57.4883 121.805 57.1445C121.992 56.8008 122.086 56.4062 122.086 55.9609C122.086 55.4609 122 55.0273 121.828 54.6602C121.664 54.293 121.398 54.0117 121.031 53.8164C120.664 53.6133 120.18 53.5117 119.578 53.5117H116.191L116.215 51.0977H120.434L121.242 52.0469C122.281 52.0312 123.117 52.2148 123.75 52.5977C124.391 52.9727 124.855 53.4609 125.145 54.0625C125.441 54.6641 125.59 55.3086 125.59 55.9961C125.59 57.0898 125.352 58.0117 124.875 58.7617C124.398 59.5039 123.699 60.0625 122.777 60.4375C121.863 60.8125 120.746 61 119.426 61ZM127.477 54.7891V54.543C127.477 53.6133 127.609 52.7578 127.875 51.9766C128.141 51.1875 128.527 50.5039 129.035 49.9258C129.543 49.3477 130.168 48.8984 130.91 48.5781C131.652 48.25 132.504 48.0859 133.465 48.0859C134.426 48.0859 135.281 48.25 136.031 48.5781C136.781 48.8984 137.41 49.3477 137.918 49.9258C138.434 50.5039 138.824 51.1875 139.09 51.9766C139.355 52.7578 139.488 53.6133 139.488 54.543V54.7891C139.488 55.7109 139.355 56.5664 139.09 57.3555C138.824 58.1367 138.434 58.8203 137.918 59.4062C137.41 59.9844 136.785 60.4336 136.043 60.7539C135.301 61.0742 134.449 61.2344 133.488 61.2344C132.527 61.2344 131.672 61.0742 130.922 60.7539C130.18 60.4336 129.551 59.9844 129.035 59.4062C128.527 58.8203 128.141 58.1367 127.875 57.3555C127.609 56.5664 127.477 55.7109 127.477 54.7891ZM130.852 54.543V54.7891C130.852 55.3203 130.898 55.8164 130.992 56.2773C131.086 56.7383 131.234 57.1445 131.438 57.4961C131.648 57.8398 131.922 58.1094 132.258 58.3047C132.594 58.5 133.004 58.5977 133.488 58.5977C133.957 58.5977 134.359 58.5 134.695 58.3047C135.031 58.1094 135.301 57.8398 135.504 57.4961C135.707 57.1445 135.855 56.7383 135.949 56.2773C136.051 55.8164 136.102 55.3203 136.102 54.7891V54.543C136.102 54.0273 136.051 53.543 135.949 53.0898C135.855 52.6289 135.703 52.2227 135.492 51.8711C135.289 51.5117 135.02 51.2305 134.684 51.0273C134.348 50.8242 133.941 50.7227 133.465 50.7227C132.988 50.7227 132.582 50.8242 132.246 51.0273C131.918 51.2305 131.648 51.5117 131.438 51.8711C131.234 52.2227 131.086 52.6289 130.992 53.0898C130.898 53.543 130.852 54.0273 130.852 54.543ZM141.023 54.7891V54.543C141.023 53.6133 141.156 52.7578 141.422 51.9766C141.688 51.1875 142.074 50.5039 142.582 49.9258C143.09 49.3477 143.715 48.8984 144.457 48.5781C145.199 48.25 146.051 48.0859 147.012 48.0859C147.973 48.0859 148.828 48.25 149.578 48.5781C150.328 48.8984 150.957 49.3477 151.465 49.9258C151.98 50.5039 152.371 51.1875 152.637 51.9766C152.902 52.7578 153.035 53.6133 153.035 54.543V54.7891C153.035 55.7109 152.902 56.5664 152.637 57.3555C152.371 58.1367 151.98 58.8203 151.465 59.4062C150.957 59.9844 150.332 60.4336 149.59 60.7539C148.848 61.0742 147.996 61.2344 147.035 61.2344C146.074 61.2344 145.219 61.0742 144.469 60.7539C143.727 60.4336 143.098 59.9844 142.582 59.4062C142.074 58.8203 141.688 58.1367 141.422 57.3555C141.156 56.5664 141.023 55.7109 141.023 54.7891ZM144.398 54.543V54.7891C144.398 55.3203 144.445 55.8164 144.539 56.2773C144.633 56.7383 144.781 57.1445 144.984 57.4961C145.195 57.8398 145.469 58.1094 145.805 58.3047C146.141 58.5 146.551 58.5977 147.035 58.5977C147.504 58.5977 147.906 58.5 148.242 58.3047C148.578 58.1094 148.848 57.8398 149.051 57.4961C149.254 57.1445 149.402 56.7383 149.496 56.2773C149.598 55.8164 149.648 55.3203 149.648 54.7891V54.543C149.648 54.0273 149.598 53.543 149.496 53.0898C149.402 52.6289 149.25 52.2227 149.039 51.8711C148.836 51.5117 148.566 51.2305 148.23 51.0273C147.895 50.8242 147.488 50.7227 147.012 50.7227C146.535 50.7227 146.129 50.8242 145.793 51.0273C145.465 51.2305 145.195 51.5117 144.984 51.8711C144.781 52.2227 144.633 52.6289 144.539 53.0898C144.445 53.543 144.398 54.0273 144.398 54.543ZM158.484 42.9883V61H155.109V42.9883H158.484ZM166.477 48.3203L160.969 54.6016L158.016 57.5898L156.785 55.1523L159.129 52.1758L162.422 48.3203H166.477ZM162.973 61L159.223 55.1406L161.555 53.1016L166.863 61H162.973ZM183 56.5352C183 56.2305 182.953 55.957 182.859 55.7148C182.773 55.4648 182.609 55.2383 182.367 55.0352C182.125 54.8242 181.785 54.6172 181.348 54.4141C180.91 54.2109 180.344 54 179.648 53.7812C178.875 53.5312 178.141 53.25 177.445 52.9375C176.758 52.625 176.148 52.2617 175.617 51.8477C175.094 51.4258 174.68 50.9375 174.375 50.3828C174.078 49.8281 173.93 49.1836 173.93 48.4492C173.93 47.7383 174.086 47.0938 174.398 46.5156C174.711 45.9297 175.148 45.4297 175.711 45.0156C176.273 44.5938 176.938 44.2695 177.703 44.043C178.477 43.8164 179.324 43.7031 180.246 43.7031C181.504 43.7031 182.602 43.9297 183.539 44.3828C184.477 44.8359 185.203 45.457 185.719 46.2461C186.242 47.0352 186.504 47.9375 186.504 48.9531H183.012C183.012 48.4531 182.906 48.0156 182.695 47.6406C182.492 47.2578 182.18 46.957 181.758 46.7383C181.344 46.5195 180.82 46.4102 180.188 46.4102C179.578 46.4102 179.07 46.5039 178.664 46.6914C178.258 46.8711 177.953 47.1172 177.75 47.4297C177.547 47.7344 177.445 48.0781 177.445 48.4609C177.445 48.75 177.516 49.0117 177.656 49.2461C177.805 49.4805 178.023 49.6992 178.312 49.9023C178.602 50.1055 178.957 50.2969 179.379 50.4766C179.801 50.6562 180.289 50.832 180.844 51.0039C181.773 51.2852 182.59 51.6016 183.293 51.9531C184.004 52.3047 184.598 52.6992 185.074 53.1367C185.551 53.5742 185.91 54.0703 186.152 54.625C186.395 55.1797 186.516 55.8086 186.516 56.5117C186.516 57.2539 186.371 57.918 186.082 58.5039C185.793 59.0898 185.375 59.5859 184.828 59.9922C184.281 60.3984 183.629 60.707 182.871 60.918C182.113 61.1289 181.266 61.2344 180.328 61.2344C179.484 61.2344 178.652 61.125 177.832 60.9062C177.012 60.6797 176.266 60.3398 175.594 59.8867C174.93 59.4336 174.398 58.8555 174 58.1523C173.602 57.4492 173.402 56.6172 173.402 55.6562H176.93C176.93 56.1875 177.012 56.6367 177.176 57.0039C177.34 57.3711 177.57 57.668 177.867 57.8945C178.172 58.1211 178.531 58.2852 178.945 58.3867C179.367 58.4883 179.828 58.5391 180.328 58.5391C180.938 58.5391 181.438 58.4531 181.828 58.2812C182.227 58.1094 182.52 57.8711 182.707 57.5664C182.902 57.2617 183 56.918 183 56.5352ZM191.988 43V61H188.613V43H191.988ZM191.508 54.2148H190.582C190.59 53.332 190.707 52.5195 190.934 51.7773C191.16 51.0273 191.484 50.3789 191.906 49.832C192.328 49.2773 192.832 48.8477 193.418 48.543C194.012 48.2383 194.668 48.0859 195.387 48.0859C196.012 48.0859 196.578 48.1758 197.086 48.3555C197.602 48.5273 198.043 48.8086 198.41 49.1992C198.785 49.582 199.074 50.0859 199.277 50.7109C199.48 51.3359 199.582 52.0938 199.582 52.9844V61H196.184V52.9609C196.184 52.3984 196.102 51.957 195.938 51.6367C195.781 51.3086 195.551 51.0781 195.246 50.9453C194.949 50.8047 194.582 50.7344 194.145 50.7344C193.66 50.7344 193.246 50.8242 192.902 51.0039C192.566 51.1836 192.297 51.4336 192.094 51.7539C191.891 52.0664 191.742 52.4336 191.648 52.8555C191.555 53.2773 191.508 53.7305 191.508 54.2148ZM208.992 58.1406V52.4922C208.992 52.0859 208.926 51.7383 208.793 51.4492C208.66 51.1523 208.453 50.9219 208.172 50.7578C207.898 50.5938 207.543 50.5117 207.105 50.5117C206.73 50.5117 206.406 50.5781 206.133 50.7109C205.859 50.8359 205.648 51.0195 205.5 51.2617C205.352 51.4961 205.277 51.7734 205.277 52.0938H201.902C201.902 51.5547 202.027 51.043 202.277 50.5586C202.527 50.0742 202.891 49.6484 203.367 49.2812C203.844 48.9062 204.41 48.6133 205.066 48.4023C205.73 48.1914 206.473 48.0859 207.293 48.0859C208.277 48.0859 209.152 48.25 209.918 48.5781C210.684 48.9062 211.285 49.3984 211.723 50.0547C212.168 50.7109 212.391 51.5312 212.391 52.5156V57.9414C212.391 58.6367 212.434 59.207 212.52 59.6523C212.605 60.0898 212.73 60.4727 212.895 60.8008V61H209.484C209.32 60.6562 209.195 60.2266 209.109 59.7109C209.031 59.1875 208.992 58.6641 208.992 58.1406ZM209.438 53.2773L209.461 55.1875H207.574C207.129 55.1875 206.742 55.2383 206.414 55.3398C206.086 55.4414 205.816 55.5859 205.605 55.7734C205.395 55.9531 205.238 56.1641 205.137 56.4062C205.043 56.6484 204.996 56.9141 204.996 57.2031C204.996 57.4922 205.062 57.7539 205.195 57.9883C205.328 58.2148 205.52 58.3945 205.77 58.5273C206.02 58.6523 206.312 58.7148 206.648 58.7148C207.156 58.7148 207.598 58.6133 207.973 58.4102C208.348 58.207 208.637 57.957 208.84 57.6602C209.051 57.3633 209.16 57.082 209.168 56.8164L210.059 58.2461C209.934 58.5664 209.762 58.8984 209.543 59.2422C209.332 59.5859 209.062 59.9102 208.734 60.2148C208.406 60.5117 208.012 60.7578 207.551 60.9531C207.09 61.1406 206.543 61.2344 205.91 61.2344C205.105 61.2344 204.375 61.0742 203.719 60.7539C203.07 60.4258 202.555 59.9766 202.172 59.4062C201.797 58.8281 201.609 58.1719 201.609 57.4375C201.609 56.7734 201.734 56.1836 201.984 55.668C202.234 55.1523 202.602 54.7188 203.086 54.3672C203.578 54.0078 204.191 53.7383 204.926 53.5586C205.66 53.3711 206.512 53.2773 207.48 53.2773H209.438ZM218.367 51.0859V61H214.992V48.3203H218.168L218.367 51.0859ZM222.188 48.2383L222.129 51.3672C221.965 51.3438 221.766 51.3242 221.531 51.3086C221.305 51.2852 221.098 51.2734 220.91 51.2734C220.434 51.2734 220.02 51.3359 219.668 51.4609C219.324 51.5781 219.035 51.7539 218.801 51.9883C218.574 52.2227 218.402 52.5078 218.285 52.8438C218.176 53.1797 218.113 53.5625 218.098 53.9922L217.418 53.7812C217.418 52.9609 217.5 52.207 217.664 51.5195C217.828 50.8242 218.066 50.2188 218.379 49.7031C218.699 49.1875 219.09 48.7891 219.551 48.5078C220.012 48.2266 220.539 48.0859 221.133 48.0859C221.32 48.0859 221.512 48.1016 221.707 48.1328C221.902 48.1562 222.062 48.1914 222.188 48.2383ZM227.344 48.3203V61H223.957V48.3203H227.344ZM223.746 45.0156C223.746 44.5234 223.918 44.1172 224.262 43.7969C224.605 43.4766 225.066 43.3164 225.645 43.3164C226.215 43.3164 226.672 43.4766 227.016 43.7969C227.367 44.1172 227.543 44.5234 227.543 45.0156C227.543 45.5078 227.367 45.9141 227.016 46.2344C226.672 46.5547 226.215 46.7148 225.645 46.7148C225.066 46.7148 224.605 46.5547 224.262 46.2344C223.918 45.9141 223.746 45.5078 223.746 45.0156ZM233.438 51.0273V61H230.062V48.3203H233.227L233.438 51.0273ZM232.945 54.2148H232.031C232.031 53.2773 232.152 52.4336 232.395 51.6836C232.637 50.9258 232.977 50.2812 233.414 49.75C233.852 49.2109 234.371 48.8008 234.973 48.5195C235.582 48.2305 236.262 48.0859 237.012 48.0859C237.605 48.0859 238.148 48.1719 238.641 48.3438C239.133 48.5156 239.555 48.7891 239.906 49.1641C240.266 49.5391 240.539 50.0352 240.727 50.6523C240.922 51.2695 241.02 52.0234 241.02 52.9141V61H237.621V52.9023C237.621 52.3398 237.543 51.9023 237.387 51.5898C237.23 51.2773 237 51.0586 236.695 50.9336C236.398 50.8008 236.031 50.7344 235.594 50.7344C235.141 50.7344 234.746 50.8242 234.41 51.0039C234.082 51.1836 233.809 51.4336 233.59 51.7539C233.379 52.0664 233.219 52.4336 233.109 52.8555C233 53.2773 232.945 53.7305 232.945 54.2148ZM251.613 48.3203H254.672V60.5781C254.672 61.7344 254.414 62.7148 253.898 63.5195C253.391 64.332 252.68 64.9453 251.766 65.3594C250.852 65.7812 249.789 65.9922 248.578 65.9922C248.047 65.9922 247.484 65.9219 246.891 65.7812C246.305 65.6406 245.742 65.4219 245.203 65.125C244.672 64.8281 244.227 64.4531 243.867 64L245.355 62.0078C245.746 62.4609 246.199 62.8125 246.715 63.0625C247.23 63.3203 247.801 63.4492 248.426 63.4492C249.035 63.4492 249.551 63.3359 249.973 63.1094C250.395 62.8906 250.719 62.5664 250.945 62.1367C251.172 61.7148 251.285 61.2031 251.285 60.6016V51.25L251.613 48.3203ZM243.082 54.8125V54.5664C243.082 53.5977 243.199 52.7188 243.434 51.9297C243.676 51.1328 244.016 50.4492 244.453 49.8789C244.898 49.3086 245.438 48.8672 246.07 48.5547C246.703 48.2422 247.418 48.0859 248.215 48.0859C249.059 48.0859 249.766 48.2422 250.336 48.5547C250.906 48.8672 251.375 49.3125 251.742 49.8906C252.109 50.4609 252.395 51.1367 252.598 51.918C252.809 52.6914 252.973 53.5391 253.09 54.4609V55C252.973 55.8828 252.797 56.7031 252.562 57.4609C252.328 58.2188 252.02 58.8828 251.637 59.4531C251.254 60.0156 250.777 60.4531 250.207 60.7656C249.645 61.0781 248.973 61.2344 248.191 61.2344C247.41 61.2344 246.703 61.0742 246.07 60.7539C245.445 60.4336 244.91 59.9844 244.465 59.4062C244.02 58.8281 243.676 58.1484 243.434 57.3672C243.199 56.5859 243.082 55.7344 243.082 54.8125ZM246.457 54.5664V54.8125C246.457 55.3359 246.508 55.8242 246.609 56.2773C246.711 56.7305 246.867 57.1328 247.078 57.4844C247.297 57.8281 247.566 58.0977 247.887 58.293C248.215 58.4805 248.602 58.5742 249.047 58.5742C249.664 58.5742 250.168 58.4453 250.559 58.1875C250.949 57.9219 251.242 57.5586 251.438 57.0977C251.633 56.6367 251.746 56.1055 251.777 55.5039V53.9688C251.762 53.4766 251.695 53.0352 251.578 52.6445C251.461 52.2461 251.297 51.9062 251.086 51.625C250.875 51.3438 250.602 51.125 250.266 50.9688C249.93 50.8125 249.531 50.7344 249.07 50.7344C248.625 50.7344 248.238 50.8359 247.91 51.0391C247.59 51.2344 247.32 51.5039 247.102 51.8477C246.891 52.1914 246.73 52.5977 246.621 53.0664C246.512 53.5273 246.457 54.0273 246.457 54.5664Z" fill="#888888"/>
<path d="M118.594 98.4219V104.75H101.086V98.4219H118.594ZM103.828 84.875V119H95.6016V84.875H103.828ZM124.125 84.875V119H115.922V84.875H124.125ZM127.992 106.578V106.086C127.992 104.227 128.258 102.516 128.789 100.953C129.32 99.375 130.102 98.0078 131.133 96.8516C132.164 95.6953 133.438 94.7969 134.953 94.1562C136.469 93.5 138.219 93.1719 140.203 93.1719C142.203 93.1719 143.961 93.5 145.477 94.1562C147.008 94.7969 148.289 95.6953 149.32 96.8516C150.352 98.0078 151.133 99.375 151.664 100.953C152.195 102.516 152.461 104.227 152.461 106.086V106.578C152.461 108.422 152.195 110.133 151.664 111.711C151.133 113.273 150.352 114.641 149.32 115.812C148.289 116.969 147.016 117.867 145.5 118.508C143.984 119.148 142.234 119.469 140.25 119.469C138.266 119.469 136.508 119.148 134.977 118.508C133.445 117.867 132.164 116.969 131.133 115.812C130.102 114.641 129.32 113.273 128.789 111.711C128.258 110.133 127.992 108.422 127.992 106.578ZM135.891 106.086V106.578C135.891 107.531 135.961 108.422 136.102 109.25C136.242 110.078 136.477 110.805 136.805 111.43C137.133 112.039 137.578 112.516 138.141 112.859C138.703 113.203 139.406 113.375 140.25 113.375C141.078 113.375 141.766 113.203 142.312 112.859C142.875 112.516 143.32 112.039 143.648 111.43C143.977 110.805 144.211 110.078 144.352 109.25C144.492 108.422 144.562 107.531 144.562 106.578V106.086C144.562 105.164 144.492 104.297 144.352 103.484C144.211 102.656 143.977 101.93 143.648 101.305C143.32 100.664 142.875 100.164 142.312 99.8047C141.75 99.4453 141.047 99.2656 140.203 99.2656C139.375 99.2656 138.68 99.4453 138.117 99.8047C137.57 100.164 137.133 100.664 136.805 101.305C136.477 101.93 136.242 102.656 136.102 103.484C135.961 104.297 135.891 105.164 135.891 106.086ZM163.688 111.453L168.375 93.6406H173.32L171.562 102.57L166.922 119H162.961L163.688 111.453ZM161.836 93.6406L164.742 111.312L165.07 119H160.266L154.266 93.6406H161.836ZM177.492 110.938L180.422 93.6406H187.992L182.039 119H177.234L177.492 110.938ZM173.883 93.6406L178.617 111.406L179.344 119H175.336L170.789 102.617L169.102 93.6406H173.883ZM218.297 84.875V119H210.07V84.875H218.297ZM228.562 84.875V91.2266H200.039V84.875H228.562ZM225.773 106.578V106.086C225.773 104.227 226.039 102.516 226.57 100.953C227.102 99.375 227.883 98.0078 228.914 96.8516C229.945 95.6953 231.219 94.7969 232.734 94.1562C234.25 93.5 236 93.1719 237.984 93.1719C239.984 93.1719 241.742 93.5 243.258 94.1562C244.789 94.7969 246.07 95.6953 247.102 96.8516C248.133 98.0078 248.914 99.375 249.445 100.953C249.977 102.516 250.242 104.227 250.242 106.086V106.578C250.242 108.422 249.977 110.133 249.445 111.711C248.914 113.273 248.133 114.641 247.102 115.812C246.07 116.969 244.797 117.867 243.281 118.508C241.766 119.148 240.016 119.469 238.031 119.469C236.047 119.469 234.289 119.148 232.758 118.508C231.227 117.867 229.945 116.969 228.914 115.812C227.883 114.641 227.102 113.273 226.57 111.711C226.039 110.133 225.773 108.422 225.773 106.578ZM233.672 106.086V106.578C233.672 107.531 233.742 108.422 233.883 109.25C234.023 110.078 234.258 110.805 234.586 111.43C234.914 112.039 235.359 112.516 235.922 112.859C236.484 113.203 237.188 113.375 238.031 113.375C238.859 113.375 239.547 113.203 240.094 112.859C240.656 112.516 241.102 112.039 241.43 111.43C241.758 110.805 241.992 110.078 242.133 109.25C242.273 108.422 242.344 107.531 242.344 106.578V106.086C242.344 105.164 242.273 104.297 242.133 103.484C241.992 102.656 241.758 101.93 241.43 101.305C241.102 100.664 240.656 100.164 240.094 99.8047C239.531 99.4453 238.828 99.2656 237.984 99.2656C237.156 99.2656 236.461 99.4453 235.898 99.8047C235.352 100.164 234.914 100.664 234.586 101.305C234.258 101.93 234.023 102.656 233.883 103.484C233.742 104.297 233.672 105.164 233.672 106.086ZM266.086 84.875H279.516C282.141 84.875 284.422 85.2656 286.359 86.0469C288.297 86.8281 289.789 87.9844 290.836 89.5156C291.898 91.0469 292.43 92.9375 292.43 95.1875C292.43 97.1406 292.125 98.7734 291.516 100.086C290.906 101.398 290.055 102.484 288.961 103.344C287.883 104.188 286.625 104.883 285.188 105.43L282.492 106.953H271.219L271.172 100.602H279.516C280.562 100.602 281.43 100.414 282.117 100.039C282.805 99.6641 283.32 99.1328 283.664 98.4453C284.023 97.7422 284.203 96.9062 284.203 95.9375C284.203 94.9531 284.023 94.1094 283.664 93.4062C283.305 92.7031 282.773 92.1641 282.07 91.7891C281.383 91.4141 280.531 91.2266 279.516 91.2266H274.312V119H266.086V84.875ZM284.766 119L277.219 103.906L285.938 103.859L293.578 118.648V119H284.766ZM311.836 112.836V93.6406H319.758V119H312.352L311.836 112.836ZM312.586 107.68L314.648 107.633C314.648 109.336 314.445 110.914 314.039 112.367C313.633 113.805 313.031 115.055 312.234 116.117C311.453 117.18 310.484 118.008 309.328 118.602C308.188 119.18 306.867 119.469 305.367 119.469C304.117 119.469 302.969 119.297 301.922 118.953C300.891 118.594 300 118.039 299.25 117.289C298.5 116.523 297.914 115.547 297.492 114.359C297.086 113.156 296.883 111.719 296.883 110.047V93.6406H304.781V110.094C304.781 110.656 304.852 111.141 304.992 111.547C305.133 111.953 305.336 112.297 305.602 112.578C305.867 112.844 306.195 113.047 306.586 113.188C306.992 113.312 307.453 113.375 307.969 113.375C309.156 113.375 310.086 113.125 310.758 112.625C311.43 112.125 311.898 111.445 312.164 110.586C312.445 109.727 312.586 108.758 312.586 107.68ZM331.875 99.0547V119H323.977V93.6406H331.383L331.875 99.0547ZM330.938 105.453L329.086 105.5C329.086 103.562 329.32 101.836 329.789 100.32C330.258 98.7891 330.922 97.4922 331.781 96.4297C332.641 95.3672 333.664 94.5625 334.852 94.0156C336.055 93.4531 337.391 93.1719 338.859 93.1719C340.031 93.1719 341.102 93.3438 342.07 93.6875C343.055 94.0312 343.898 94.5859 344.602 95.3516C345.32 96.1172 345.867 97.1328 346.242 98.3984C346.633 99.6484 346.828 101.195 346.828 103.039V119H338.883V103.016C338.883 102 338.742 101.227 338.461 100.695C338.18 100.148 337.773 99.7734 337.242 99.5703C336.711 99.3672 336.062 99.2656 335.297 99.2656C334.484 99.2656 333.797 99.4219 333.234 99.7344C332.672 100.047 332.219 100.484 331.875 101.047C331.547 101.594 331.305 102.242 331.148 102.992C331.008 103.742 330.938 104.562 330.938 105.453ZM363.773 108.195H357.047C357.047 106.82 357.141 105.609 357.328 104.562C357.531 103.5 357.875 102.547 358.359 101.703C358.844 100.859 359.5 100.078 360.328 99.3594C361.062 98.75 361.695 98.1641 362.227 97.6016C362.758 97.0391 363.164 96.4688 363.445 95.8906C363.727 95.3125 363.867 94.6953 363.867 94.0391C363.867 93.2266 363.75 92.5625 363.516 92.0469C363.297 91.5312 362.961 91.1484 362.508 90.8984C362.07 90.6328 361.516 90.5 360.844 90.5C360.297 90.5 359.781 90.6328 359.297 90.8984C358.828 91.1641 358.445 91.5781 358.148 92.1406C357.852 92.6875 357.688 93.4141 357.656 94.3203H349.711C349.758 91.9922 350.273 90.1016 351.258 88.6484C352.258 87.1797 353.586 86.1094 355.242 85.4375C356.914 84.75 358.781 84.4062 360.844 84.4062C363.125 84.4062 365.086 84.7578 366.727 85.4609C368.367 86.1641 369.625 87.2109 370.5 88.6016C371.375 89.9766 371.812 91.6719 371.812 93.6875C371.812 95.0312 371.555 96.2031 371.039 97.2031C370.539 98.1875 369.859 99.1094 369 99.9688C368.156 100.812 367.211 101.719 366.164 102.688C365.258 103.484 364.641 104.297 364.312 105.125C363.984 105.938 363.805 106.961 363.773 108.195ZM356.086 115.32C356.086 114.195 356.492 113.258 357.305 112.508C358.117 111.742 359.172 111.359 360.469 111.359C361.766 111.359 362.82 111.742 363.633 112.508C364.445 113.258 364.852 114.195 364.852 115.32C364.852 116.445 364.445 117.391 363.633 118.156C362.82 118.906 361.766 119.281 360.469 119.281C359.172 119.281 358.117 118.906 357.305 118.156C356.492 117.391 356.086 116.445 356.086 115.32Z" fill="black"/>
<path d="M1134 0H1348C1356.28 0 1363 6.71573 1363 15V148C1363 156.284 1356.28 163 1348 163H1134V0Z" fill="#30C5A6"/>
<path d="M1260.62 78.8078C1263.81 78.8078 1266.93 79.7552 1269.59 81.5302C1272.25 83.3052 1274.32 85.8281 1275.54 88.7798C1276.76 91.7315 1277.08 94.9795 1276.46 98.1131C1275.84 101.247 1274.3 104.125 1272.04 106.384C1269.78 108.643 1266.9 110.182 1263.77 110.805C1260.63 111.428 1257.39 111.108 1254.43 109.886C1251.48 108.663 1248.96 106.593 1247.18 103.936C1245.41 101.28 1244.46 98.1565 1244.46 94.9616C1244.46 90.6774 1246.16 86.5686 1249.19 83.5392C1252.22 80.5097 1256.33 78.8078 1260.62 78.8078ZM1260.62 73.4232C1256.36 73.4232 1252.19 74.6864 1248.65 77.0531C1245.11 79.4198 1242.35 82.7836 1240.72 86.7192C1239.09 90.6549 1238.66 94.9855 1239.49 99.1636C1240.32 103.342 1242.37 107.179 1245.39 110.192C1248.4 113.204 1252.24 115.255 1256.41 116.086C1260.59 116.917 1264.92 116.491 1268.86 114.861C1272.79 113.23 1276.16 110.47 1278.52 106.928C1280.89 103.386 1282.15 99.2215 1282.15 94.9616C1282.15 89.2493 1279.88 83.7709 1275.85 79.7317C1271.81 75.6924 1266.33 73.4232 1260.62 73.4232Z" fill="white"/>
<path d="M1274.08 46.4999H1220.23C1218.8 46.4999 1217.43 47.0672 1216.42 48.0771C1215.41 49.0869 1214.85 50.4565 1214.85 51.8845V105.731C1214.85 107.159 1215.41 108.528 1216.42 109.538C1217.43 110.548 1218.8 111.115 1220.23 111.115H1231V105.731H1220.23V68.0383H1279.46V51.8845C1279.46 50.4565 1278.89 49.0869 1277.88 48.0771C1276.87 47.0672 1275.5 46.4999 1274.08 46.4999ZM1220.23 62.6537V51.8845H1274.08V62.6537H1220.23Z" fill="white"/>
<path d="M1255.23 86.8848V103.039L1268.69 94.9617L1255.23 86.8848Z" fill="white"/>
</svg>
