<svg width="1363" height="297" viewBox="0 0 1363 297" fill="none" xmlns="http://www.w3.org/2000/svg">
<path d="M0 15C0 6.71573 6.71573 0 15 0H37V297H15C6.71573 297 0 290.284 0 282V15Z" fill="#30C5A6"/>
<path d="M37 0H1348C1356.28 0 1363 6.71573 1363 15V282C1363 290.284 1356.28 297 1348 297H37V0Z" fill="#F0F0F0"/>
<path d="M97.6934 49.4062H102.158L108.732 68.1973L115.307 49.4062H119.771L110.525 75H106.939L97.6934 49.4062ZM95.2852 49.4062H99.7324L100.541 67.7227V75H95.2852V49.4062ZM117.732 49.4062H122.197V75H116.924V67.7227L117.732 49.4062ZM125.695 65.6836V65.3145C125.695 63.9199 125.895 62.6367 126.293 61.4648C126.691 60.2812 127.271 59.2559 128.033 58.3887C128.795 57.5215 129.732 56.8477 130.846 56.3672C131.959 55.875 133.236 55.6289 134.678 55.6289C136.119 55.6289 137.402 55.875 138.527 56.3672C139.652 56.8477 140.596 57.5215 141.357 58.3887C142.131 59.2559 142.717 60.2812 143.115 61.4648C143.514 62.6367 143.713 63.9199 143.713 65.3145V65.6836C143.713 67.0664 143.514 68.3496 143.115 69.5332C142.717 70.7051 142.131 71.7305 141.357 72.6094C140.596 73.4766 139.658 74.1504 138.545 74.6309C137.432 75.1113 136.154 75.3516 134.713 75.3516C133.271 75.3516 131.988 75.1113 130.863 74.6309C129.75 74.1504 128.807 73.4766 128.033 72.6094C127.271 71.7305 126.691 70.7051 126.293 69.5332C125.895 68.3496 125.695 67.0664 125.695 65.6836ZM130.758 65.3145V65.6836C130.758 66.4805 130.828 67.2246 130.969 67.916C131.109 68.6074 131.332 69.2168 131.637 69.7441C131.953 70.2598 132.363 70.6641 132.867 70.957C133.371 71.25 133.986 71.3965 134.713 71.3965C135.416 71.3965 136.02 71.25 136.523 70.957C137.027 70.6641 137.432 70.2598 137.736 69.7441C138.041 69.2168 138.264 68.6074 138.404 67.916C138.557 67.2246 138.633 66.4805 138.633 65.6836V65.3145C138.633 64.541 138.557 63.8145 138.404 63.1348C138.264 62.4434 138.035 61.834 137.719 61.3066C137.414 60.7676 137.01 60.3457 136.506 60.041C136.002 59.7363 135.393 59.584 134.678 59.584C133.963 59.584 133.354 59.7363 132.85 60.041C132.357 60.3457 131.953 60.7676 131.637 61.3066C131.332 61.834 131.109 62.4434 130.969 63.1348C130.828 63.8145 130.758 64.541 130.758 65.3145ZM151.764 48V75H146.701V48H151.764ZM151.043 64.8223H149.654C149.666 63.498 149.842 62.2793 150.182 61.166C150.521 60.041 151.008 59.0684 151.641 58.248C152.273 57.416 153.029 56.7715 153.908 56.3145C154.799 55.8574 155.783 55.6289 156.861 55.6289C157.799 55.6289 158.648 55.7637 159.41 56.0332C160.184 56.291 160.846 56.7129 161.396 57.2988C161.959 57.873 162.393 58.6289 162.697 59.5664C163.002 60.5039 163.154 61.6406 163.154 62.9766V75H158.057V62.9414C158.057 62.0977 157.934 61.4355 157.688 60.9551C157.453 60.4629 157.107 60.1172 156.65 59.918C156.205 59.707 155.654 59.6016 154.998 59.6016C154.271 59.6016 153.65 59.7363 153.135 60.0059C152.631 60.2754 152.227 60.6504 151.922 61.1309C151.617 61.5996 151.395 62.1504 151.254 62.7832C151.113 63.416 151.043 64.0957 151.043 64.8223ZM177.27 70.7109V62.2383C177.27 61.6289 177.17 61.1074 176.971 60.6738C176.771 60.2285 176.461 59.8828 176.039 59.6367C175.629 59.3906 175.096 59.2676 174.439 59.2676C173.877 59.2676 173.391 59.3672 172.98 59.5664C172.57 59.7539 172.254 60.0293 172.031 60.3926C171.809 60.7441 171.697 61.1602 171.697 61.6406H166.635C166.635 60.832 166.822 60.0645 167.197 59.3379C167.572 58.6113 168.117 57.9727 168.832 57.4219C169.547 56.8594 170.396 56.4199 171.381 56.1035C172.377 55.7871 173.49 55.6289 174.721 55.6289C176.197 55.6289 177.51 55.875 178.658 56.3672C179.807 56.8594 180.709 57.5977 181.365 58.582C182.033 59.5664 182.367 60.7969 182.367 62.2734V70.4121C182.367 71.4551 182.432 72.3105 182.561 72.9785C182.689 73.6348 182.877 74.209 183.123 74.7012V75H178.008C177.762 74.4844 177.574 73.8398 177.445 73.0664C177.328 72.2812 177.27 71.4961 177.27 70.7109ZM177.938 63.416L177.973 66.2812H175.143C174.475 66.2812 173.895 66.3574 173.402 66.5098C172.91 66.6621 172.506 66.8789 172.189 67.1602C171.873 67.4297 171.639 67.7461 171.486 68.1094C171.346 68.4727 171.275 68.8711 171.275 69.3047C171.275 69.7383 171.375 70.1309 171.574 70.4824C171.773 70.8223 172.061 71.0918 172.436 71.291C172.811 71.4785 173.25 71.5723 173.754 71.5723C174.516 71.5723 175.178 71.4199 175.74 71.1152C176.303 70.8105 176.736 70.4355 177.041 69.9902C177.357 69.5449 177.521 69.123 177.533 68.7246L178.869 70.8691C178.682 71.3496 178.424 71.8477 178.096 72.3633C177.779 72.8789 177.375 73.3652 176.883 73.8223C176.391 74.2676 175.799 74.6367 175.107 74.9297C174.416 75.2109 173.596 75.3516 172.646 75.3516C171.439 75.3516 170.344 75.1113 169.359 74.6309C168.387 74.1387 167.613 73.4648 167.039 72.6094C166.477 71.7422 166.195 70.7578 166.195 69.6562C166.195 68.6602 166.383 67.7754 166.758 67.002C167.133 66.2285 167.684 65.5781 168.41 65.0508C169.148 64.5117 170.068 64.1074 171.17 63.8379C172.271 63.5566 173.549 63.416 175.002 63.416H177.938ZM191.332 59.918V75H186.252V55.9805H191.016L191.332 59.918ZM190.629 64.8223H189.223C189.223 63.498 189.381 62.2793 189.697 61.166C190.025 60.041 190.5 59.0684 191.121 58.248C191.754 57.416 192.533 56.7715 193.459 56.3145C194.385 55.8574 195.457 55.6289 196.676 55.6289C197.52 55.6289 198.293 55.7578 198.996 56.0156C199.699 56.2617 200.303 56.6543 200.807 57.1934C201.322 57.7207 201.721 58.4121 202.002 59.2676C202.283 60.1113 202.424 61.125 202.424 62.3086V75H197.361V62.8711C197.361 62.0039 197.244 61.3359 197.01 60.8672C196.775 60.3984 196.441 60.0703 196.008 59.8828C195.586 59.6953 195.076 59.6016 194.479 59.6016C193.822 59.6016 193.248 59.7363 192.756 60.0059C192.275 60.2754 191.877 60.6504 191.561 61.1309C191.244 61.5996 191.01 62.1504 190.857 62.7832C190.705 63.416 190.629 64.0957 190.629 64.8223ZM201.949 64.2422L200.139 64.4707C200.139 63.2285 200.291 62.0742 200.596 61.0078C200.912 59.9414 201.375 59.0039 201.984 58.1953C202.605 57.3867 203.373 56.7598 204.287 56.3145C205.201 55.8574 206.256 55.6289 207.451 55.6289C208.365 55.6289 209.197 55.7637 209.947 56.0332C210.697 56.291 211.336 56.707 211.863 57.2812C212.402 57.8438 212.812 58.582 213.094 59.4961C213.387 60.4102 213.533 61.5293 213.533 62.8535V75H208.453V62.8535C208.453 61.9746 208.336 61.3066 208.102 60.8496C207.879 60.3809 207.551 60.0586 207.117 59.8828C206.695 59.6953 206.191 59.6016 205.605 59.6016C204.996 59.6016 204.463 59.7246 204.006 59.9707C203.549 60.2051 203.168 60.5332 202.863 60.9551C202.559 61.377 202.33 61.8691 202.178 62.4316C202.025 62.9824 201.949 63.5859 201.949 64.2422ZM222.516 59.918V75H217.436V55.9805H222.199L222.516 59.918ZM221.812 64.8223H220.406C220.406 63.498 220.564 62.2793 220.881 61.166C221.209 60.041 221.684 59.0684 222.305 58.248C222.938 57.416 223.717 56.7715 224.643 56.3145C225.568 55.8574 226.641 55.6289 227.859 55.6289C228.703 55.6289 229.477 55.7578 230.18 56.0156C230.883 56.2617 231.486 56.6543 231.99 57.1934C232.506 57.7207 232.904 58.4121 233.186 59.2676C233.467 60.1113 233.607 61.125 233.607 62.3086V75H228.545V62.8711C228.545 62.0039 228.428 61.3359 228.193 60.8672C227.959 60.3984 227.625 60.0703 227.191 59.8828C226.77 59.6953 226.26 59.6016 225.662 59.6016C225.006 59.6016 224.432 59.7363 223.939 60.0059C223.459 60.2754 223.061 60.6504 222.744 61.1309C222.428 61.5996 222.193 62.1504 222.041 62.7832C221.889 63.416 221.812 64.0957 221.812 64.8223ZM233.133 64.2422L231.322 64.4707C231.322 63.2285 231.475 62.0742 231.779 61.0078C232.096 59.9414 232.559 59.0039 233.168 58.1953C233.789 57.3867 234.557 56.7598 235.471 56.3145C236.385 55.8574 237.439 55.6289 238.635 55.6289C239.549 55.6289 240.381 55.7637 241.131 56.0332C241.881 56.291 242.52 56.707 243.047 57.2812C243.586 57.8438 243.996 58.582 244.277 59.4961C244.57 60.4102 244.717 61.5293 244.717 62.8535V75H239.637V62.8535C239.637 61.9746 239.52 61.3066 239.285 60.8496C239.062 60.3809 238.734 60.0586 238.301 59.8828C237.879 59.6953 237.375 59.6016 236.789 59.6016C236.18 59.6016 235.646 59.7246 235.189 59.9707C234.732 60.2051 234.352 60.5332 234.047 60.9551C233.742 61.377 233.514 61.8691 233.361 62.4316C233.209 62.9824 233.133 63.5859 233.133 64.2422ZM258.902 70.7109V62.2383C258.902 61.6289 258.803 61.1074 258.604 60.6738C258.404 60.2285 258.094 59.8828 257.672 59.6367C257.262 59.3906 256.729 59.2676 256.072 59.2676C255.51 59.2676 255.023 59.3672 254.613 59.5664C254.203 59.7539 253.887 60.0293 253.664 60.3926C253.441 60.7441 253.33 61.1602 253.33 61.6406H248.268C248.268 60.832 248.455 60.0645 248.83 59.3379C249.205 58.6113 249.75 57.9727 250.465 57.4219C251.18 56.8594 252.029 56.4199 253.014 56.1035C254.01 55.7871 255.123 55.6289 256.354 55.6289C257.83 55.6289 259.143 55.875 260.291 56.3672C261.439 56.8594 262.342 57.5977 262.998 58.582C263.666 59.5664 264 60.7969 264 62.2734V70.4121C264 71.4551 264.064 72.3105 264.193 72.9785C264.322 73.6348 264.51 74.209 264.756 74.7012V75H259.641C259.395 74.4844 259.207 73.8398 259.078 73.0664C258.961 72.2812 258.902 71.4961 258.902 70.7109ZM259.57 63.416L259.605 66.2812H256.775C256.107 66.2812 255.527 66.3574 255.035 66.5098C254.543 66.6621 254.139 66.8789 253.822 67.1602C253.506 67.4297 253.271 67.7461 253.119 68.1094C252.979 68.4727 252.908 68.8711 252.908 69.3047C252.908 69.7383 253.008 70.1309 253.207 70.4824C253.406 70.8223 253.693 71.0918 254.068 71.291C254.443 71.4785 254.883 71.5723 255.387 71.5723C256.148 71.5723 256.811 71.4199 257.373 71.1152C257.936 70.8105 258.369 70.4355 258.674 69.9902C258.99 69.5449 259.154 69.123 259.166 68.7246L260.502 70.8691C260.314 71.3496 260.057 71.8477 259.729 72.3633C259.412 72.8789 259.008 73.3652 258.516 73.8223C258.023 74.2676 257.432 74.6367 256.74 74.9297C256.049 75.2109 255.229 75.3516 254.279 75.3516C253.072 75.3516 251.977 75.1113 250.992 74.6309C250.02 74.1387 249.246 73.4648 248.672 72.6094C248.109 71.7422 247.828 70.7578 247.828 69.6562C247.828 68.6602 248.016 67.7754 248.391 67.002C248.766 66.2285 249.316 65.5781 250.043 65.0508C250.781 64.5117 251.701 64.1074 252.803 63.8379C253.904 63.5566 255.182 63.416 256.635 63.416H259.57ZM279.135 70.8516V48H284.232V75H279.645L279.135 70.8516ZM267.111 65.7188V65.3496C267.111 63.8965 267.275 62.5781 267.604 61.3945C267.932 60.1992 268.412 59.1738 269.045 58.3184C269.678 57.4629 270.457 56.8008 271.383 56.332C272.309 55.8633 273.363 55.6289 274.547 55.6289C275.66 55.6289 276.633 55.8633 277.465 56.332C278.309 56.8008 279.023 57.4688 279.609 58.3359C280.207 59.1914 280.688 60.2051 281.051 61.377C281.414 62.5371 281.678 63.8086 281.842 65.1914V66C281.678 67.3242 281.414 68.5547 281.051 69.6914C280.688 70.8281 280.207 71.8242 279.609 72.6797C279.023 73.5234 278.309 74.1797 277.465 74.6484C276.621 75.1172 275.637 75.3516 274.512 75.3516C273.328 75.3516 272.273 75.1113 271.348 74.6309C270.434 74.1504 269.66 73.4766 269.027 72.6094C268.406 71.7422 267.932 70.7227 267.604 69.5508C267.275 68.3789 267.111 67.1016 267.111 65.7188ZM272.174 65.3496V65.7188C272.174 66.5039 272.232 67.2363 272.35 67.916C272.479 68.5957 272.684 69.1992 272.965 69.7266C273.258 70.2422 273.633 70.6465 274.09 70.9395C274.559 71.2207 275.127 71.3613 275.795 71.3613C276.662 71.3613 277.377 71.168 277.939 70.7812C278.502 70.3828 278.93 69.8379 279.223 69.1465C279.527 68.4551 279.703 67.6582 279.75 66.7559V64.4531C279.715 63.7148 279.609 63.0527 279.434 62.4668C279.27 61.8691 279.023 61.3594 278.695 60.9375C278.379 60.5156 277.98 60.1875 277.5 59.9531C277.031 59.7188 276.475 59.6016 275.83 59.6016C275.174 59.6016 274.611 59.7539 274.143 60.0586C273.674 60.3516 273.293 60.7559 273 61.2715C272.719 61.7871 272.508 62.3965 272.367 63.0996C272.238 63.791 272.174 64.541 272.174 65.3496ZM314.537 59.8301V63.9434H301.178V59.8301H314.537ZM302.742 49.4062V75H297.469V49.4062H302.742ZM318.299 49.4062V75H313.043V49.4062H318.299ZM333.82 70.4473V55.9805H338.883V75H334.119L333.82 70.4473ZM334.383 66.5449L335.877 66.5098C335.877 67.7754 335.73 68.9531 335.438 70.043C335.145 71.1211 334.705 72.0586 334.119 72.8555C333.533 73.6406 332.795 74.2559 331.904 74.7012C331.014 75.1348 329.965 75.3516 328.758 75.3516C327.832 75.3516 326.977 75.2227 326.191 74.9648C325.418 74.6953 324.75 74.2793 324.188 73.7168C323.637 73.1426 323.203 72.4102 322.887 71.5195C322.582 70.6172 322.43 69.5332 322.43 68.2676V55.9805H327.492V68.3027C327.492 68.8652 327.557 69.3398 327.686 69.7266C327.826 70.1133 328.02 70.4297 328.266 70.6758C328.512 70.9219 328.799 71.0977 329.127 71.2031C329.467 71.3086 329.842 71.3613 330.252 71.3613C331.295 71.3613 332.115 71.1504 332.713 70.7285C333.322 70.3066 333.75 69.7324 333.996 69.0059C334.254 68.2676 334.383 67.4473 334.383 66.5449ZM353.033 69.7441C353.033 69.3809 352.928 69.0527 352.717 68.7598C352.506 68.4668 352.113 68.1973 351.539 67.9512C350.977 67.6934 350.162 67.459 349.096 67.248C348.135 67.0371 347.238 66.7734 346.406 66.457C345.586 66.1289 344.871 65.7363 344.262 65.2793C343.664 64.8223 343.195 64.2832 342.855 63.6621C342.516 63.0293 342.346 62.3086 342.346 61.5C342.346 60.7031 342.516 59.9531 342.855 59.25C343.207 58.5469 343.705 57.9258 344.35 57.3867C345.006 56.8359 345.803 56.4082 346.74 56.1035C347.689 55.7871 348.756 55.6289 349.939 55.6289C351.592 55.6289 353.01 55.8926 354.193 56.4199C355.389 56.9473 356.303 57.6738 356.936 58.5996C357.58 59.5137 357.902 60.5566 357.902 61.7285H352.84C352.84 61.2363 352.734 60.7969 352.523 60.4102C352.324 60.0117 352.008 59.7012 351.574 59.4785C351.152 59.2441 350.602 59.127 349.922 59.127C349.359 59.127 348.873 59.2266 348.463 59.4258C348.053 59.6133 347.736 59.8711 347.514 60.1992C347.303 60.5156 347.197 60.8672 347.197 61.2539C347.197 61.5469 347.256 61.8105 347.373 62.0449C347.502 62.2676 347.707 62.4727 347.988 62.6602C348.27 62.8477 348.633 63.0234 349.078 63.1875C349.535 63.3398 350.098 63.4805 350.766 63.6094C352.137 63.8906 353.361 64.2598 354.439 64.7168C355.518 65.1621 356.373 65.7715 357.006 66.5449C357.639 67.3066 357.955 68.3086 357.955 69.5508C357.955 70.3945 357.768 71.168 357.393 71.8711C357.018 72.5742 356.479 73.1895 355.775 73.7168C355.072 74.2324 354.229 74.6367 353.244 74.9297C352.271 75.2109 351.176 75.3516 349.957 75.3516C348.188 75.3516 346.688 75.0352 345.457 74.4023C344.238 73.7695 343.312 72.9668 342.68 71.9941C342.059 71.0098 341.748 70.002 341.748 68.9707H346.547C346.57 69.6621 346.746 70.2188 347.074 70.6406C347.414 71.0625 347.842 71.3672 348.357 71.5547C348.885 71.7422 349.453 71.8359 350.062 71.8359C350.719 71.8359 351.264 71.748 351.697 71.5723C352.131 71.3848 352.459 71.1387 352.682 70.834C352.916 70.5176 353.033 70.1543 353.033 69.7441ZM371.525 69.7441C371.525 69.3809 371.42 69.0527 371.209 68.7598C370.998 68.4668 370.605 68.1973 370.031 67.9512C369.469 67.6934 368.654 67.459 367.588 67.248C366.627 67.0371 365.73 66.7734 364.898 66.457C364.078 66.1289 363.363 65.7363 362.754 65.2793C362.156 64.8223 361.688 64.2832 361.348 63.6621C361.008 63.0293 360.838 62.3086 360.838 61.5C360.838 60.7031 361.008 59.9531 361.348 59.25C361.699 58.5469 362.197 57.9258 362.842 57.3867C363.498 56.8359 364.295 56.4082 365.232 56.1035C366.182 55.7871 367.248 55.6289 368.432 55.6289C370.084 55.6289 371.502 55.8926 372.686 56.4199C373.881 56.9473 374.795 57.6738 375.428 58.5996C376.072 59.5137 376.395 60.5566 376.395 61.7285H371.332C371.332 61.2363 371.227 60.7969 371.016 60.4102C370.816 60.0117 370.5 59.7012 370.066 59.4785C369.645 59.2441 369.094 59.127 368.414 59.127C367.852 59.127 367.365 59.2266 366.955 59.4258C366.545 59.6133 366.229 59.8711 366.006 60.1992C365.795 60.5156 365.689 60.8672 365.689 61.2539C365.689 61.5469 365.748 61.8105 365.865 62.0449C365.994 62.2676 366.199 62.4727 366.48 62.6602C366.762 62.8477 367.125 63.0234 367.57 63.1875C368.027 63.3398 368.59 63.4805 369.258 63.6094C370.629 63.8906 371.854 64.2598 372.932 64.7168C374.01 65.1621 374.865 65.7715 375.498 66.5449C376.131 67.3066 376.447 68.3086 376.447 69.5508C376.447 70.3945 376.26 71.168 375.885 71.8711C375.51 72.5742 374.971 73.1895 374.268 73.7168C373.564 74.2324 372.721 74.6367 371.736 74.9297C370.764 75.2109 369.668 75.3516 368.449 75.3516C366.68 75.3516 365.18 75.0352 363.949 74.4023C362.73 73.7695 361.805 72.9668 361.172 71.9941C360.551 71.0098 360.24 70.002 360.24 68.9707H365.039C365.062 69.6621 365.238 70.2188 365.566 70.6406C365.906 71.0625 366.334 71.3672 366.85 71.5547C367.377 71.7422 367.945 71.8359 368.555 71.8359C369.211 71.8359 369.756 71.748 370.189 71.5723C370.623 71.3848 370.951 71.1387 371.174 70.834C371.408 70.5176 371.525 70.1543 371.525 69.7441ZM388.488 75.3516C387.012 75.3516 385.688 75.1172 384.516 74.6484C383.344 74.168 382.348 73.5059 381.527 72.6621C380.719 71.8184 380.098 70.8398 379.664 69.7266C379.23 68.6016 379.014 67.4062 379.014 66.1406V65.4375C379.014 63.9961 379.219 62.6777 379.629 61.4824C380.039 60.2871 380.625 59.25 381.387 58.3711C382.16 57.4922 383.098 56.8184 384.199 56.3496C385.301 55.8691 386.543 55.6289 387.926 55.6289C389.273 55.6289 390.469 55.8516 391.512 56.2969C392.555 56.7422 393.428 57.375 394.131 58.1953C394.846 59.0156 395.385 60 395.748 61.1484C396.111 62.2852 396.293 63.5508 396.293 64.9453V67.0547H381.176V63.6797H391.318V63.293C391.318 62.5898 391.189 61.9629 390.932 61.4121C390.686 60.8496 390.311 60.4043 389.807 60.0762C389.303 59.748 388.658 59.584 387.873 59.584C387.205 59.584 386.631 59.7305 386.15 60.0234C385.67 60.3164 385.277 60.7266 384.973 61.2539C384.68 61.7812 384.457 62.4023 384.305 63.1172C384.164 63.8203 384.094 64.5938 384.094 65.4375V66.1406C384.094 66.9023 384.199 67.6055 384.41 68.25C384.633 68.8945 384.943 69.4512 385.342 69.9199C385.752 70.3887 386.244 70.752 386.818 71.0098C387.404 71.2676 388.066 71.3965 388.805 71.3965C389.719 71.3965 390.568 71.2207 391.354 70.8691C392.15 70.5059 392.836 69.9609 393.41 69.2344L395.871 71.9062C395.473 72.4805 394.928 73.0312 394.236 73.5586C393.557 74.0859 392.736 74.5195 391.775 74.8594C390.814 75.1875 389.719 75.3516 388.488 75.3516ZM404.52 55.9805V75H399.439V55.9805H404.52ZM399.123 51.0234C399.123 50.2852 399.381 49.6758 399.896 49.1953C400.412 48.7148 401.104 48.4746 401.971 48.4746C402.826 48.4746 403.512 48.7148 404.027 49.1953C404.555 49.6758 404.818 50.2852 404.818 51.0234C404.818 51.7617 404.555 52.3711 404.027 52.8516C403.512 53.332 402.826 53.5723 401.971 53.5723C401.104 53.5723 400.412 53.332 399.896 52.8516C399.381 52.3711 399.123 51.7617 399.123 51.0234ZM413.66 60.041V75H408.598V55.9805H413.344L413.66 60.041ZM412.922 64.8223H411.551C411.551 63.416 411.732 62.1504 412.096 61.0254C412.459 59.8887 412.969 58.9219 413.625 58.125C414.281 57.3164 415.061 56.7012 415.963 56.2793C416.877 55.8457 417.896 55.6289 419.021 55.6289C419.912 55.6289 420.727 55.7578 421.465 56.0156C422.203 56.2734 422.836 56.6836 423.363 57.2461C423.902 57.8086 424.312 58.5527 424.594 59.4785C424.887 60.4043 425.033 61.5352 425.033 62.8711V75H419.936V62.8535C419.936 62.0098 419.818 61.3535 419.584 60.8848C419.35 60.416 419.004 60.0879 418.547 59.9004C418.102 59.7012 417.551 59.6016 416.895 59.6016C416.215 59.6016 415.623 59.7363 415.119 60.0059C414.627 60.2754 414.217 60.6504 413.889 61.1309C413.572 61.5996 413.332 62.1504 413.168 62.7832C413.004 63.416 412.922 64.0957 412.922 64.8223Z" fill="#888888"/>
<path d="M112.277 123.074H102.023L101.969 116.785H110.281C111.776 116.785 112.97 116.621 113.863 116.293C114.757 115.947 115.404 115.445 115.805 114.789C116.224 114.133 116.434 113.312 116.434 112.328C116.434 111.198 116.224 110.286 115.805 109.594C115.385 108.901 114.72 108.4 113.809 108.09C112.915 107.762 111.758 107.598 110.336 107.598H105.633V140H96.0352V100.188H110.336C112.797 100.188 114.993 100.415 116.926 100.871C118.858 101.309 120.499 101.983 121.848 102.895C123.215 103.806 124.254 104.954 124.965 106.34C125.676 107.707 126.031 109.32 126.031 111.18C126.031 112.802 125.685 114.324 124.992 115.746C124.299 117.168 123.142 118.326 121.52 119.219C119.915 120.094 117.719 120.549 114.93 120.586L112.277 123.074ZM111.895 140H99.6992L102.98 132.617H111.895C113.207 132.617 114.255 132.417 115.039 132.016C115.841 131.596 116.415 131.049 116.762 130.375C117.126 129.682 117.309 128.917 117.309 128.078C117.309 127.057 117.135 126.173 116.789 125.426C116.461 124.678 115.932 124.104 115.203 123.703C114.474 123.284 113.499 123.074 112.277 123.074H104.211L104.266 116.785H113.918L116.16 119.301C118.822 119.191 120.927 119.565 122.477 120.422C124.044 121.279 125.165 122.409 125.84 123.812C126.514 125.216 126.852 126.684 126.852 128.215C126.852 130.822 126.286 133 125.156 134.75C124.044 136.5 122.376 137.812 120.152 138.688C117.928 139.562 115.176 140 111.895 140ZM130.598 125.508V124.934C130.598 122.764 130.908 120.768 131.527 118.945C132.147 117.104 133.059 115.509 134.262 114.16C135.465 112.811 136.951 111.763 138.719 111.016C140.487 110.25 142.529 109.867 144.844 109.867C147.177 109.867 149.228 110.25 150.996 111.016C152.783 111.763 154.277 112.811 155.48 114.16C156.684 115.509 157.595 117.104 158.215 118.945C158.835 120.768 159.145 122.764 159.145 124.934V125.508C159.145 127.659 158.835 129.655 158.215 131.496C157.595 133.319 156.684 134.914 155.48 136.281C154.277 137.63 152.792 138.678 151.023 139.426C149.255 140.173 147.214 140.547 144.898 140.547C142.583 140.547 140.533 140.173 138.746 139.426C136.96 138.678 135.465 137.63 134.262 136.281C133.059 134.914 132.147 133.319 131.527 131.496C130.908 129.655 130.598 127.659 130.598 125.508ZM139.812 124.934V125.508C139.812 126.62 139.895 127.659 140.059 128.625C140.223 129.591 140.496 130.439 140.879 131.168C141.262 131.879 141.781 132.435 142.438 132.836C143.094 133.237 143.914 133.438 144.898 133.438C145.865 133.438 146.667 133.237 147.305 132.836C147.961 132.435 148.48 131.879 148.863 131.168C149.246 130.439 149.52 129.591 149.684 128.625C149.848 127.659 149.93 126.62 149.93 125.508V124.934C149.93 123.858 149.848 122.846 149.684 121.898C149.52 120.932 149.246 120.085 148.863 119.355C148.48 118.608 147.961 118.025 147.305 117.605C146.648 117.186 145.828 116.977 144.844 116.977C143.878 116.977 143.066 117.186 142.41 117.605C141.772 118.025 141.262 118.608 140.879 119.355C140.496 120.085 140.223 120.932 140.059 121.898C139.895 122.846 139.812 123.858 139.812 124.934ZM162.098 125.508V124.934C162.098 122.764 162.408 120.768 163.027 118.945C163.647 117.104 164.559 115.509 165.762 114.16C166.965 112.811 168.451 111.763 170.219 111.016C171.987 110.25 174.029 109.867 176.344 109.867C178.677 109.867 180.728 110.25 182.496 111.016C184.283 111.763 185.777 112.811 186.98 114.16C188.184 115.509 189.095 117.104 189.715 118.945C190.335 120.768 190.645 122.764 190.645 124.934V125.508C190.645 127.659 190.335 129.655 189.715 131.496C189.095 133.319 188.184 134.914 186.98 136.281C185.777 137.63 184.292 138.678 182.523 139.426C180.755 140.173 178.714 140.547 176.398 140.547C174.083 140.547 172.033 140.173 170.246 139.426C168.46 138.678 166.965 137.63 165.762 136.281C164.559 134.914 163.647 133.319 163.027 131.496C162.408 129.655 162.098 127.659 162.098 125.508ZM171.312 124.934V125.508C171.312 126.62 171.395 127.659 171.559 128.625C171.723 129.591 171.996 130.439 172.379 131.168C172.762 131.879 173.281 132.435 173.938 132.836C174.594 133.237 175.414 133.438 176.398 133.438C177.365 133.438 178.167 133.237 178.805 132.836C179.461 132.435 179.98 131.879 180.363 131.168C180.746 130.439 181.02 129.591 181.184 128.625C181.348 127.659 181.43 126.62 181.43 125.508V124.934C181.43 123.858 181.348 122.846 181.184 121.898C181.02 120.932 180.746 120.085 180.363 119.355C179.98 118.608 179.461 118.025 178.805 117.605C178.148 117.186 177.328 116.977 176.344 116.977C175.378 116.977 174.566 117.186 173.91 117.605C173.272 118.025 172.762 118.608 172.379 119.355C171.996 120.085 171.723 120.932 171.559 121.898C171.395 122.846 171.312 123.858 171.312 124.934ZM204.043 97.9727V140H194.828V97.9727H204.043ZM222.965 110.414L210.113 125.48L203.387 132.207L199.367 126.355L204.973 119.055L211.918 110.414H222.965ZM213.094 140L205.191 126.52L212 121.68L223.648 140H213.094ZM260.262 129.418C260.262 128.798 260.171 128.242 259.988 127.75C259.806 127.24 259.469 126.766 258.977 126.328C258.484 125.891 257.773 125.453 256.844 125.016C255.932 124.56 254.729 124.086 253.234 123.594C251.484 123.01 249.798 122.354 248.176 121.625C246.553 120.878 245.104 120.012 243.828 119.027C242.552 118.025 241.54 116.858 240.793 115.527C240.046 114.178 239.672 112.611 239.672 110.824C239.672 109.111 240.055 107.57 240.82 106.203C241.586 104.818 242.652 103.642 244.02 102.676C245.405 101.691 247.027 100.944 248.887 100.434C250.746 99.9049 252.779 99.6406 254.984 99.6406C257.901 99.6406 260.471 100.151 262.695 101.172C264.938 102.174 266.688 103.605 267.945 105.465C269.221 107.306 269.859 109.484 269.859 112H260.316C260.316 110.997 260.107 110.113 259.688 109.348C259.286 108.582 258.676 107.98 257.855 107.543C257.035 107.105 256.005 106.887 254.766 106.887C253.562 106.887 252.551 107.069 251.73 107.434C250.91 107.798 250.29 108.29 249.871 108.91C249.452 109.512 249.242 110.177 249.242 110.906C249.242 111.508 249.406 112.055 249.734 112.547C250.081 113.021 250.564 113.467 251.184 113.887C251.822 114.306 252.587 114.707 253.48 115.09C254.392 115.473 255.413 115.846 256.543 116.211C258.658 116.885 260.535 117.642 262.176 118.48C263.835 119.301 265.229 120.24 266.359 121.297C267.508 122.336 268.374 123.521 268.957 124.852C269.559 126.182 269.859 127.686 269.859 129.363C269.859 131.15 269.513 132.736 268.82 134.121C268.128 135.507 267.134 136.682 265.84 137.648C264.546 138.596 262.996 139.316 261.191 139.809C259.387 140.301 257.372 140.547 255.148 140.547C253.107 140.547 251.092 140.292 249.105 139.781C247.137 139.253 245.35 138.451 243.746 137.375C242.142 136.281 240.857 134.887 239.891 133.191C238.943 131.478 238.469 129.445 238.469 127.094H248.094C248.094 128.26 248.249 129.245 248.559 130.047C248.868 130.849 249.324 131.496 249.926 131.988C250.527 132.462 251.266 132.809 252.141 133.027C253.016 133.228 254.018 133.328 255.148 133.328C256.37 133.328 257.354 133.155 258.102 132.809C258.849 132.444 259.396 131.97 259.742 131.387C260.089 130.785 260.262 130.129 260.262 129.418ZM283.395 98V140H274.18V98H283.395ZM282.301 124.195L280.141 124.25C280.141 122.172 280.396 120.258 280.906 118.508C281.417 116.758 282.146 115.236 283.094 113.941C284.042 112.647 285.181 111.645 286.512 110.934C287.842 110.223 289.319 109.867 290.941 109.867C292.4 109.867 293.73 110.077 294.934 110.496C296.155 110.915 297.203 111.59 298.078 112.52C298.971 113.449 299.655 114.661 300.129 116.156C300.621 117.651 300.867 119.474 300.867 121.625V140H291.598V121.57C291.598 120.367 291.424 119.438 291.078 118.781C290.75 118.107 290.276 117.642 289.656 117.387C289.036 117.113 288.28 116.977 287.387 116.977C286.311 116.977 285.436 117.159 284.762 117.523C284.087 117.888 283.568 118.398 283.203 119.055C282.857 119.693 282.62 120.449 282.492 121.324C282.365 122.199 282.301 123.156 282.301 124.195ZM321.348 132.562V120.367C321.348 119.529 321.229 118.809 320.992 118.207C320.755 117.605 320.382 117.141 319.871 116.812C319.361 116.466 318.677 116.293 317.82 116.293C317.128 116.293 316.535 116.411 316.043 116.648C315.551 116.885 315.177 117.241 314.922 117.715C314.667 118.189 314.539 118.79 314.539 119.52H305.324C305.324 118.152 305.625 116.885 306.227 115.719C306.846 114.534 307.721 113.504 308.852 112.629C310 111.754 311.367 111.079 312.953 110.605C314.557 110.113 316.344 109.867 318.312 109.867C320.664 109.867 322.76 110.259 324.602 111.043C326.461 111.827 327.928 113.003 329.004 114.57C330.079 116.12 330.617 118.07 330.617 120.422V132.535C330.617 134.467 330.727 135.935 330.945 136.938C331.164 137.922 331.474 138.788 331.875 139.535V140H322.633C322.195 139.089 321.867 137.977 321.648 136.664C321.448 135.333 321.348 133.966 321.348 132.562ZM322.469 121.926L322.523 126.848H318.449C317.592 126.848 316.863 126.966 316.262 127.203C315.678 127.44 315.204 127.768 314.84 128.188C314.493 128.589 314.238 129.044 314.074 129.555C313.928 130.065 313.855 130.603 313.855 131.168C313.855 131.715 313.983 132.207 314.238 132.645C314.512 133.064 314.876 133.392 315.332 133.629C315.788 133.866 316.298 133.984 316.863 133.984C317.884 133.984 318.75 133.793 319.461 133.41C320.19 133.009 320.746 132.526 321.129 131.961C321.512 131.396 321.703 130.867 321.703 130.375L323.727 134.148C323.362 134.878 322.943 135.616 322.469 136.363C322.013 137.111 321.439 137.803 320.746 138.441C320.072 139.061 319.242 139.572 318.258 139.973C317.273 140.355 316.079 140.547 314.676 140.547C312.853 140.547 311.176 140.173 309.645 139.426C308.132 138.678 306.919 137.639 306.008 136.309C305.096 134.96 304.641 133.41 304.641 131.66C304.641 130.129 304.914 128.762 305.461 127.559C306.026 126.355 306.874 125.335 308.004 124.496C309.134 123.658 310.574 123.02 312.324 122.582C314.074 122.145 316.134 121.926 318.504 121.926H322.469ZM345.027 117.742V140H335.812V110.414H344.426L345.027 117.742ZM353.777 110.195L353.613 118.754C353.249 118.717 352.757 118.672 352.137 118.617C351.517 118.562 350.997 118.535 350.578 118.535C349.503 118.535 348.573 118.663 347.789 118.918C347.023 119.155 346.385 119.52 345.875 120.012C345.383 120.486 345.018 121.087 344.781 121.816C344.562 122.546 344.462 123.393 344.48 124.359L342.812 123.266C342.812 121.279 343.004 119.474 343.387 117.852C343.788 116.211 344.353 114.798 345.082 113.613C345.811 112.41 346.695 111.49 347.734 110.852C348.773 110.195 349.94 109.867 351.234 109.867C351.69 109.867 352.137 109.895 352.574 109.949C353.03 110.004 353.431 110.086 353.777 110.195ZM366.684 110.414V140H357.441V110.414H366.684ZM356.895 102.785C356.895 101.473 357.368 100.397 358.316 99.5586C359.264 98.7201 360.495 98.3008 362.008 98.3008C363.521 98.3008 364.751 98.7201 365.699 99.5586C366.647 100.397 367.121 101.473 367.121 102.785C367.121 104.098 366.647 105.173 365.699 106.012C364.751 106.85 363.521 107.27 362.008 107.27C360.495 107.27 359.264 106.85 358.316 106.012C357.368 105.173 356.895 104.098 356.895 102.785ZM381.422 116.73V140H372.207V110.414H380.848L381.422 116.73ZM380.328 124.195L378.168 124.25C378.168 121.99 378.441 119.975 378.988 118.207C379.535 116.421 380.31 114.908 381.312 113.668C382.315 112.428 383.509 111.49 384.895 110.852C386.298 110.195 387.857 109.867 389.57 109.867C390.938 109.867 392.186 110.068 393.316 110.469C394.465 110.87 395.449 111.517 396.27 112.41C397.108 113.303 397.746 114.488 398.184 115.965C398.639 117.423 398.867 119.228 398.867 121.379V140H389.598V121.352C389.598 120.167 389.434 119.264 389.105 118.645C388.777 118.007 388.303 117.569 387.684 117.332C387.064 117.095 386.307 116.977 385.414 116.977C384.466 116.977 383.664 117.159 383.008 117.523C382.352 117.888 381.823 118.398 381.422 119.055C381.039 119.693 380.757 120.449 380.574 121.324C380.41 122.199 380.328 123.156 380.328 124.195ZM422.574 110.414H430.941V138.852C430.941 141.586 430.312 143.901 429.055 145.797C427.797 147.711 426.038 149.16 423.777 150.145C421.535 151.147 418.91 151.648 415.902 151.648C414.572 151.648 413.214 151.475 411.828 151.129C410.443 150.801 409.148 150.309 407.945 149.652C406.742 148.996 405.73 148.185 404.91 147.219L408.766 141.805C409.513 142.643 410.452 143.354 411.582 143.938C412.712 144.539 414.043 144.84 415.574 144.84C416.905 144.84 418.017 144.603 418.91 144.129C419.822 143.655 420.514 142.962 420.988 142.051C421.462 141.158 421.699 140.073 421.699 138.797V117.414L422.574 110.414ZM402.914 125.562V124.988C402.914 122.746 403.188 120.704 403.734 118.863C404.299 117.004 405.102 115.409 406.141 114.078C407.198 112.729 408.474 111.69 409.969 110.961C411.464 110.232 413.15 109.867 415.027 109.867C417.051 109.867 418.71 110.259 420.004 111.043C421.316 111.809 422.365 112.884 423.148 114.27C423.951 115.655 424.57 117.277 425.008 119.137C425.464 120.978 425.846 122.965 426.156 125.098V125.781C425.846 127.786 425.418 129.682 424.871 131.469C424.342 133.237 423.65 134.805 422.793 136.172C421.936 137.539 420.861 138.615 419.566 139.398C418.29 140.164 416.759 140.547 414.973 140.547C413.113 140.547 411.436 140.173 409.941 139.426C408.465 138.678 407.198 137.63 406.141 136.281C405.102 134.932 404.299 133.346 403.734 131.523C403.188 129.701 402.914 127.714 402.914 125.562ZM412.129 124.988V125.562C412.129 126.674 412.229 127.704 412.43 128.652C412.648 129.6 412.977 130.439 413.414 131.168C413.852 131.879 414.389 132.435 415.027 132.836C415.684 133.237 416.449 133.438 417.324 133.438C418.655 133.438 419.73 133.155 420.551 132.59C421.371 132.025 421.964 131.223 422.328 130.184C422.693 129.145 422.848 127.923 422.793 126.52V124.359C422.829 123.156 422.747 122.099 422.547 121.188C422.346 120.258 422.027 119.483 421.59 118.863C421.171 118.243 420.605 117.779 419.895 117.469C419.202 117.141 418.363 116.977 417.379 116.977C416.522 116.977 415.766 117.177 415.109 117.578C414.453 117.979 413.906 118.544 413.469 119.273C413.031 119.984 412.694 120.832 412.457 121.816C412.238 122.783 412.129 123.84 412.129 124.988Z" fill="black"/>
<rect x="93" y="178" width="1214" height="77" rx="10" fill="#D3D3D3"/>
<rect x="111" y="196" width="91" height="41" rx="3" fill="#424242"/>
<path d="M134.141 210.203H139.177C140.161 210.203 141.017 210.35 141.743 210.643C142.47 210.936 143.029 211.369 143.422 211.943C143.82 212.518 144.02 213.227 144.02 214.07C144.02 214.803 143.905 215.415 143.677 215.907C143.448 216.399 143.129 216.807 142.719 217.129C142.314 217.445 141.843 217.706 141.304 217.911L140.293 218.482H136.065L136.048 216.101H139.177C139.569 216.101 139.895 216.03 140.152 215.89C140.41 215.749 140.604 215.55 140.732 215.292C140.867 215.028 140.935 214.715 140.935 214.352C140.935 213.982 140.867 213.666 140.732 213.402C140.598 213.139 140.398 212.937 140.135 212.796C139.877 212.655 139.558 212.585 139.177 212.585H137.226V223H134.141V210.203ZM141.146 223L138.315 217.34L141.585 217.322L144.45 222.868V223H141.146ZM150.348 223.176C149.574 223.176 148.883 223.056 148.273 222.815C147.664 222.569 147.148 222.232 146.727 221.805C146.311 221.377 145.991 220.885 145.769 220.328C145.552 219.771 145.443 219.183 145.443 218.562V218.228C145.443 217.53 145.54 216.886 145.733 216.294C145.927 215.696 146.214 215.175 146.595 214.729C146.976 214.284 147.453 213.938 148.027 213.692C148.602 213.44 149.27 213.314 150.031 213.314C150.705 213.314 151.309 213.423 151.842 213.64C152.375 213.856 152.826 214.167 153.195 214.571C153.57 214.976 153.854 215.465 154.048 216.039C154.247 216.613 154.347 217.258 154.347 217.973V219.177H146.577V217.322H151.455V217.094C151.461 216.777 151.405 216.508 151.288 216.285C151.177 216.062 151.013 215.893 150.796 215.775C150.579 215.658 150.315 215.6 150.005 215.6C149.683 215.6 149.416 215.67 149.205 215.811C149 215.951 148.839 216.145 148.722 216.391C148.61 216.631 148.531 216.909 148.484 217.226C148.438 217.542 148.414 217.876 148.414 218.228V218.562C148.414 218.913 148.461 219.232 148.555 219.52C148.654 219.807 148.795 220.053 148.977 220.258C149.164 220.457 149.387 220.612 149.645 220.724C149.908 220.835 150.207 220.891 150.541 220.891C150.945 220.891 151.344 220.814 151.736 220.662C152.129 220.51 152.466 220.258 152.747 219.906L154.092 221.506C153.898 221.781 153.623 222.048 153.266 222.306C152.914 222.563 152.492 222.774 152 222.938C151.508 223.097 150.957 223.176 150.348 223.176ZM160.49 220.609V216.689C160.49 216.42 160.452 216.188 160.376 215.995C160.3 215.802 160.18 215.652 160.016 215.547C159.852 215.436 159.632 215.38 159.356 215.38C159.134 215.38 158.943 215.418 158.785 215.494C158.627 215.57 158.507 215.685 158.425 215.837C158.343 215.989 158.302 216.183 158.302 216.417H155.34C155.34 215.978 155.437 215.57 155.63 215.195C155.829 214.814 156.11 214.483 156.474 214.202C156.843 213.921 157.282 213.704 157.792 213.552C158.308 213.394 158.882 213.314 159.515 213.314C160.271 213.314 160.944 213.44 161.536 213.692C162.134 213.944 162.605 214.322 162.951 214.826C163.297 215.324 163.47 215.951 163.47 216.707V220.601C163.47 221.222 163.505 221.693 163.575 222.016C163.646 222.332 163.745 222.61 163.874 222.851V223H160.903C160.763 222.707 160.657 222.35 160.587 221.928C160.522 221.5 160.49 221.061 160.49 220.609ZM160.851 217.19L160.868 218.772H159.559C159.283 218.772 159.049 218.811 158.855 218.887C158.668 218.963 158.516 219.068 158.398 219.203C158.287 219.332 158.205 219.479 158.152 219.643C158.105 219.807 158.082 219.979 158.082 220.161C158.082 220.337 158.123 220.495 158.205 220.636C158.293 220.771 158.41 220.876 158.557 220.952C158.703 221.028 158.867 221.066 159.049 221.066C159.377 221.066 159.655 221.005 159.884 220.882C160.118 220.753 160.297 220.598 160.42 220.416C160.543 220.234 160.604 220.064 160.604 219.906L161.255 221.119C161.138 221.354 161.003 221.591 160.851 221.831C160.704 222.071 160.52 222.294 160.297 222.499C160.08 222.698 159.813 222.862 159.497 222.991C159.181 223.114 158.797 223.176 158.346 223.176C157.76 223.176 157.221 223.056 156.729 222.815C156.242 222.575 155.853 222.241 155.56 221.813C155.267 221.38 155.12 220.882 155.12 220.319C155.12 219.827 155.208 219.388 155.384 219.001C155.565 218.614 155.838 218.286 156.201 218.017C156.564 217.747 157.027 217.542 157.59 217.401C158.152 217.261 158.814 217.19 159.576 217.19H160.851ZM169.13 220.891C169.405 220.891 169.64 220.841 169.833 220.741C170.032 220.636 170.182 220.489 170.281 220.302C170.387 220.108 170.437 219.877 170.431 219.607H173.217C173.223 220.322 173.047 220.949 172.689 221.488C172.338 222.021 171.857 222.438 171.248 222.736C170.645 223.029 169.962 223.176 169.2 223.176C168.456 223.176 167.806 223.056 167.249 222.815C166.692 222.569 166.227 222.229 165.852 221.796C165.482 221.356 165.204 220.844 165.017 220.258C164.835 219.672 164.744 219.036 164.744 218.351V218.148C164.744 217.463 164.835 216.827 165.017 216.241C165.204 215.649 165.482 215.137 165.852 214.703C166.227 214.264 166.689 213.924 167.24 213.684C167.797 213.438 168.444 213.314 169.183 213.314C169.974 213.314 170.671 213.464 171.274 213.763C171.884 214.062 172.361 214.495 172.707 215.063C173.053 215.632 173.223 216.32 173.217 217.129H170.431C170.437 216.842 170.393 216.584 170.299 216.355C170.205 216.127 170.059 215.945 169.859 215.811C169.666 215.67 169.417 215.6 169.112 215.6C168.808 215.6 168.562 215.667 168.374 215.802C168.187 215.937 168.043 216.124 167.943 216.364C167.85 216.599 167.785 216.868 167.75 217.173C167.721 217.478 167.706 217.803 167.706 218.148V218.351C167.706 218.702 167.721 219.033 167.75 219.344C167.785 219.648 167.853 219.918 167.952 220.152C168.052 220.381 168.195 220.562 168.383 220.697C168.57 220.826 168.819 220.891 169.13 220.891ZM179.492 213.49V215.547H173.762V213.49H179.492ZM174.966 211.126H177.928V219.897C177.928 220.149 177.957 220.346 178.016 220.486C178.074 220.621 178.174 220.718 178.314 220.776C178.461 220.829 178.654 220.855 178.895 220.855C179.064 220.855 179.205 220.853 179.316 220.847C179.428 220.835 179.533 220.82 179.633 220.803V222.921C179.381 223.003 179.117 223.064 178.842 223.105C178.566 223.152 178.273 223.176 177.963 223.176C177.33 223.176 176.788 223.076 176.337 222.877C175.892 222.678 175.552 222.364 175.317 221.937C175.083 221.509 174.966 220.952 174.966 220.267V211.126Z" fill="white"/>
<rect x="111" y="196" width="91" height="41" rx="3" stroke="#424242" stroke-width="4"/>
<rect x="222" y="196" width="107" height="41" rx="3" fill="#424242"/>
<path d="M256.041 210.203V223H252.965L248.438 215.037V223H245.354V210.203H248.438L252.965 218.166V210.203H256.041ZM257.482 218.342V218.157C257.482 217.46 257.582 216.818 257.781 216.232C257.98 215.641 258.273 215.128 258.66 214.694C259.047 214.261 259.524 213.924 260.093 213.684C260.661 213.438 261.317 213.314 262.062 213.314C262.812 213.314 263.471 213.438 264.039 213.684C264.613 213.924 265.094 214.261 265.48 214.694C265.867 215.128 266.16 215.641 266.359 216.232C266.559 216.818 266.658 217.46 266.658 218.157V218.342C266.658 219.033 266.559 219.675 266.359 220.267C266.16 220.853 265.867 221.365 265.48 221.805C265.094 222.238 264.616 222.575 264.048 222.815C263.479 223.056 262.823 223.176 262.079 223.176C261.335 223.176 260.676 223.056 260.102 222.815C259.527 222.575 259.047 222.238 258.66 221.805C258.273 221.365 257.98 220.853 257.781 220.267C257.582 219.675 257.482 219.033 257.482 218.342ZM260.444 218.157V218.342C260.444 218.699 260.471 219.033 260.523 219.344C260.576 219.654 260.664 219.927 260.787 220.161C260.91 220.39 261.077 220.568 261.288 220.697C261.499 220.826 261.763 220.891 262.079 220.891C262.39 220.891 262.647 220.826 262.853 220.697C263.063 220.568 263.23 220.39 263.354 220.161C263.477 219.927 263.564 219.654 263.617 219.344C263.67 219.033 263.696 218.699 263.696 218.342V218.157C263.696 217.812 263.67 217.486 263.617 217.182C263.564 216.871 263.477 216.599 263.354 216.364C263.23 216.124 263.063 215.937 262.853 215.802C262.642 215.667 262.378 215.6 262.062 215.6C261.751 215.6 261.49 215.667 261.279 215.802C261.074 215.937 260.91 216.124 260.787 216.364C260.664 216.599 260.576 216.871 260.523 217.182C260.471 217.486 260.444 217.812 260.444 218.157ZM273.443 220.82V209.5H276.423V223H273.751L273.443 220.82ZM267.607 218.359V218.175C267.607 217.454 267.687 216.798 267.845 216.206C268.003 215.608 268.237 215.096 268.548 214.668C268.858 214.234 269.245 213.9 269.708 213.666C270.171 213.432 270.704 213.314 271.308 213.314C271.847 213.314 272.318 213.44 272.723 213.692C273.127 213.938 273.473 214.284 273.76 214.729C274.047 215.175 274.281 215.696 274.463 216.294C274.645 216.886 274.782 217.524 274.876 218.21V218.43C274.782 219.074 274.645 219.684 274.463 220.258C274.281 220.826 274.047 221.33 273.76 221.77C273.473 222.209 273.124 222.555 272.714 222.807C272.31 223.053 271.835 223.176 271.29 223.176C270.687 223.176 270.153 223.056 269.69 222.815C269.233 222.575 268.85 222.238 268.539 221.805C268.234 221.371 268.003 220.861 267.845 220.275C267.687 219.689 267.607 219.051 267.607 218.359ZM270.569 218.175V218.359C270.569 218.717 270.593 219.048 270.64 219.353C270.687 219.657 270.766 219.927 270.877 220.161C270.994 220.39 271.146 220.568 271.334 220.697C271.527 220.826 271.765 220.891 272.046 220.891C272.427 220.891 272.74 220.8 272.986 220.618C273.238 220.437 273.423 220.179 273.54 219.845C273.663 219.511 273.716 219.118 273.698 218.667V217.973C273.71 217.586 273.684 217.246 273.619 216.953C273.555 216.654 273.452 216.405 273.312 216.206C273.177 216.007 273.004 215.857 272.793 215.758C272.588 215.652 272.345 215.6 272.063 215.6C271.788 215.6 271.554 215.664 271.36 215.793C271.173 215.922 271.021 216.104 270.903 216.338C270.786 216.566 270.701 216.839 270.648 217.155C270.596 217.466 270.569 217.806 270.569 218.175ZM282.707 223.176C281.934 223.176 281.242 223.056 280.633 222.815C280.023 222.569 279.508 222.232 279.086 221.805C278.67 221.377 278.351 220.885 278.128 220.328C277.911 219.771 277.803 219.183 277.803 218.562V218.228C277.803 217.53 277.899 216.886 278.093 216.294C278.286 215.696 278.573 215.175 278.954 214.729C279.335 214.284 279.812 213.938 280.387 213.692C280.961 213.44 281.629 213.314 282.391 213.314C283.064 213.314 283.668 213.423 284.201 213.64C284.734 213.856 285.186 214.167 285.555 214.571C285.93 214.976 286.214 215.465 286.407 216.039C286.606 216.613 286.706 217.258 286.706 217.973V219.177H278.937V217.322H283.814V217.094C283.82 216.777 283.765 216.508 283.647 216.285C283.536 216.062 283.372 215.893 283.155 215.775C282.938 215.658 282.675 215.6 282.364 215.6C282.042 215.6 281.775 215.67 281.564 215.811C281.359 215.951 281.198 216.145 281.081 216.391C280.97 216.631 280.891 216.909 280.844 217.226C280.797 217.542 280.773 217.876 280.773 218.228V218.562C280.773 218.913 280.82 219.232 280.914 219.52C281.014 219.807 281.154 220.053 281.336 220.258C281.523 220.457 281.746 220.612 282.004 220.724C282.268 220.835 282.566 220.891 282.9 220.891C283.305 220.891 283.703 220.814 284.096 220.662C284.488 220.51 284.825 220.258 285.106 219.906L286.451 221.506C286.258 221.781 285.982 222.048 285.625 222.306C285.273 222.563 284.852 222.774 284.359 222.938C283.867 223.097 283.316 223.176 282.707 223.176ZM288.104 221.611C288.104 221.189 288.256 220.838 288.561 220.557C288.865 220.27 289.258 220.126 289.738 220.126C290.225 220.126 290.617 220.27 290.916 220.557C291.221 220.838 291.373 221.189 291.373 221.611C291.373 222.033 291.221 222.388 290.916 222.675C290.617 222.956 290.225 223.097 289.738 223.097C289.258 223.097 288.865 222.956 288.561 222.675C288.256 222.388 288.104 222.033 288.104 221.611ZM293.579 213.49H296.55V223.308C296.55 224.069 296.403 224.711 296.11 225.232C295.817 225.76 295.398 226.158 294.854 226.428C294.309 226.703 293.658 226.841 292.902 226.841C292.65 226.841 292.419 226.829 292.208 226.806C291.991 226.788 291.754 226.75 291.496 226.691V224.45C291.648 224.474 291.789 224.491 291.918 224.503C292.047 224.521 292.188 224.529 292.34 224.529C292.609 224.529 292.835 224.485 293.017 224.397C293.198 224.31 293.336 224.175 293.43 223.993C293.529 223.812 293.579 223.583 293.579 223.308V213.49ZM293.359 211.038C293.359 210.616 293.512 210.271 293.816 210.001C294.121 209.731 294.517 209.597 295.003 209.597C295.489 209.597 295.885 209.731 296.189 210.001C296.494 210.271 296.646 210.616 296.646 211.038C296.646 211.46 296.494 211.806 296.189 212.075C295.885 212.345 295.489 212.479 295.003 212.479C294.517 212.479 294.121 212.345 293.816 212.075C293.512 211.806 293.359 211.46 293.359 211.038ZM303.212 220.328C303.212 220.164 303.156 220.023 303.045 219.906C302.939 219.783 302.752 219.672 302.482 219.572C302.213 219.467 301.835 219.361 301.349 219.256C300.886 219.156 300.449 219.024 300.039 218.86C299.635 218.696 299.28 218.497 298.976 218.263C298.671 218.028 298.431 217.75 298.255 217.428C298.085 217.105 298 216.736 298 216.32C298 215.916 298.085 215.535 298.255 215.178C298.431 214.814 298.686 214.495 299.02 214.22C299.359 213.938 299.772 213.719 300.259 213.561C300.745 213.396 301.299 213.314 301.92 213.314C302.775 213.314 303.514 213.446 304.135 213.71C304.756 213.968 305.233 214.331 305.567 214.8C305.907 215.263 306.077 215.799 306.077 216.408H303.115C303.115 216.168 303.074 215.963 302.992 215.793C302.916 215.623 302.79 215.494 302.614 215.406C302.438 215.312 302.204 215.266 301.911 215.266C301.706 215.266 301.519 215.304 301.349 215.38C301.185 215.456 301.053 215.562 300.953 215.696C300.854 215.831 300.804 215.989 300.804 216.171C300.804 216.3 300.833 216.417 300.892 216.522C300.956 216.622 301.053 216.716 301.182 216.804C301.311 216.886 301.475 216.962 301.674 217.032C301.873 217.097 302.113 217.155 302.395 217.208C303.033 217.325 303.631 217.492 304.188 217.709C304.744 217.926 305.195 218.233 305.541 218.632C305.893 219.03 306.068 219.566 306.068 220.24C306.068 220.662 305.972 221.052 305.778 221.409C305.585 221.761 305.307 222.071 304.943 222.341C304.58 222.604 304.144 222.81 303.634 222.956C303.124 223.103 302.55 223.176 301.911 223.176C301.003 223.176 300.235 223.015 299.608 222.692C298.981 222.364 298.507 221.954 298.185 221.462C297.868 220.964 297.71 220.46 297.71 219.95H300.47C300.481 220.243 300.552 220.483 300.681 220.671C300.815 220.858 300.994 220.996 301.217 221.084C301.439 221.172 301.697 221.216 301.99 221.216C302.26 221.216 302.482 221.178 302.658 221.102C302.84 221.025 302.978 220.923 303.071 220.794C303.165 220.659 303.212 220.504 303.212 220.328Z" fill="white"/>
<rect x="222" y="196" width="107" height="41" rx="3" stroke="#424242" stroke-width="4"/>
<rect x="353" y="196" width="128" height="41" rx="3" fill="#424242"/>
<path d="M384.806 220.627V223H377.985V220.627H384.806ZM379.084 210.203V223H375.999V210.203H379.084ZM383.927 215.283V217.577H377.985V215.283H383.927ZM384.832 210.203V212.585H377.985V210.203H384.832ZM388.444 213.49L389.78 216.109L391.16 213.49H394.236L391.74 218.122L394.368 223H391.266L389.78 220.188L388.304 223H385.201L387.829 218.122L385.342 213.49H388.444ZM398.2 215.318V226.656H395.238V213.49H397.998L398.2 215.318ZM404.036 218.131V218.315C404.036 219.007 403.957 219.648 403.799 220.24C403.641 220.832 403.406 221.348 403.096 221.787C402.785 222.227 402.398 222.569 401.936 222.815C401.479 223.056 400.948 223.176 400.345 223.176C399.776 223.176 399.287 223.05 398.877 222.798C398.467 222.546 398.124 222.197 397.849 221.752C397.573 221.307 397.351 220.797 397.181 220.223C397.011 219.648 396.876 219.042 396.776 218.403V218.166C396.876 217.48 397.011 216.845 397.181 216.259C397.351 215.667 397.573 215.151 397.849 214.712C398.124 214.272 398.464 213.93 398.868 213.684C399.278 213.438 399.768 213.314 400.336 213.314C400.939 213.314 401.47 213.429 401.927 213.657C402.39 213.886 402.776 214.214 403.087 214.642C403.403 215.063 403.641 215.57 403.799 216.162C403.957 216.754 404.036 217.41 404.036 218.131ZM401.074 218.315V218.131C401.074 217.762 401.048 217.425 400.995 217.12C400.942 216.81 400.857 216.54 400.74 216.312C400.629 216.083 400.479 215.907 400.292 215.784C400.104 215.661 399.873 215.6 399.598 215.6C399.281 215.6 399.015 215.649 398.798 215.749C398.587 215.843 398.417 215.989 398.288 216.188C398.165 216.382 398.077 216.625 398.024 216.918C397.978 217.205 397.957 217.542 397.963 217.929V218.649C397.951 219.095 397.995 219.487 398.095 219.827C398.194 220.161 398.367 220.422 398.613 220.609C398.859 220.797 399.193 220.891 399.615 220.891C399.896 220.891 400.131 220.826 400.318 220.697C400.506 220.562 400.655 220.378 400.767 220.144C400.878 219.903 400.957 219.628 401.004 219.317C401.051 219.007 401.074 218.673 401.074 218.315ZM408.343 215.846V223H405.381V213.49H408.149L408.343 215.846ZM411.155 213.42L411.103 216.171C410.985 216.159 410.827 216.145 410.628 216.127C410.429 216.109 410.262 216.101 410.127 216.101C409.781 216.101 409.482 216.142 409.23 216.224C408.984 216.3 408.779 216.417 408.615 216.575C408.457 216.728 408.34 216.921 408.264 217.155C408.193 217.39 408.161 217.662 408.167 217.973L407.631 217.621C407.631 216.982 407.692 216.402 407.815 215.881C407.944 215.354 408.126 214.899 408.36 214.519C408.595 214.132 408.879 213.836 409.213 213.631C409.547 213.42 409.922 213.314 410.338 213.314C410.484 213.314 410.628 213.323 410.769 213.341C410.915 213.358 411.044 213.385 411.155 213.42ZM416.604 223.176C415.831 223.176 415.14 223.056 414.53 222.815C413.921 222.569 413.405 222.232 412.983 221.805C412.567 221.377 412.248 220.885 412.025 220.328C411.809 219.771 411.7 219.183 411.7 218.562V218.228C411.7 217.53 411.797 216.886 411.99 216.294C412.184 215.696 412.471 215.175 412.852 214.729C413.232 214.284 413.71 213.938 414.284 213.692C414.858 213.44 415.526 213.314 416.288 213.314C416.962 213.314 417.565 213.423 418.099 213.64C418.632 213.856 419.083 214.167 419.452 214.571C419.827 214.976 420.111 215.465 420.305 216.039C420.504 216.613 420.604 217.258 420.604 217.973V219.177H412.834V217.322H417.712V217.094C417.718 216.777 417.662 216.508 417.545 216.285C417.434 216.062 417.27 215.893 417.053 215.775C416.836 215.658 416.572 215.6 416.262 215.6C415.939 215.6 415.673 215.67 415.462 215.811C415.257 215.951 415.096 216.145 414.979 216.391C414.867 216.631 414.788 216.909 414.741 217.226C414.694 217.542 414.671 217.876 414.671 218.228V218.562C414.671 218.913 414.718 219.232 414.812 219.52C414.911 219.807 415.052 220.053 415.233 220.258C415.421 220.457 415.644 220.612 415.901 220.724C416.165 220.835 416.464 220.891 416.798 220.891C417.202 220.891 417.601 220.814 417.993 220.662C418.386 220.51 418.723 220.258 419.004 219.906L420.349 221.506C420.155 221.781 419.88 222.048 419.522 222.306C419.171 222.563 418.749 222.774 418.257 222.938C417.765 223.097 417.214 223.176 416.604 223.176ZM426.791 220.328C426.791 220.164 426.735 220.023 426.624 219.906C426.519 219.783 426.331 219.672 426.062 219.572C425.792 219.467 425.414 219.361 424.928 219.256C424.465 219.156 424.028 219.024 423.618 218.86C423.214 218.696 422.859 218.497 422.555 218.263C422.25 218.028 422.01 217.75 421.834 217.428C421.664 217.105 421.579 216.736 421.579 216.32C421.579 215.916 421.664 215.535 421.834 215.178C422.01 214.814 422.265 214.495 422.599 214.22C422.938 213.938 423.352 213.719 423.838 213.561C424.324 213.396 424.878 213.314 425.499 213.314C426.354 213.314 427.093 213.446 427.714 213.71C428.335 213.968 428.812 214.331 429.146 214.8C429.486 215.263 429.656 215.799 429.656 216.408H426.694C426.694 216.168 426.653 215.963 426.571 215.793C426.495 215.623 426.369 215.494 426.193 215.406C426.018 215.312 425.783 215.266 425.49 215.266C425.285 215.266 425.098 215.304 424.928 215.38C424.764 215.456 424.632 215.562 424.532 215.696C424.433 215.831 424.383 215.989 424.383 216.171C424.383 216.3 424.412 216.417 424.471 216.522C424.535 216.622 424.632 216.716 424.761 216.804C424.89 216.886 425.054 216.962 425.253 217.032C425.452 217.097 425.692 217.155 425.974 217.208C426.612 217.325 427.21 217.492 427.767 217.709C428.323 217.926 428.774 218.233 429.12 218.632C429.472 219.03 429.647 219.566 429.647 220.24C429.647 220.662 429.551 221.052 429.357 221.409C429.164 221.761 428.886 222.071 428.522 222.341C428.159 222.604 427.723 222.81 427.213 222.956C426.703 223.103 426.129 223.176 425.49 223.176C424.582 223.176 423.814 223.015 423.188 222.692C422.561 222.364 422.086 221.954 421.764 221.462C421.447 220.964 421.289 220.46 421.289 219.95H424.049C424.061 220.243 424.131 220.483 424.26 220.671C424.395 220.858 424.573 220.996 424.796 221.084C425.019 221.172 425.276 221.216 425.569 221.216C425.839 221.216 426.062 221.178 426.237 221.102C426.419 221.025 426.557 220.923 426.65 220.794C426.744 220.659 426.791 220.504 426.791 220.328ZM436.02 220.328C436.02 220.164 435.964 220.023 435.853 219.906C435.747 219.783 435.56 219.672 435.29 219.572C435.021 219.467 434.643 219.361 434.156 219.256C433.693 219.156 433.257 219.024 432.847 218.86C432.442 218.696 432.088 218.497 431.783 218.263C431.479 218.028 431.238 217.75 431.062 217.428C430.893 217.105 430.808 216.736 430.808 216.32C430.808 215.916 430.893 215.535 431.062 215.178C431.238 214.814 431.493 214.495 431.827 214.22C432.167 213.938 432.58 213.719 433.066 213.561C433.553 213.396 434.106 213.314 434.728 213.314C435.583 213.314 436.321 213.446 436.942 213.71C437.563 213.968 438.041 214.331 438.375 214.8C438.715 215.263 438.885 215.799 438.885 216.408H435.923C435.923 216.168 435.882 215.963 435.8 215.793C435.724 215.623 435.598 215.494 435.422 215.406C435.246 215.312 435.012 215.266 434.719 215.266C434.514 215.266 434.326 215.304 434.156 215.38C433.992 215.456 433.86 215.562 433.761 215.696C433.661 215.831 433.611 215.989 433.611 216.171C433.611 216.3 433.641 216.417 433.699 216.522C433.764 216.622 433.86 216.716 433.989 216.804C434.118 216.886 434.282 216.962 434.481 217.032C434.681 217.097 434.921 217.155 435.202 217.208C435.841 217.325 436.438 217.492 436.995 217.709C437.552 217.926 438.003 218.233 438.349 218.632C438.7 219.03 438.876 219.566 438.876 220.24C438.876 220.662 438.779 221.052 438.586 221.409C438.393 221.761 438.114 222.071 437.751 222.341C437.388 222.604 436.951 222.81 436.441 222.956C435.932 223.103 435.357 223.176 434.719 223.176C433.811 223.176 433.043 223.015 432.416 222.692C431.789 222.364 431.314 221.954 430.992 221.462C430.676 220.964 430.518 220.46 430.518 219.95H433.277C433.289 220.243 433.359 220.483 433.488 220.671C433.623 220.858 433.802 220.996 434.024 221.084C434.247 221.172 434.505 221.216 434.798 221.216C435.067 221.216 435.29 221.178 435.466 221.102C435.647 221.025 435.785 220.923 435.879 220.794C435.973 220.659 436.02 220.504 436.02 220.328ZM440.458 221.611C440.458 221.189 440.61 220.838 440.915 220.557C441.22 220.27 441.612 220.126 442.093 220.126C442.579 220.126 442.972 220.27 443.271 220.557C443.575 220.838 443.728 221.189 443.728 221.611C443.728 222.033 443.575 222.388 443.271 222.675C442.972 222.956 442.579 223.097 442.093 223.097C441.612 223.097 441.22 222.956 440.915 222.675C440.61 222.388 440.458 222.033 440.458 221.611ZM445.934 213.49H448.904V223.308C448.904 224.069 448.758 224.711 448.465 225.232C448.172 225.76 447.753 226.158 447.208 226.428C446.663 226.703 446.013 226.841 445.257 226.841C445.005 226.841 444.773 226.829 444.562 226.806C444.346 226.788 444.108 226.75 443.851 226.691V224.45C444.003 224.474 444.144 224.491 444.272 224.503C444.401 224.521 444.542 224.529 444.694 224.529C444.964 224.529 445.189 224.485 445.371 224.397C445.553 224.31 445.69 224.175 445.784 223.993C445.884 223.812 445.934 223.583 445.934 223.308V213.49ZM445.714 211.038C445.714 210.616 445.866 210.271 446.171 210.001C446.476 209.731 446.871 209.597 447.357 209.597C447.844 209.597 448.239 209.731 448.544 210.001C448.849 210.271 449.001 210.616 449.001 211.038C449.001 211.46 448.849 211.806 448.544 212.075C448.239 212.345 447.844 212.479 447.357 212.479C446.871 212.479 446.476 212.345 446.171 212.075C445.866 211.806 445.714 211.46 445.714 211.038ZM455.566 220.328C455.566 220.164 455.511 220.023 455.399 219.906C455.294 219.783 455.106 219.672 454.837 219.572C454.567 219.467 454.189 219.361 453.703 219.256C453.24 219.156 452.804 219.024 452.394 218.86C451.989 218.696 451.635 218.497 451.33 218.263C451.025 218.028 450.785 217.75 450.609 217.428C450.439 217.105 450.354 216.736 450.354 216.32C450.354 215.916 450.439 215.535 450.609 215.178C450.785 214.814 451.04 214.495 451.374 214.22C451.714 213.938 452.127 213.719 452.613 213.561C453.1 213.396 453.653 213.314 454.274 213.314C455.13 213.314 455.868 213.446 456.489 213.71C457.11 213.968 457.588 214.331 457.922 214.8C458.262 215.263 458.432 215.799 458.432 216.408H455.47C455.47 216.168 455.429 215.963 455.347 215.793C455.271 215.623 455.145 215.494 454.969 215.406C454.793 215.312 454.559 215.266 454.266 215.266C454.061 215.266 453.873 215.304 453.703 215.38C453.539 215.456 453.407 215.562 453.308 215.696C453.208 215.831 453.158 215.989 453.158 216.171C453.158 216.3 453.188 216.417 453.246 216.522C453.311 216.622 453.407 216.716 453.536 216.804C453.665 216.886 453.829 216.962 454.028 217.032C454.228 217.097 454.468 217.155 454.749 217.208C455.388 217.325 455.985 217.492 456.542 217.709C457.099 217.926 457.55 218.233 457.896 218.632C458.247 219.03 458.423 219.566 458.423 220.24C458.423 220.662 458.326 221.052 458.133 221.409C457.939 221.761 457.661 222.071 457.298 222.341C456.935 222.604 456.498 222.81 455.988 222.956C455.479 223.103 454.904 223.176 454.266 223.176C453.357 223.176 452.59 223.015 451.963 222.692C451.336 222.364 450.861 221.954 450.539 221.462C450.223 220.964 450.064 220.46 450.064 219.95H452.824C452.836 220.243 452.906 220.483 453.035 220.671C453.17 220.858 453.349 220.996 453.571 221.084C453.794 221.172 454.052 221.216 454.345 221.216C454.614 221.216 454.837 221.178 455.013 221.102C455.194 221.025 455.332 220.923 455.426 220.794C455.52 220.659 455.566 220.504 455.566 220.328Z" fill="white"/>
<rect x="353" y="196" width="128" height="41" rx="3" stroke="#424242" stroke-width="4"/>
<rect x="505" y="196" width="124" height="41" rx="3" fill="#424242"/>
<path d="M529.585 210.203H532.099L534.955 219.106L537.812 210.203H540.325L535.975 223H533.936L529.585 210.203ZM528.056 210.203H530.657L531.141 220.012V223H528.056V210.203ZM539.253 210.203H541.863V223H538.77V220.012L539.253 210.203ZM543.331 218.342V218.157C543.331 217.46 543.431 216.818 543.63 216.232C543.829 215.641 544.122 215.128 544.509 214.694C544.896 214.261 545.373 213.924 545.941 213.684C546.51 213.438 547.166 213.314 547.91 213.314C548.66 213.314 549.319 213.438 549.888 213.684C550.462 213.924 550.942 214.261 551.329 214.694C551.716 215.128 552.009 215.641 552.208 216.232C552.407 216.818 552.507 217.46 552.507 218.157V218.342C552.507 219.033 552.407 219.675 552.208 220.267C552.009 220.853 551.716 221.365 551.329 221.805C550.942 222.238 550.465 222.575 549.896 222.815C549.328 223.056 548.672 223.176 547.928 223.176C547.184 223.176 546.524 223.056 545.95 222.815C545.376 222.575 544.896 222.238 544.509 221.805C544.122 221.365 543.829 220.853 543.63 220.267C543.431 219.675 543.331 219.033 543.331 218.342ZM546.293 218.157V218.342C546.293 218.699 546.319 219.033 546.372 219.344C546.425 219.654 546.513 219.927 546.636 220.161C546.759 220.39 546.926 220.568 547.137 220.697C547.348 220.826 547.611 220.891 547.928 220.891C548.238 220.891 548.496 220.826 548.701 220.697C548.912 220.568 549.079 220.39 549.202 220.161C549.325 219.927 549.413 219.654 549.466 219.344C549.519 219.033 549.545 218.699 549.545 218.342V218.157C549.545 217.812 549.519 217.486 549.466 217.182C549.413 216.871 549.325 216.599 549.202 216.364C549.079 216.124 548.912 215.937 548.701 215.802C548.49 215.667 548.227 215.6 547.91 215.6C547.6 215.6 547.339 215.667 547.128 215.802C546.923 215.937 546.759 216.124 546.636 216.364C546.513 216.599 546.425 216.871 546.372 217.182C546.319 217.486 546.293 217.812 546.293 218.157ZM556.734 215.521V223H553.772V213.49H556.55L556.734 215.521ZM556.383 217.92L555.688 217.938C555.688 217.211 555.776 216.563 555.952 215.995C556.128 215.421 556.377 214.935 556.699 214.536C557.021 214.138 557.405 213.836 557.851 213.631C558.302 213.42 558.803 213.314 559.354 213.314C559.793 213.314 560.194 213.379 560.558 213.508C560.927 213.637 561.243 213.845 561.507 214.132C561.776 214.419 561.981 214.8 562.122 215.274C562.269 215.743 562.342 216.323 562.342 217.015V223H559.362V217.006C559.362 216.625 559.31 216.335 559.204 216.136C559.099 215.931 558.946 215.79 558.747 215.714C558.548 215.638 558.305 215.6 558.018 215.6C557.713 215.6 557.455 215.658 557.244 215.775C557.033 215.893 556.863 216.057 556.734 216.268C556.611 216.473 556.521 216.716 556.462 216.997C556.409 217.278 556.383 217.586 556.383 217.92ZM569.962 213.49H572.651V222.631C572.651 223.51 572.449 224.254 572.045 224.863C571.641 225.479 571.075 225.944 570.349 226.261C569.628 226.583 568.784 226.744 567.817 226.744C567.39 226.744 566.953 226.688 566.508 226.577C566.062 226.472 565.646 226.313 565.26 226.103C564.873 225.892 564.548 225.631 564.284 225.32L565.523 223.58C565.764 223.85 566.065 224.078 566.429 224.266C566.792 224.459 567.22 224.556 567.712 224.556C568.14 224.556 568.497 224.479 568.784 224.327C569.077 224.175 569.3 223.952 569.452 223.659C569.604 223.372 569.681 223.023 569.681 222.613V215.74L569.962 213.49ZM563.643 218.359V218.175C563.643 217.454 563.73 216.798 563.906 216.206C564.088 215.608 564.346 215.096 564.68 214.668C565.02 214.234 565.43 213.9 565.91 213.666C566.391 213.432 566.933 213.314 567.536 213.314C568.187 213.314 568.72 213.44 569.136 213.692C569.558 213.938 569.895 214.284 570.146 214.729C570.404 215.175 570.604 215.696 570.744 216.294C570.891 216.886 571.014 217.524 571.113 218.21V218.43C571.014 219.074 570.876 219.684 570.7 220.258C570.53 220.826 570.308 221.33 570.032 221.77C569.757 222.209 569.411 222.555 568.995 222.807C568.585 223.053 568.093 223.176 567.519 223.176C566.921 223.176 566.382 223.056 565.901 222.815C565.427 222.575 565.02 222.238 564.68 221.805C564.346 221.371 564.088 220.861 563.906 220.275C563.73 219.689 563.643 219.051 563.643 218.359ZM566.604 218.175V218.359C566.604 218.717 566.637 219.048 566.701 219.353C566.771 219.657 566.877 219.927 567.018 220.161C567.158 220.39 567.331 220.568 567.536 220.697C567.747 220.826 567.993 220.891 568.274 220.891C568.702 220.891 569.048 220.8 569.312 220.618C569.575 220.437 569.766 220.179 569.883 219.845C570 219.511 570.05 219.118 570.032 218.667V217.973C570.044 217.586 570.018 217.246 569.953 216.953C569.889 216.654 569.786 216.405 569.646 216.206C569.511 216.007 569.329 215.857 569.101 215.758C568.878 215.652 568.608 215.6 568.292 215.6C568.017 215.6 567.773 215.664 567.562 215.793C567.352 215.922 567.176 216.104 567.035 216.338C566.895 216.566 566.786 216.839 566.71 217.155C566.64 217.466 566.604 217.806 566.604 218.175ZM573.987 218.342V218.157C573.987 217.46 574.087 216.818 574.286 216.232C574.485 215.641 574.778 215.128 575.165 214.694C575.552 214.261 576.029 213.924 576.598 213.684C577.166 213.438 577.822 213.314 578.566 213.314C579.316 213.314 579.976 213.438 580.544 213.684C581.118 213.924 581.599 214.261 581.985 214.694C582.372 215.128 582.665 215.641 582.864 216.232C583.063 216.818 583.163 217.46 583.163 218.157V218.342C583.163 219.033 583.063 219.675 582.864 220.267C582.665 220.853 582.372 221.365 581.985 221.805C581.599 222.238 581.121 222.575 580.553 222.815C579.984 223.056 579.328 223.176 578.584 223.176C577.84 223.176 577.181 223.056 576.606 222.815C576.032 222.575 575.552 222.238 575.165 221.805C574.778 221.365 574.485 220.853 574.286 220.267C574.087 219.675 573.987 219.033 573.987 218.342ZM576.949 218.157V218.342C576.949 218.699 576.976 219.033 577.028 219.344C577.081 219.654 577.169 219.927 577.292 220.161C577.415 220.39 577.582 220.568 577.793 220.697C578.004 220.826 578.268 220.891 578.584 220.891C578.895 220.891 579.152 220.826 579.357 220.697C579.568 220.568 579.735 220.39 579.858 220.161C579.981 219.927 580.069 219.654 580.122 219.344C580.175 219.033 580.201 218.699 580.201 218.342V218.157C580.201 217.812 580.175 217.486 580.122 217.182C580.069 216.871 579.981 216.599 579.858 216.364C579.735 216.124 579.568 215.937 579.357 215.802C579.146 215.667 578.883 215.6 578.566 215.6C578.256 215.6 577.995 215.667 577.784 215.802C577.579 215.937 577.415 216.124 577.292 216.364C577.169 216.599 577.081 216.871 577.028 217.182C576.976 217.486 576.949 217.812 576.949 218.157ZM588.779 223H585.94L585.958 220.627H588.779C589.365 220.627 589.86 220.486 590.265 220.205C590.675 219.924 590.985 219.505 591.196 218.948C591.413 218.386 591.521 217.694 591.521 216.874V216.32C591.521 215.705 591.46 215.166 591.337 214.703C591.22 214.234 591.044 213.845 590.81 213.534C590.575 213.218 590.282 212.98 589.931 212.822C589.585 212.664 589.187 212.585 588.735 212.585H585.888V210.203H588.735C589.603 210.203 590.396 210.353 591.117 210.651C591.844 210.944 592.471 211.366 592.998 211.917C593.531 212.462 593.941 213.109 594.229 213.859C594.521 214.604 594.668 215.43 594.668 216.338V216.874C594.668 217.776 594.521 218.603 594.229 219.353C593.941 220.103 593.534 220.75 593.007 221.295C592.479 221.84 591.855 222.262 591.135 222.561C590.42 222.854 589.635 223 588.779 223ZM587.707 210.203V223H584.622V210.203H587.707ZM601.497 217.56H598.201L598.184 215.538H600.855C601.336 215.538 601.72 215.485 602.007 215.38C602.294 215.269 602.502 215.107 602.631 214.896C602.766 214.686 602.833 214.422 602.833 214.105C602.833 213.742 602.766 213.449 602.631 213.227C602.496 213.004 602.282 212.843 601.989 212.743C601.702 212.638 601.33 212.585 600.873 212.585H599.361V223H596.276V210.203H600.873C601.664 210.203 602.37 210.276 602.991 210.423C603.612 210.563 604.14 210.78 604.573 211.073C605.013 211.366 605.347 211.735 605.575 212.181C605.804 212.62 605.918 213.139 605.918 213.736C605.918 214.258 605.807 214.747 605.584 215.204C605.361 215.661 604.989 216.033 604.468 216.32C603.952 216.602 603.246 216.748 602.35 216.76L601.497 217.56ZM601.374 223H597.454L598.509 220.627H601.374C601.796 220.627 602.133 220.562 602.385 220.434C602.643 220.299 602.827 220.123 602.938 219.906C603.056 219.684 603.114 219.438 603.114 219.168C603.114 218.84 603.059 218.556 602.947 218.315C602.842 218.075 602.672 217.891 602.438 217.762C602.203 217.627 601.89 217.56 601.497 217.56H598.904L598.922 215.538H602.024L602.745 216.347C603.601 216.312 604.277 216.432 604.775 216.707C605.279 216.982 605.64 217.346 605.856 217.797C606.073 218.248 606.182 218.72 606.182 219.212C606.182 220.05 606 220.75 605.637 221.312C605.279 221.875 604.743 222.297 604.028 222.578C603.313 222.859 602.429 223 601.374 223Z" fill="white"/>
<rect x="505" y="196" width="124" height="41" rx="3" stroke="#424242" stroke-width="4"/>
</svg>
